<?xml version="1.0" standalone="no"?>
<!DOCTYPE svg PUBLIC "-//W3C//DTD SVG 20010904//EN"
 "http://www.w3.org/TR/2001/REC-SVG-20010904/DTD/svg10.dtd">
<svg version="1.0" xmlns="http://www.w3.org/2000/svg"
 width="1200.000000pt" height="675.000000pt" viewBox="0 0 1200.000000 675.000000"
 preserveAspectRatio="xMidYMid meet">

<g transform="translate(0.000000,675.000000) scale(0.100000,-0.100000)"
fill="#000000" stroke="none">
<path d="M0 3375 l0 -3375 6000 0 6000 0 0 3375 0 3375 -6000 0 -6000 0 0
-3375z m2293 3092 c18 -4 17 -5 -5 -6 -23 -1 -28 3 -27 22 1 15 3 17 6 5 2 -9
14 -19 26 -21z m675 2 c14 0 13 -2 -3 -8 -11 -4 -29 -5 -40 -2 -17 4 -18 6 -2
9 9 2 18 11 18 20 1 15 2 15 6 0 2 -10 12 -18 21 -19z m680 0 c15 -1 15 -2 0
-6 -10 -2 -19 -12 -19 -21 -1 -15 -2 -15 -6 1 -2 9 -12 18 -21 18 -15 1 -15 2
1 6 9 2 18 12 18 21 1 15 2 15 6 0 2 -10 12 -19 21 -19z m661 -6 c-1 -21 -3
-30 -6 -20 -2 9 -12 18 -21 18 -15 1 -15 2 1 6 9 2 17 11 17 19 0 8 2 14 5 14
3 0 4 -17 4 -37z m680 0 c-1 -21 -3 -30 -6 -20 -2 9 -12 18 -21 18 -15 1 -15
2 1 6 9 2 17 11 17 19 0 8 2 14 5 14 3 0 4 -17 4 -37z m2049 6 c16 -1 16 -2 0
-6 -9 -2 -19 -12 -21 -21 -3 -9 -5 1 -5 23 0 22 2 32 5 23 2 -10 12 -19 21
-19z m685 0 c22 -2 22 -2 0 -6 -13 -2 -24 -12 -24 -21 -1 -15 -2 -15 -6 1 -2
9 -12 18 -21 18 -15 1 -15 2 1 6 9 2 18 12 18 21 1 15 2 15 6 0 2 -10 14 -19
26 -19z m675 0 c15 -1 15 -2 0 -6 -10 -2 -19 -12 -19 -21 -1 -15 -2 -15 -6 1
-2 9 -12 18 -21 18 -15 1 -15 2 1 6 9 2 18 12 18 21 1 15 2 15 6 0 2 -10 12
-19 21 -19z m680 0 c16 -1 16 -2 0 -6 -9 -2 -19 -12 -21 -21 -3 -9 -5 1 -5 23
0 22 2 32 5 23 2 -10 12 -19 21 -19z m2710 0 c15 -1 15 -2 0 -6 -10 -2 -19
-12 -19 -21 -1 -15 -2 -15 -6 1 -2 9 -12 18 -21 18 -15 1 -15 2 1 6 9 2 18 12
18 21 1 15 2 15 6 0 2 -10 12 -19 21 -19z m-11533 -9 c-11 -4 -29 -5 -39 -2
-20 5 -20 5 -1 12 11 4 29 5 39 2 20 -5 20 -5 1 -12z m9485 6 c0 -10 -7 -12
-22 -8 -21 5 -21 6 -2 13 10 4 20 8 22 8 1 1 2 -5 2 -13z m1355 5 c3 -5 1 -12
-5 -16 -5 -3 -10 1 -10 9 0 18 6 21 15 7z m-10152 -8 c-7 -2 -21 -2 -30 0 -10
3 -4 5 12 5 17 0 24 -2 18 -5z m650 0 c-7 -2 -21 -2 -30 0 -10 3 -4 5 12 5 17
0 24 -2 18 -5z m4090 0 c-13 -2 -33 -2 -45 0 -13 2 -3 4 22 4 25 0 35 -2 23
-4z m690 0 c-7 -2 -21 -2 -30 0 -10 3 -4 5 12 5 17 0 24 -2 18 -5z m4077 3 c0
-2 -11 -6 -25 -8 -14 -3 -25 -1 -25 3 0 5 11 9 25 9 14 0 25 -2 25 -4z m-3855
-116 l29 -30 258 0 c165 0 258 -4 258 -10 0 -6 -93 -10 -258 -10 l-258 0 -34
35 -34 35 -575 0 -576 -1 -25 -34 -25 -34 -262 -1 c-169 0 -263 4 -263 10 0 6
94 10 263 10 l262 0 20 30 20 30 586 0 585 0 29 -30z m3838 -17 c-265 -2 -701
-2 -970 0 -268 1 -51 2 482 2 534 0 753 -1 488 -2z m558 -103 l74 -69 198 -1
197 0 0 -153 c0 -121 3 -157 15 -175 23 -32 17 -155 -7 -160 -16 -3 -18 15
-20 235 l-3 238 -189 2 c-212 3 -180 -8 -293 96 l-52 47 -960 0 -961 0 0 -55
c0 -48 -2 -55 -20 -55 -16 0 -20 7 -20 34 0 19 7 41 15 50 8 8 15 19 15 25 0
8 286 11 968 11 l969 0 74 -70z m-4444 10 l34 -30 262 0 261 0 48 -47 c48 -47
48 -47 48 -115 l0 -68 -144 0 -144 0 -26 -35 -27 -35 -853 0 -852 0 -34 35
-34 35 -158 0 -158 0 0 70 c0 70 0 70 46 115 l45 45 273 0 272 0 22 30 23 30
530 0 531 0 35 -30z m4868 -10 l39 -40 -182 0 -183 0 -42 40 -42 39 185 1 186
0 39 -40z m-2225 -85 c0 -30 -4 -55 -10 -55 -5 0 -10 25 -10 55 0 30 5 55 10
55 6 0 10 -25 10 -55z m40 39 c0 -8 5 -12 10 -9 6 4 8 11 5 16 -4 5 -1 9 4 9
7 0 11 -23 11 -55 0 -59 -12 -71 -28 -27 l-10 27 -1 -27 c-2 -53 -21 -28 -21
27 0 42 3 55 15 55 8 0 15 -7 15 -16z m78 5 c-10 -5 -18 -17 -18 -24 0 -8 8
-15 18 -15 16 -1 16 -1 0 -14 -10 -7 -18 -21 -18 -31 0 -10 -3 -15 -7 -12 -4
4 -7 30 -7 57 -1 47 0 50 24 50 22 -1 23 -2 8 -11z m72 -45 c0 -52 -1 -55 -22
-52 -19 2 -24 10 -26 42 -4 49 3 66 28 66 18 0 20 -6 20 -56z m-4782 -111
l-58 -4 0 -284 0 -285 639 0 c601 0 640 1 644 18 3 9 5 0 6 -21 2 -77 38 -128
108 -153 21 -7 30 -13 20 -14 -50 -1 -122 67 -133 125 l-6 35 -644 0 -644 0 0
295 0 295 63 -2 62 -2 -57 -3z m2842 -288 l0 -295 -634 0 c-349 0 -641 -3
-650 -6 -9 -3 -16 -1 -16 5 0 8 180 11 645 11 l645 0 0 285 0 284 -77 4 -78 3
83 2 82 2 0 -295z m-4637 248 c-413 -2 -1093 -2 -1510 0 -417 1 -78 2 752 2
831 0 1172 -1 758 -2z m5982 -50 c-66 -4 -72 -6 -115 -46 l-45 -42 45 48 44
47 71 -2 70 -2 -70 -3z m-3704 -98 l39 -35 893 0 892 1 25 34 25 34 160 -2
160 -1 -155 -4 -155 -3 -25 -34 -25 -34 -622 -1 c-547 0 -623 -2 -623 -15 0
-8 -5 -15 -11 -15 -6 0 -9 7 -5 15 5 13 -29 15 -269 15 l-275 0 -38 35 -39 35
-169 3 -169 3 174 2 174 2 38 -35z m3549 2 c0 -1 -42 -43 -92 -92 l-93 -90 90
93 c83 85 95 97 95 89z m360 -172 l0 -155 310 0 310 0 73 -70 72 -69 848 -1
847 0 0 61 c0 52 2 60 18 57 23 -4 29 -60 8 -78 -9 -7 -16 -21 -16 -31 0 -18
-25 -19 -856 -19 l-856 0 -72 70 -73 70 -311 0 -312 0 0 68 c-1 43 -6 74 -15
86 -10 13 -15 44 -15 93 0 66 2 73 20 73 19 0 20 -7 20 -155z m-8748 81 c-5
-20 -5 -20 -12 -1 -4 11 -5 29 -2 39 5 20 5 20 12 1 4 -11 5 -29 2 -39z m2031
34 c3 -11 1 -20 -4 -20 -5 0 -9 9 -9 20 0 11 2 20 4 20 2 0 6 -9 9 -20z m695
-11 c16 -1 16 -2 0 -6 -9 -2 -19 -12 -21 -21 -3 -9 -5 1 -5 23 0 22 2 32 5 23
2 -10 12 -19 21 -19z m664 13 c3 -9 1 -26 -3 -37 -6 -15 -8 -11 -8 18 -1 40 4
48 11 19z m678 -2 c0 -11 -4 -20 -9 -20 -5 0 -7 9 -4 20 3 11 7 20 9 20 2 0 4
-9 4 -20z m679 -17 c0 -29 -2 -33 -8 -18 -7 18 -4 55 5 55 2 0 4 -17 3 -37z
m2034 17 c3 -11 1 -20 -4 -20 -5 0 -9 9 -9 20 0 11 2 20 4 20 2 0 6 -9 9 -20z
m680 0 c3 -11 1 -20 -4 -20 -5 0 -9 9 -9 20 0 11 2 20 4 20 2 0 6 -9 9 -20z
m695 -11 c15 -1 15 -2 0 -6 -10 -2 -18 -12 -19 -21 0 -14 -2 -13 -8 3 -4 11
-5 29 -2 40 4 17 6 18 9 3 2 -10 11 -19 20 -19z m680 0 c15 -1 15 -2 0 -6 -10
-2 -19 -12 -19 -21 -1 -15 -2 -15 -6 1 -2 9 -12 18 -21 18 -15 1 -15 2 1 6 9
2 18 12 18 21 1 15 2 15 6 0 2 -10 12 -19 21 -19z m2015 11 c3 -11 1 -20 -4
-20 -5 0 -9 9 -9 20 0 11 2 20 4 20 2 0 6 -9 9 -20z m695 -11 c15 -1 15 -2 0
-6 -10 -2 -18 -12 -19 -21 0 -14 -2 -14 -6 -2 -3 8 -11 18 -17 22 -8 5 -7 8 2
8 6 0 13 8 13 18 1 16 2 16 6 0 2 -10 12 -19 21 -19z m-10183 1 c3 -5 -1 -10
-9 -10 -9 0 -16 5 -16 10 0 6 4 10 9 10 6 0 13 -4 16 -10z m4755 0 c12 -8 11
-10 -7 -10 -13 0 -23 5 -23 10 0 13 11 13 30 0z m3380 0 c0 -5 -4 -10 -10 -10
-5 0 -10 5 -10 10 0 6 5 10 10 10 6 0 10 -4 10 -10z m695 0 c18 -8 17 -9 -7
-9 -16 -1 -28 4 -28 9 0 12 8 12 35 0z m-9502 -7 c-7 -2 -19 -2 -25 0 -7 3 -2
5 12 5 14 0 19 -2 13 -5z m7388 -50 c13 -16 12 -17 -3 -4 -10 7 -18 15 -18 17
0 8 8 3 21 -13z m-2313 -104 c9 -1 -5 -5 -32 -10 -57 -9 -91 -31 -123 -79 -13
-18 -23 -28 -23 -23 0 30 49 79 98 98 l52 20 2 55 2 55 3 -57 c3 -46 8 -58 21
-59z m2190 91 c-7 -10 -14 -17 -17 -15 -4 4 18 35 25 35 2 0 -1 -9 -8 -20z
m705 13 c-7 -2 -19 -2 -25 0 -7 3 -2 5 12 5 14 0 19 -2 13 -5z m-6378 -93 c4
-6 83 -10 203 -10 l198 0 49 -50 49 -50 292 0 c247 0 293 2 304 15 9 11 33 15
86 15 l74 0 0 -200 0 -200 -44 0 c-26 0 -48 6 -56 15 -11 13 -55 15 -286 15
l-273 0 -32 -45 c-31 -43 -35 -45 -81 -45 -41 0 -50 -3 -58 -22 l-9 -23 0 23
c-1 22 -2 22 -164 22 l-163 0 -34 45 -34 45 -397 0 -398 0 -30 -44 c-36 -53
-37 -53 -303 -48 l-175 3 -32 44 -32 45 -268 0 c-227 0 -271 -2 -281 -15 -8
-9 -30 -15 -56 -15 l-44 0 0 200 0 200 74 0 c53 0 77 -4 86 -15 11 -13 57 -15
300 -15 l288 0 48 50 48 50 200 0 c113 0 208 5 216 10 21 13 727 13 735 0z
m-1425 -28 c0 -18 -57 -62 -80 -62 -23 0 -23 1 10 35 31 32 70 47 70 27z m80
0 c0 -17 -57 -62 -78 -62 -30 0 -28 14 9 44 29 25 69 35 69 18z m50 -27 c-21
-22 -43 -35 -59 -35 -25 0 -25 0 9 35 21 22 43 35 59 35 25 0 25 0 -9 -35z
m100 27 c0 -18 -57 -62 -80 -62 -23 0 -23 1 10 35 31 32 70 47 70 27z m1710
-27 l34 -35 -25 0 c-23 0 -79 45 -79 63 0 19 40 3 70 -28z m80 0 l34 -35 -25
0 c-23 0 -79 45 -79 63 0 19 40 3 70 -28z m71 3 c27 -32 27 -33 8 -36 -20 -4
-79 42 -79 60 0 20 45 5 71 -24z m79 -3 c34 -35 34 -35 9 -35 -16 0 -38 13
-59 35 -34 35 -34 35 -9 35 16 0 38 -13 59 -35z m2800 20 c29 -15 76 -72 67
-82 -3 -2 -13 9 -21 26 -9 17 -33 40 -54 50 -20 11 -33 20 -29 21 4 0 21 -7
37 -15z m5543 -12 c-7 -2 -19 -2 -25 0 -7 3 -2 5 12 5 14 0 19 -2 13 -5z
m-3473 -36 c0 -2 -15 -16 -32 -33 l-33 -29 29 33 c28 30 36 37 36 29z m-2117
-19 c33 -17 46 -39 47 -77 0 -40 -33 -81 -64 -81 -16 1 -14 4 10 14 34 15 44
33 44 76 0 34 -40 70 -77 70 -38 0 -76 -45 -71 -85 2 -18 0 -31 -4 -29 -4 3
-8 16 -8 29 0 71 64 115 123 83z m124 -50 c-3 -8 -6 -5 -6 6 -1 11 2 17 5 13
3 -3 4 -12 1 -19z m3489 -48 l44 -40 -308 0 -308 0 -39 40 -39 40 303 0 304 0
43 -40z m-1586 27 c0 -2 -10 -12 -22 -23 l-23 -19 19 23 c18 21 26 27 26 19z
m3602 -139 c-5 -257 -5 -254 -24 -234 -16 15 -18 38 -18 168 0 127 3 154 17
170 9 10 19 18 22 18 3 0 5 -55 3 -122z m-5524 51 c-21 -38 -78 -79 -110 -79
-7 0 5 9 28 19 45 20 81 60 91 100 3 14 8 20 10 14 3 -7 -6 -31 -19 -54z
m-159 5 c14 -12 -19 -1 -35 12 -18 14 -18 14 6 3 14 -6 27 -13 29 -15z m2001
3 c0 -2 -12 -14 -27 -28 l-28 -24 24 28 c23 25 31 32 31 24z m-3934 -49 c19
-23 19 -23 -1 -6 -16 13 -44 18 -120 21 l-100 3 101 2 c94 2 102 0 120 -20z
m7002 5 c-236 -2 -620 -2 -855 0 -236 1 -43 2 427 2 470 0 663 -1 428 -2z
m-10661 -205 c-2 -35 -3 -9 -3 57 0 66 1 94 3 63 2 -32 2 -86 0 -120z m5615
75 c-5 -181 -8 -199 -10 -50 -1 81 1 147 6 147 4 0 6 -44 4 -97z m1898 94 c0
-2 -15 -16 -32 -33 l-33 -29 29 33 c28 30 36 37 36 29z m-3754 -65 c-6 -5 -36
23 -36 34 0 4 9 -1 20 -11 11 -10 18 -20 16 -23z m3655 -40 c-17 -22 -38 -45
-48 -53 -10 -8 2 10 26 39 51 60 68 71 22 14z m-3503 -102 c7 0 13 8 13 18 1
16 2 16 6 0 2 -10 10 -18 16 -18 7 0 6 -4 -3 -10 -12 -7 -11 -13 10 -37 l25
-28 -25 20 c-41 33 -160 148 -160 155 0 4 24 -17 53 -47 30 -29 59 -53 65 -53z
m-657 -24 c-4 -19 -5 -19 -11 -1 -4 10 -4 30 -1 44 l5 26 6 -25 c4 -14 4 -34
1 -44z m8136 27 c-3 -10 -5 -4 -5 12 0 17 2 24 5 18 2 -7 2 -21 0 -30z m-4744
7 c3 -11 1 -20 -4 -20 -5 0 -9 9 -9 20 0 11 2 20 4 20 2 0 6 -9 9 -20z m683 5
c-4 -10 1 -15 17 -16 l22 -2 -22 -4 c-13 -2 -24 -12 -24 -21 -1 -14 -2 -13 -6
2 -4 15 -27 -3 -121 -95 l-117 -114 108 110 c59 61 105 114 101 118 -4 4 0 7
9 7 10 0 17 7 17 15 0 8 5 15 11 15 6 0 9 -7 5 -15z m-7467 -32 c-1 -17 -3
-21 -6 -10 -2 9 -12 17 -21 18 -14 0 -13 2 3 9 11 5 21 9 23 9 1 1 1 -11 1
-26z m681 17 c0 -5 -5 -10 -11 -10 -5 0 -7 5 -4 10 3 6 8 10 11 10 2 0 4 -4 4
-10z m1355 0 c3 -5 1 -10 -4 -10 -6 0 -11 5 -11 10 0 6 2 10 4 10 3 0 8 -4 11
-10z m2715 -6 c0 -8 -4 -12 -10 -9 -5 3 -10 10 -10 16 0 5 5 9 10 9 6 0 10 -7
10 -16z m680 6 c0 -5 -5 -10 -11 -10 -5 0 -7 5 -4 10 3 6 8 10 11 10 2 0 4 -4
4 -10z m680 0 c0 -5 -10 -10 -22 -10 -19 0 -20 2 -8 10 19 13 30 13 30 0z
m2027 -27 c-3 -10 -5 -4 -5 12 0 17 2 24 5 18 2 -7 2 -21 0 -30z m1714 21
c167 2 315 4 329 3 60 -2 628 -1 655 2 41 4 125 -10 125 -20 0 -5 -177 -9
-392 -9 -216 0 -548 0 -738 0 -561 -1 -560 -1 -560 10 0 6 36 10 88 11 48 1
98 4 112 8 14 4 37 4 51 -1 14 -5 163 -7 330 -4z m-9693 -36 c18 -18 17 -444
-2 -455 -7 -4 -16 -15 -19 -23 -3 -8 -6 99 -6 238 -1 138 3 252 7 252 4 0 13
-5 20 -12z m8826 -39 c54 -64 15 -159 -65 -159 -79 0 -124 64 -95 133 18 43
39 56 93 57 34 0 46 -5 67 -31z m1102 -28 c-3 -9 -10 -37 -17 -63 -6 -27 -16
-48 -21 -48 -6 0 -8 10 -4 23 3 12 9 39 12 60 5 30 4 37 -10 37 -9 0 -16 4
-16 8 0 5 14 7 30 4 23 -3 29 -9 26 -21z m265 10 c4 -40 5 -99 1 -108 -6 -19
-49 -16 -56 3 -4 9 -3 20 0 23 4 3 9 0 11 -6 7 -20 23 -15 23 7 0 11 -5 20
-12 20 -9 0 -9 3 0 12 7 7 12 21 12 33 -1 19 -1 19 -14 2 -10 -13 -16 -15 -22
-6 -9 15 23 40 42 32 8 -3 14 -8 15 -12z m269 -7 c0 -8 -4 -14 -10 -14 -5 0
-10 5 -10 10 0 6 -4 10 -10 10 -19 0 -10 -28 11 -33 17 -5 20 -12 17 -44 -3
-33 -6 -38 -28 -38 -23 0 -25 4 -28 53 -2 30 2 60 8 67 13 16 50 8 50 -11z
m-6405 -47 c5 5 3 0 -5 -11 -11 -14 -15 -15 -18 -5 -3 8 -19 30 -36 49 l-31
35 41 -38 c22 -20 44 -34 49 -30z m1670 48 c183 -10 396 -70 585 -165 128 -64
219 -125 328 -220 l84 -73 166 164 167 164 -164 -166 -164 -167 64 -73 c71
-82 141 -177 184 -254 16 -27 33 -53 39 -57 6 -4 8 -8 4 -8 -4 0 11 -38 32
-84 75 -162 126 -364 138 -547 29 -438 -131 -890 -427 -1202 l-35 -37 154
-158 155 -157 -157 154 -156 154 -84 -73 c-440 -381 -1030 -497 -1581 -309
-170 57 -373 177 -526 309 l-83 72 -67 -63 -66 -64 64 67 64 67 -62 68 c-78
86 -176 232 -234 348 -289 579 -201 1274 223 1763 l72 84 -29 31 -28 32 32
-28 31 -29 83 72 c269 232 591 365 944 389 55 4 111 6 125 5 14 -2 70 -6 125
-9z m3715 -7 c0 -13 5 -30 10 -38 7 -11 10 -5 10 23 0 40 17 51 24 15 3 -13 7
-32 9 -43 3 -11 5 -3 6 17 1 37 21 66 21 30 0 -54 -14 -112 -26 -112 -8 0 -15
10 -15 23 l-2 22 -4 -22 c-5 -24 -31 -31 -38 -10 -11 35 -15 117 -5 117 5 0
10 -10 10 -22z m153 5 c9 -35 6 -113 -3 -113 -6 0 -10 11 -10 25 0 14 -6 25
-14 25 -9 0 -12 -8 -8 -25 2 -15 0 -25 -7 -25 -6 0 -12 12 -12 28 -1 15 -2 44
-3 65 -2 34 0 37 25 37 18 0 29 -6 32 -17z m60 -45 c-27 -68 -30 -74 -38 -66
-3 3 2 22 11 44 9 21 20 49 25 62 5 12 13 22 18 22 5 0 -2 -28 -16 -62z m94
-5 c2 -37 -1 -63 -7 -63 -6 0 -10 11 -10 25 0 14 -4 25 -10 25 -5 0 -10 -11
-10 -25 0 -14 -4 -25 -10 -25 -6 0 -10 29 -10 66 l0 65 28 -3 c26 -3 27 -5 29
-65z m71 60 c-15 -4 -18 -16 -18 -64 0 -33 -4 -59 -10 -59 -6 0 -10 26 -10 59
0 38 -4 61 -12 64 -7 3 5 5 27 5 22 0 32 -2 23 -5z m183 -5 c1 -7 0 -17 -1
-23 -1 -5 -3 -28 -3 -50 -2 -33 -6 -41 -25 -43 -22 -3 -42 22 -27 36 4 4 10 1
12 -5 7 -20 23 -15 23 7 0 11 -5 20 -12 20 -9 0 -9 3 0 12 14 14 16 48 3 48
-5 0 -11 -6 -14 -12 -2 -7 -8 -10 -12 -6 -4 4 -4 11 0 17 9 15 55 14 56 -1z
m62 2 c-29 -12 -30 -30 -2 -30 18 0 20 -5 17 -42 -2 -36 -7 -44 -26 -46 -22
-3 -42 22 -27 36 4 4 10 1 12 -5 8 -23 23 -14 23 13 0 21 -4 24 -20 19 -17 -6
-20 -2 -20 29 0 34 2 36 33 35 29 0 30 -1 10 -9z m207 -2 c-1 -30 -27 -112
-37 -115 -8 -3 -7 12 3 49 18 68 18 66 -8 71 -17 3 -14 5 10 6 20 0 32 -4 32
-11z m111 5 c5 -37 6 -91 2 -105 -6 -23 -49 -24 -57 -2 -9 22 3 32 15 14 8
-13 10 -13 18 0 6 9 6 19 -1 27 -7 9 -7 17 2 28 10 12 10 19 2 27 -8 8 -13 7
-18 -5 -3 -9 -10 -15 -15 -12 -16 10 3 35 27 35 13 0 24 -3 25 -7z m-6202 -97
c-2 -2 -13 8 -23 22 l-19 27 24 -22 c12 -12 21 -24 18 -27z m-59 -12 c11 -12
11 -18 -2 -31 -19 -18 -38 -10 -38 16 0 33 20 40 40 15z m6000 -4 c0 -5 -4
-10 -10 -10 -5 0 -10 5 -10 10 0 6 5 10 10 10 6 0 10 -4 10 -10z m185 0 c3 -5
1 -10 -4 -10 -6 0 -11 5 -11 10 0 6 2 10 4 10 3 0 8 -4 11 -10z m-1669 -52
c17 -20 17 -21 1 -9 -16 13 -25 7 -95 -62 -43 -42 -80 -77 -83 -77 -3 0 31 38
75 83 45 46 81 85 82 85 0 1 9 -8 20 -20z m2444 18 c0 -2 -8 -10 -17 -17 -16
-13 -17 -12 -4 4 13 16 21 21 21 13z m-6900 -9 c0 -2 -10 -12 -22 -23 l-23
-19 19 23 c18 21 26 27 26 19z m-91 -44 c2 -2 0 -3 -6 -3 -6 0 -21 9 -34 21
l-24 20 30 -17 c17 -10 32 -19 34 -21z m6584 -10 c-171 -2 -455 -2 -630 0
-175 1 -34 2 312 2 347 0 490 -1 318 -2z m-6358 -123 c38 -38 67 -70 64 -70
-2 0 -36 32 -74 70 -38 39 -67 70 -64 70 2 0 36 -31 74 -70z m-3012 -47 c-211
-2 -555 -2 -765 0 -211 1 -39 2 382 2 421 0 593 -1 383 -2z m466 -103 l80 -70
195 0 196 0 0 -74 c0 -41 5 -78 10 -81 6 -3 10 -37 10 -76 0 -63 -2 -69 -21
-69 -19 0 -20 5 -19 68 1 37 1 102 1 145 l-1 78 -190 -2 -189 -1 -78 71 -77
71 -758 0 -758 0 2 -297 3 -298 314 -3 315 -2 70 -68 71 -67 638 3 637 2 0 55
c0 48 2 55 20 55 16 0 20 -7 20 -30 0 -17 -4 -38 -9 -48 -5 -9 -12 -25 -15
-34 -5 -17 -45 -18 -648 -18 l-643 0 -77 70 -76 70 -316 0 -316 0 0 78 c0 43
-5 83 -10 88 -16 16 -14 389 2 425 l13 29 762 0 763 0 79 -70z m416 5 l50 -44
-185 0 -185 0 -42 40 c-24 22 -43 42 -43 45 0 2 80 4 178 4 l177 -1 50 -44z
m5156 -58 l-24 -22 19 27 c10 14 21 24 23 22 3 -3 -6 -15 -18 -27z m2539 -4
c-19 -3 -44 -12 -55 -21 -20 -17 -20 -17 -1 6 14 16 29 22 55 20 l36 -1 -35
-4z m133 0 c-7 -2 -19 -2 -25 0 -7 3 -2 5 12 5 14 0 19 -2 13 -5z m114 1 c-3
-3 -12 -4 -19 -1 -8 3 -5 6 6 6 11 1 17 -2 13 -5z m331 -1 c-10 -2 -28 -2 -40
0 -13 2 -5 4 17 4 22 1 32 -1 23 -4z m75 0 c-7 -2 -21 -2 -30 0 -10 3 -4 5 12
5 17 0 24 -2 18 -5z m-10693 -45 c0 -18 -4 -28 -8 -22 -4 6 -14 14 -22 17 -12
4 -11 6 3 6 9 1 17 8 17 16 0 8 2 15 5 15 3 0 5 -15 5 -32z m3392 -22 c-5 -20
-5 -20 -12 -1 -4 11 -5 29 -2 39 5 20 5 20 12 1 4 -11 5 -29 2 -39z m679 -1
c-4 -17 -6 -18 -9 -2 -2 9 -11 18 -20 18 -15 1 -15 2 1 6 9 2 17 12 18 21 0
14 2 13 8 -3 4 -11 5 -29 2 -40z m3392 18 c-4 -42 -13 -58 -13 -25 0 15 -5 20
-15 16 -8 -4 -15 -1 -15 5 0 6 7 11 15 11 8 0 15 7 15 15 0 8 4 15 9 15 4 0 6
-17 4 -37z m676 0 c0 -29 -2 -33 -8 -18 -7 18 -4 55 5 55 2 0 4 -17 3 -37z
m1469 23 c2 -3 -6 -19 -20 -35 l-24 -31 -496 -3 c-329 -1 -494 1 -490 8 36 63
37 64 140 67 145 4 884 -1 890 -6z m1272 -151 c91 -91 163 -165 160 -165 -3 0
-79 74 -170 165 -91 91 -163 165 -160 165 3 0 79 -74 170 -165z m-10743 93
c-2 -13 -4 -3 -4 22 0 25 2 35 4 23 2 -13 2 -33 0 -45z m9573 53 c0 -18 -45
-61 -67 -66 -28 -5 -28 -5 -2 39 15 25 28 36 45 36 13 0 24 -4 24 -9z m101 -8
c-22 -37 -37 -50 -63 -55 -34 -6 -34 -3 -2 39 16 22 33 33 50 33 21 0 23 -3
15 -17z m100 0 c-22 -38 -39 -53 -60 -53 -26 0 -26 5 0 41 13 19 29 29 45 29
21 0 23 -3 15 -17z m969 -9 c0 -2 -9 -4 -20 -4 -11 0 -20 4 -20 9 0 5 9 7 20
4 11 -3 20 -7 20 -9z m-10182 -1 c-9 -2 -18 -10 -20 -16 -2 -9 -9 -7 -20 5
-17 17 -16 18 20 17 20 -1 29 -3 20 -6z m670 -4 c-12 -7 -24 -7 -35 0 -15 9
-12 10 17 10 29 0 32 -1 18 -10z m672 7 c0 -11 -19 -15 -25 -6 -3 5 1 10 9 10
9 0 16 -2 16 -4z m672 -18 c-4 -16 -7 -18 -10 -8 -3 8 -10 18 -16 22 -6 5 -2
8 11 8 17 0 20 -4 15 -22z m7498 18 c0 -8 -48 -12 -66 -5 -13 5 -7 8 24 8 23
1 42 -1 42 -3z m1338 -3 c-10 -2 -19 -12 -19 -21 -1 -16 -2 -16 -6 0 -2 9 -12
19 -21 21 -9 3 1 5 23 5 22 0 32 -2 23 -5z m-1588 -7 c0 -2 -8 -10 -17 -17
-16 -13 -17 -12 -4 4 13 16 21 21 21 13z m852 -163 l148 -147 0 -838 0 -838
-337 0 -337 0 -53 52 -53 52 -873 4 -872 3 -43 -55 -42 -54 -115 -1 -115 -2
-1 213 c0 117 0 253 1 301 1 55 -3 94 -11 103 -8 10 -8 14 0 14 17 0 15 670
-2 671 -9 0 -9 2 1 6 6 2 12 17 12 31 0 22 45 72 227 254 l228 228 676 0 677
0 15 23 c8 12 33 46 56 75 l41 52 312 0 311 0 149 -147z m-3452 87 c-17 -22
-37 -43 -43 -47 -6 -4 6 14 27 40 21 26 40 47 43 47 3 0 -10 -18 -27 -40z
m2570 36 c0 -2 -8 -10 -17 -17 -16 -13 -17 -12 -4 4 13 16 21 21 21 13z
m-1303 -52 c-3 -3 -12 -4 -19 -1 -8 3 -5 6 6 6 11 1 17 -2 13 -5z m206 -1
c-34 -2 -93 -2 -130 0 -37 2 -9 3 62 3 72 0 102 -1 68 -3z m325 0 c-21 -2 -57
-2 -80 0 -24 2 -7 4 37 4 44 0 63 -2 43 -4z m169 0 c-20 -2 -52 -2 -70 0 -17
2 0 4 38 4 39 0 53 -2 32 -4z m256 0 c-13 -2 -33 -2 -45 0 -13 2 -3 4 22 4 25
0 35 -2 23 -4z m160 0 c-13 -2 -33 -2 -45 0 -13 2 -3 4 22 4 25 0 35 -2 23 -4z
m100 0 c-13 -2 -35 -2 -50 0 -16 2 -5 4 22 4 28 0 40 -2 28 -4z m-8806 -18 c3
-9 2 -19 -2 -23 -4 -4 -10 -1 -12 6 -3 6 -9 12 -14 12 -16 0 -10 -25 15 -59
31 -41 24 -71 -15 -71 -16 0 -29 2 -29 4 0 2 -3 11 -6 20 -4 11 -1 16 10 16 9
0 16 -4 16 -10 0 -5 5 -10 10 -10 17 0 11 19 -14 53 -18 24 -22 37 -15 55 10
25 47 30 56 7z m83 5 c0 -5 -9 -10 -20 -10 -28 0 -26 -38 3 -50 l22 -9 -22 -7
c-29 -8 -31 -44 -3 -44 11 0 20 -4 20 -10 0 -5 -13 -10 -30 -10 l-30 0 0 75 0
75 30 0 c17 0 30 -4 30 -10z m74 2 c2 -4 8 -35 11 -67 4 -33 9 -63 12 -67 2
-5 -3 -8 -11 -8 -9 0 -16 5 -16 10 0 6 -7 10 -15 10 -8 0 -15 -4 -15 -10 0 -5
-5 -10 -11 -10 -11 0 -6 87 7 133 5 17 29 23 38 9z m103 -69 c2 -43 -1 -73 -7
-73 -6 0 -10 11 -10 24 0 36 -17 40 -24 6 -11 -57 -26 -31 -26 46 l0 75 33 -3
32 -3 2 -72z m88 56 c9 -27 -4 -39 -16 -16 -18 32 -29 17 -29 -38 0 -42 3 -55
15 -55 8 0 15 7 15 15 0 8 5 15 11 15 6 0 9 -10 7 -22 -2 -18 -10 -23 -33 -23
-30 0 -30 1 -33 59 -2 32 -1 65 2 72 9 22 54 17 61 -7z m45 -14 c0 -26 3 -33
15 -29 9 4 15 19 15 35 0 16 5 29 10 29 6 0 10 -32 10 -75 0 -43 -4 -75 -10
-75 -5 0 -10 14 -10 30 0 20 -5 30 -15 30 -10 0 -15 -10 -15 -30 0 -20 -5 -30
-15 -30 -13 0 -15 14 -14 75 1 56 5 75 15 75 9 0 14 -12 14 -35z m90 -40 c0
-43 -4 -75 -10 -75 -6 0 -10 32 -10 75 0 43 4 75 10 75 6 0 10 -32 10 -75z
m59 43 l9 -33 7 33 c13 56 25 35 25 -43 0 -59 -3 -75 -15 -75 -8 0 -20 18 -27
43 l-13 42 -3 -42 c-5 -72 -22 -48 -22 32 0 59 3 75 15 75 8 0 19 -15 24 -32z
m119 5 c2 -13 -1 -23 -7 -23 -6 0 -11 7 -11 15 0 28 -18 15 -22 -16 -6 -39 1
-79 14 -79 6 0 8 13 5 30 -5 22 -3 30 8 30 11 0 15 -11 15 -40 0 -37 -2 -40
-29 -40 -33 0 -41 14 -41 75 0 62 8 77 39 73 18 -2 27 -10 29 -25z m6822 14
c0 -1 -109 -110 -242 -242 l-243 -240 240 243 c223 225 245 247 245 239z
m-8365 -780 c13 -7 15 -113 15 -836 0 -725 -2 -830 -15 -835 -13 -4 -15 -66
-18 -443 -1 -241 -2 309 -2 1222 0 913 1 1489 2 1280 3 -323 5 -381 18 -388z
m1585 653 c0 -5 -4 -10 -10 -10 -5 0 -10 5 -10 10 0 6 5 10 10 10 6 0 10 -4
10 -10z m40 0 c0 -5 -4 -10 -10 -10 -5 0 -10 5 -10 10 0 6 5 10 10 10 6 0 10
-4 10 -10z m40 0 c0 -5 -4 -10 -10 -10 -5 0 -10 5 -10 10 0 6 5 10 10 10 6 0
10 -4 10 -10z m1375 -320 c165 -165 298 -300 295 -300 -3 0 -140 135 -305 300
-165 165 -298 300 -295 300 3 0 140 -135 305 -300z m7842 228 c-3 -8 -6 -5 -6
6 -1 11 2 17 5 13 3 -3 4 -12 1 -19z m0 -105 c-2 -16 -4 -5 -4 22 0 28 2 40 4
28 2 -13 2 -35 0 -50z m-10059 -74 c23 -22 42 -42 42 -44 0 -3 -135 -5 -299
-5 l-300 0 -48 45 -48 44 305 0 305 0 43 -40z m1407 -99 c-30 -12 -1275 -12
-1275 0 0 7 219 10 648 9 357 0 638 -4 627 -9z m5652 -42 c-3 -8 -6 -5 -6 6
-1 11 2 17 5 13 3 -3 4 -12 1 -19z m3376 -1667 c-2 -2 -12 4 -23 14 -20 18
-20 30 -20 828 0 758 1 812 18 830 16 18 17 -20 22 -824 3 -464 4 -846 3 -848z
m-11395 1638 c15 -1 15 -2 0 -6 -10 -2 -19 -12 -19 -21 -1 -15 -2 -15 -6 1 -2
9 -12 18 -21 18 -15 1 -15 2 1 6 9 2 18 12 18 21 1 15 2 15 6 0 2 -10 12 -19
21 -19z m680 -2 c9 -3 -3 -5 -28 -4 -25 0 -35 2 -22 4 12 2 23 12 23 21 1 16
2 16 6 0 2 -9 12 -19 21 -21z m2030 2 c15 -1 15 -2 0 -6 -10 -2 -19 -12 -19
-21 -1 -15 -2 -15 -6 1 -2 9 -12 18 -21 18 -15 1 -15 2 1 6 9 2 18 12 18 21 1
15 2 15 6 0 2 -10 12 -19 21 -19z m680 0 c15 -1 15 -2 0 -6 -10 -2 -19 -12
-19 -21 -1 -15 -2 -15 -6 1 -2 9 -12 18 -21 18 -15 1 -15 2 1 6 9 2 18 12 18
21 1 15 2 15 6 0 2 -10 12 -19 21 -19z m680 0 c15 -1 15 -2 0 -6 -10 -2 -19
-12 -19 -21 -1 -15 -2 -15 -6 1 -2 9 -12 18 -21 18 -15 1 -15 2 1 6 9 2 18 12
18 21 1 15 2 15 6 0 2 -10 12 -19 21 -19z m3390 0 c15 -1 15 -2 0 -6 -10 -2
-19 -12 -19 -21 -1 -15 -2 -15 -6 1 -2 9 -12 18 -21 18 -15 1 -15 2 1 6 9 2
18 12 18 21 1 15 2 15 6 0 2 -10 12 -19 21 -19z m4070 0 c15 -1 15 -2 0 -6
-10 -2 -19 -12 -19 -21 -1 -15 -2 -15 -6 1 -2 9 -12 18 -21 18 -15 1 -15 2 1
6 9 2 18 12 18 21 1 15 2 15 6 0 2 -10 12 -19 21 -19z m-10158 -5 c0 -2 -19
-4 -42 -3 -35 1 -38 2 -18 8 23 7 60 4 60 -5z m680 0 c0 -2 -19 -4 -42 -3 -31
0 -37 3 -24 8 18 7 66 3 66 -5z m5967 -16 c-3 -8 -6 -5 -6 6 -1 11 2 17 5 13
3 -3 4 -12 1 -19z m-5747 -145 c-19 -3 -38 -10 -42 -16 -5 -8 -8 -6 -8 6 0 14
8 17 43 15 40 -1 40 -1 7 -5z m372 0 c-51 -2 -132 -2 -180 0 -48 1 -6 3 93 3
99 0 138 -2 87 -3z m189 -20 c13 -16 12 -17 -3 -4 -17 13 -22 21 -14 21 2 0
10 -8 17 -17z m689 -38 c19 -19 32 -35 29 -35 -3 0 -20 16 -39 35 -19 19 -32
35 -29 35 3 0 20 -16 39 -35z m-990 -20 c0 -24 -5 -35 -15 -35 -10 0 -15 11
-15 35 0 24 5 35 15 35 10 0 15 -11 15 -35z m60 23 c0 -7 -4 -20 -10 -28 -6
-9 -5 -17 3 -22 8 -5 6 -8 -7 -8 -11 0 -16 5 -13 13 19 47 20 50 9 43 -7 -4
-12 -2 -12 3 0 6 7 11 15 11 8 0 15 -6 15 -12z m39 -5 c0 -10 -5 -27 -10 -38
-7 -16 -8 -14 -4 9 4 19 1 32 -7 37 -10 7 -9 9 5 9 10 0 17 -7 16 -17z m41 13
c0 -2 -7 -7 -16 -10 -8 -3 -12 -2 -9 4 6 10 25 14 25 6z m64 -4 c2 -4 -4 -8
-14 -8 -10 0 -16 4 -14 8 3 4 9 8 14 8 5 0 11 -4 14 -8z m-246 -40 c-4 -18
-28 -29 -28 -12 0 6 5 8 10 5 6 -3 10 -1 10 4 0 6 -4 11 -10 11 -5 0 -10 4
-10 10 0 5 7 7 15 3 9 -3 15 -12 13 -21z m173 4 c-9 -11 -9 -15 1 -19 8 -4 7
-6 -4 -6 -10 -1 -18 1 -18 4 0 10 24 44 29 40 2 -3 -1 -11 -8 -19z m114 -1 c0
-10 -6 -19 -13 -21 -7 -1 -8 0 -2 3 5 2 10 11 10 18 0 7 -5 16 -10 18 -6 3 -5
4 2 3 7 -2 13 -11 13 -21z m-49 -5 c0 -11 -6 -20 -13 -20 -16 0 -17 12 -1 28
7 7 12 12 13 12 0 0 1 -9 1 -20z m897 -69 c-2 -3 -18 10 -36 29 l-32 34 36
-30 c20 -16 34 -31 32 -33z m-1030 2 c-7 -2 -19 -2 -25 0 -7 3 -2 5 12 5 14 0
19 -2 13 -5z m125 0 c-15 -2 -42 -2 -60 0 -18 2 -6 4 27 4 33 0 48 -2 33 -4z
m185 0 c-24 -2 -62 -2 -85 0 -24 2 -5 4 42 4 47 0 66 -2 43 -4z m110 0 c-7 -2
-19 -2 -25 0 -7 3 -2 5 12 5 14 0 19 -2 13 -5z m-2575 -20 c-15 -2 -42 -2 -60
0 -18 2 -6 4 27 4 33 0 48 -2 33 -4z m69 1 c-3 -3 -12 -4 -19 -1 -8 3 -5 6 6
6 11 1 17 -2 13 -5z m101 -64 c-2 -14 -7 -17 -17 -10 -13 7 -13 13 -1 37 11
22 14 24 17 11 3 -10 3 -27 1 -38z m42 8 c0 -38 -5 -34 -13 10 -4 21 -3 31 3
27 6 -3 10 -20 10 -37z m59 5 c-1 -37 -1 -37 -8 -8 -7 28 -5 45 5 45 2 0 3
-17 3 -37z m46 27 c3 -6 -1 -7 -9 -4 -9 3 -16 1 -16 -5 0 -6 6 -11 14 -11 9 0
12 -7 9 -20 -3 -11 -10 -20 -15 -20 -5 0 -6 5 -2 11 3 6 1 15 -6 19 -7 4 -10
15 -7 24 7 18 23 21 32 6z m102 4 c-3 -3 -12 -4 -19 -1 -8 3 -5 6 6 6 11 1 17
-2 13 -5z m-40 -30 c8 -22 -13 -42 -29 -25 -11 10 -10 11 5 6 9 -4 17 -3 17 3
0 6 -8 16 -17 21 -17 10 -17 10 0 11 10 0 20 -7 24 -16z m30 -6 c-3 -8 -6 -5
-6 6 -1 11 2 17 5 13 3 -3 4 -12 1 -19z m250 -34 c-3 -3 -12 -4 -19 -1 -8 3
-5 6 6 6 11 1 17 -2 13 -5z m87 -60 c6 -15 4 -15 -11 -3 -10 7 -20 15 -22 16
-2 2 3 3 11 3 9 0 19 -7 22 -16z m-1190 -186 c8 -5 7 -8 -1 -8 -7 0 -13 -10
-14 -22 -1 -22 -1 -22 -8 2 -8 28 -1 75 7 50 3 -8 10 -18 16 -22z m684 -1 c10
-3 6 -5 -10 -6 -22 -1 -25 2 -20 22 5 17 7 18 10 5 2 -9 11 -19 20 -21z m2012
9 c0 -20 -4 -23 -22 -18 -19 5 -20 7 -5 10 9 2 17 10 17 18 0 8 2 14 5 14 3 0
5 -11 5 -24z m698 -7 c15 -1 15 -2 0 -6 -10 -2 -19 -12 -19 -21 -1 -15 -2 -15
-6 1 -2 9 -12 18 -21 18 -15 1 -15 2 1 6 9 2 18 12 18 21 1 15 2 15 6 0 2 -10
12 -19 21 -19z m661 -11 c-1 -24 -4 -33 -6 -20 -2 12 -12 23 -21 23 -15 1 -15
2 1 6 9 2 17 11 17 19 0 8 2 14 5 14 3 0 4 -19 4 -42z m3409 10 c13 -3 12 -5
-5 -10 -20 -5 -23 -2 -22 20 1 16 3 20 6 10 2 -9 12 -18 21 -20z m4054 9 c3
-13 1 -32 -3 -43 -5 -13 -8 -7 -8 24 -1 46 4 55 11 19z m-10172 -9 c22 2 23 1
7 -8 -12 -8 -16 -18 -11 -32 4 -14 2 -18 -5 -14 -6 4 -11 13 -11 21 0 7 -7 15
-15 19 -8 3 -15 10 -15 16 0 6 5 8 13 3 6 -4 23 -6 37 -5z m673 -5 c-7 -2 -19
-2 -25 0 -7 3 -2 5 12 5 14 0 19 -2 13 -5z m37 -2 c0 -6 -4 -13 -10 -16 -5 -3
-10 1 -10 9 0 9 5 16 10 16 6 0 10 -4 10 -9z m-629 -168 c13 -16 12 -17 -3 -4
-10 7 -18 15 -18 17 0 8 8 3 21 -13z m564 -43 c-9 -15 -35 -12 -35 3 0 7 5 18
12 25 9 9 14 9 21 -3 4 -8 5 -20 2 -25z m-1658 -307 c-1 -60 -3 -11 -3 107 0
118 2 167 3 108 2 -60 2 -156 0 -215z m1196 211 c-1 -5 -11 -10 -22 -12 -15
-2 -19 2 -17 22 1 23 3 24 21 12 11 -7 19 -17 18 -22z m9494 -256 c-2 -13 -4
-3 -4 22 0 25 2 35 4 23 2 -13 2 -33 0 -45z m-2557 -32 c0 -2 -7 -7 -16 -10
-8 -3 -12 -2 -9 4 6 10 25 14 25 6z m1770 -93 c0 -8 -9 0 -50 45 l-45 47 48
-45 c26 -24 47 -45 47 -47z m-1800 64 c0 -2 -10 -12 -22 -23 l-23 -19 19 23
c18 21 26 27 26 19z m-8451 -64 c-1 -21 -3 -30 -6 -20 -2 9 -12 18 -21 18 -15
1 -15 2 1 6 9 2 17 11 17 19 0 8 2 14 5 14 3 0 4 -17 4 -37z m2715 23 c-3 -8
2 -16 13 -19 10 -3 0 -5 -22 -5 -22 0 -32 2 -22 5 9 2 17 11 17 19 0 8 4 14
10 14 5 0 7 -6 4 -14z m694 -17 c15 -1 15 -2 0 -6 -10 -2 -19 -12 -19 -21 -1
-15 -2 -15 -6 1 -2 9 -12 18 -21 18 -15 1 -15 2 1 6 9 2 18 12 18 21 1 15 2
15 6 0 2 -10 12 -19 21 -19z m663 -24 c-4 -17 -6 -18 -9 -2 -2 9 -11 18 -20
18 -15 1 -15 2 1 6 9 2 17 12 18 21 0 14 2 13 8 -3 4 -11 5 -29 2 -40z m3407
24 c15 -1 15 -2 0 -6 -10 -2 -19 -12 -19 -21 -1 -15 -2 -15 -6 1 -2 9 -12 18
-21 18 -15 1 -15 2 1 6 9 2 18 12 18 21 1 15 2 15 6 0 2 -10 12 -19 21 -19z
m685 0 c22 -2 22 -2 0 -6 -13 -2 -23 -12 -23 -21 0 -14 -1 -14 -12 0 -7 9 -20
18 -28 21 -10 4 -7 6 8 6 13 1 22 8 23 19 1 16 2 16 6 0 2 -10 14 -19 26 -19z
m675 -2 c9 -3 -1 -5 -23 -5 -22 0 -32 2 -22 5 9 2 18 12 18 21 1 16 2 16 6 0
2 -9 12 -19 21 -21z m2693 -22 c-4 -17 -6 -18 -9 -2 -2 9 -11 18 -20 18 -15 1
-15 2 1 6 9 2 17 12 18 21 0 14 2 13 8 -3 4 -11 5 -29 2 -40z m-11184 -12 c-3
-10 -5 -2 -5 17 0 19 2 27 5 18 2 -10 2 -26 0 -35z m363 31 c0 -2 -12 -4 -26
-4 -14 0 -23 4 -20 9 6 8 46 4 46 -5z m663 -5 c-12 -4 -31 -5 -44 -2 -21 6
-21 7 -4 13 10 4 30 4 44 2 24 -5 24 -5 4 -13z m675 3 c-10 -2 -19 -11 -19
-20 -1 -15 -2 -15 -6 1 -2 9 -12 17 -21 18 -14 0 -13 2 3 8 11 4 29 5 40 2 17
-4 18 -6 3 -9z m7452 -1 c0 -5 -9 -7 -20 -4 -11 3 -20 7 -20 9 0 2 9 4 20 4
11 0 20 -4 20 -9z m680 5 c0 -3 -4 -8 -10 -11 -5 -3 -10 -1 -10 4 0 6 5 11 10
11 6 0 10 -2 10 -4z m710 -6 c10 -6 -30 -9 -120 -8 -132 2 -133 2 -45 8 146
10 149 10 165 0z m-492 -7 c-16 -2 -40 -2 -55 0 -16 2 -3 4 27 4 30 0 43 -2
28 -4z m155 0 c-13 -2 -35 -2 -50 0 -16 2 -5 4 22 4 28 0 40 -2 28 -4z m400 0
c-7 -2 -21 -2 -30 0 -10 3 -4 5 12 5 17 0 24 -2 18 -5z m-7043 -78 c35 -36 62
-65 59 -65 -2 0 -34 29 -69 65 -35 36 -62 65 -59 65 2 0 34 -29 69 -65z m170
41 c0 -2 -8 -10 -17 -17 -16 -13 -17 -12 -4 4 13 16 21 21 21 13z m-3733 -149
c-2 -23 -3 -1 -3 48 0 50 1 68 3 42 2 -26 2 -67 0 -90z m3668 83 c-10 -11 -21
-18 -23 -15 -3 3 3 12 14 20 27 20 30 18 9 -5z m-105 -55 c35 -36 62 -65 59
-65 -2 0 -34 29 -69 65 -35 36 -62 65 -59 65 2 0 34 -29 69 -65z m140 10 c-30
-30 -57 -55 -61 -55 -8 0 103 109 111 110 2 0 -20 -25 -50 -55z m4098 13 c-5
-15 -68 -24 -68 -10 0 15 13 22 43 22 18 0 27 -4 25 -12z m1340 5 l-398 -3
-22 -30 -22 -30 -243 0 c-134 0 -243 3 -243 8 0 4 -7 16 -16 27 -14 18 -30 20
-202 25 -103 3 202 6 678 6 476 -1 686 -2 468 -3z m1552 -11 c0 -4 -102 -6
-226 -4 l-226 4 -28 -31 -29 -31 -230 0 -230 0 -21 28 c-18 23 -32 28 -83 33
-34 3 193 6 506 7 312 1 567 -2 567 -6z m-6570 -75 c0 -2 -15 -16 -32 -33
l-33 -29 29 33 c28 30 36 37 36 29z m-70 -70 c0 -2 -19 -21 -42 -42 l-43 -40
40 43 c36 39 45 47 45 39z m-292 -39 c31 -11 79 -36 106 -55 l48 -34 27 23 26
23 -24 -27 -24 -27 31 -35 c83 -94 117 -197 110 -330 -6 -105 -39 -190 -103
-266 -192 -230 -567 -213 -727 32 -127 194 -106 418 54 584 126 132 307 175
476 112z m3513 18 c92 -20 163 -58 230 -125 167 -167 183 -430 39 -609 -214
-266 -628 -220 -772 85 -85 179 -50 380 92 523 66 67 136 106 224 125 80 17
107 18 187 1z m1244 -257 c-42 -43 -65 -73 -57 -76 6 -3 12 -11 12 -19 0 -8 6
-14 13 -15 6 0 23 -14 36 -32 l25 -32 -30 26 c-16 14 -42 26 -58 27 -35 2 -49
12 -18 12 25 0 28 10 10 28 -10 10 3 27 57 82 38 39 72 70 74 70 3 0 -26 -32
-64 -71z m-645 58 c0 -1 -28 -29 -62 -62 l-63 -60 60 63 c55 58 65 67 65 59z
m30 -62 l-64 -65 64 -67 65 -68 -70 67 -70 68 65 65 c35 36 67 65 69 65 3 0
-24 -29 -59 -65z m90 0 l-64 -65 24 -27 24 -28 -29 27 -29 28 64 65 c35 36 67
65 69 65 3 0 -23 -29 -59 -65z m170 0 l-64 -65 64 -67 65 -68 -70 67 -70 68
65 65 c35 36 67 65 69 65 3 0 -24 -29 -59 -65z m90 0 l-64 -65 39 -42 40 -43
-45 42 -45 43 65 65 c35 36 67 65 69 65 3 0 -24 -29 -59 -65z m150 62 c0 -2
-15 -16 -32 -33 l-33 -29 29 33 c28 30 36 37 36 29z m80 0 c0 -1 -26 -27 -57
-57 l-58 -55 55 58 c50 53 60 62 60 54z m-2646 -427 l433 0 72 -74 71 -74 -2
-179 -3 -178 -251 -3 -251 -2 -46 59 -46 60 -365 1 c-244 0 -366 -3 -366 -10
0 -7 122 -10 365 -10 l364 0 31 -45 c53 -77 47 -76 313 -73 130 1 240 -1 243
-5 4 -4 -108 -7 -248 -7 l-255 0 -47 60 c-42 53 -49 58 -71 50 -15 -6 -35 -5
-53 1 -24 8 -613 8 -647 -1 -5 -1 -26 1 -46 5 -36 7 -38 5 -83 -54 l-47 -61
-255 0 c-140 0 -254 3 -254 8 0 4 113 6 251 5 l250 -2 46 60 c44 56 48 59 90
59 27 0 42 4 38 10 -3 6 -24 10 -46 10 -36 0 -43 -5 -86 -60 l-46 -60 -251 2
-251 3 -3 180 -2 179 72 73 72 73 433 0 433 0 2 188 3 187 2 -187 3 -188 434
0z m2496 357 c0 -2 -15 -16 -32 -33 l-33 -29 29 33 c28 30 36 37 36 29z m898
-64 l3 -63 -30 0 c-16 0 -32 6 -34 13 -4 9 -8 8 -16 -3 -7 -10 -11 -11 -11 -2
0 6 -8 13 -17 13 -17 1 -17 2 0 6 9 2 18 12 18 21 1 15 2 15 6 0 9 -36 23 -16
23 33 0 49 1 50 28 47 26 -3 27 -6 30 -65z m79 52 c8 -21 -6 -33 -17 -15 -15
23 -21 5 -18 -46 3 -46 4 -47 15 -24 9 21 12 23 18 8 10 -24 -2 -38 -31 -38
-23 0 -24 3 -24 58 0 32 3 62 7 65 12 13 44 7 50 -8z m103 -50 c0 -63 -1 -65
-25 -65 -14 0 -28 7 -32 15 -9 25 6 31 22 9 14 -18 14 -18 15 9 0 15 -5 27
-10 27 -6 0 -5 8 2 20 7 10 9 23 5 27 -5 4 -12 1 -17 -7 -11 -18 -25 -6 -17
15 4 8 18 15 32 15 24 0 25 -2 25 -65z m80 54 c0 -21 -23 -104 -31 -113 -17
-19 -19 2 -4 44 19 55 19 60 -5 60 -11 0 -20 5 -20 10 0 6 14 10 30 10 17 0
30 -5 30 -11z m113 -2 c6 -16 -17 -72 -33 -82 -9 -6 -6 -12 11 -21 24 -13 24
-13 -8 -14 -40 0 -40 6 -8 54 14 20 25 41 25 46 0 15 -28 12 -33 -2 -2 -7 -7
-10 -11 -7 -3 3 -4 14 0 23 7 19 50 22 57 3z m77 3 c0 -5 -9 -10 -20 -10 -11
0 -20 -4 -20 -9 0 -5 9 -11 20 -14 16 -4 20 -14 20 -46 0 -37 -2 -41 -25 -41
-14 0 -28 7 -32 15 -9 25 6 31 22 9 14 -18 14 -17 15 14 0 17 -4 32 -10 32 -5
0 -10 -4 -10 -10 0 -5 -4 -10 -10 -10 -5 0 -10 18 -10 40 0 38 2 40 30 40 17
0 30 -4 30 -10z m117 -2 c-2 -7 -10 -37 -17 -65 -8 -29 -18 -53 -23 -53 -5 0
-6 12 -3 26 18 72 19 84 3 84 -9 0 -19 5 -22 10 -4 6 9 10 30 10 26 0 36 -4
32 -12z m73 -3 c0 -27 -25 -110 -35 -117 -16 -12 -25 -9 -19 7 4 11 -1 15 -17
16 -22 0 -21 2 6 11 17 6 31 11 31 12 1 0 5 16 9 34 6 28 4 32 -14 32 -12 0
-21 5 -21 10 0 6 14 10 30 10 20 0 30 -5 30 -15z m75 -50 c0 -57 -1 -60 -24
-60 -13 0 -26 6 -28 13 -3 6 0 12 6 12 6 0 11 -5 11 -11 0 -5 5 -7 10 -4 12 7
14 36 3 34 -26 -4 -33 4 -33 42 0 38 1 40 28 37 26 -3 27 -5 27 -63z m-6887
-36 c15 -1 15 -2 0 -6 -10 -2 -19 -12 -19 -21 -1 -15 -2 -15 -6 1 -2 9 -12 18
-21 18 -15 1 -15 2 1 6 9 2 18 14 18 26 2 22 2 22 6 0 2 -13 12 -24 21 -24z
m4703 24 c13 -16 12 -17 -3 -4 -10 7 -18 15 -18 17 0 8 8 3 21 -13z m659 -48
c35 -36 62 -65 59 -65 -2 0 -34 29 -69 65 -35 36 -62 65 -59 65 2 0 34 -29 69
-65z m-8752 24 c15 -1 15 -2 0 -6 -10 -2 -19 -12 -19 -21 -1 -15 -2 -15 -6 1
-2 9 -12 18 -21 18 -15 1 -15 2 1 6 9 2 18 12 18 21 1 15 2 15 6 0 2 -10 12
-19 21 -19z m2710 -2 c9 -3 -1 -5 -23 -5 -22 0 -32 2 -22 5 9 2 18 12 18 21 1
16 2 16 6 0 2 -9 12 -19 21 -21z m2040 0 c10 -3 6 -5 -10 -6 -22 -1 -25 2 -20
22 5 17 7 18 10 5 2 -9 11 -19 20 -21z m3368 18 c-4 -10 1 -15 14 -15 19 0 19
-1 3 -18 -13 -13 -19 -14 -21 -5 -2 7 -10 13 -18 13 -11 0 -10 4 4 19 21 24
26 25 18 6z m509 -5 c10 -11 16 -20 13 -20 -3 0 -13 9 -23 20 -10 11 -16 20
-13 20 3 0 13 -9 23 -20z m2206 -35 c-4 -17 -6 -18 -9 -2 -2 9 -11 18 -20 18
-15 1 -15 2 1 6 9 2 17 12 18 21 0 14 2 13 8 -3 4 -11 5 -29 2 -40z m-5421 25
c0 -5 -10 -10 -22 -9 -22 0 -22 1 -3 9 11 5 21 9 23 9 1 1 2 -3 2 -9z m-4732
-7 c-10 -2 -28 -2 -40 0 -13 2 -5 4 17 4 22 1 32 -1 23 -4z m670 0 c-10 -2
-26 -2 -35 0 -10 3 -2 5 17 5 19 0 27 -2 18 -5z m685 0 c-7 -2 -19 -2 -25 0
-7 3 -2 5 12 5 14 0 19 -2 13 -5z m6427 -80 c0 -8 -9 0 -50 45 l-45 47 48 -45
c26 -24 47 -45 47 -47z m3068 80 c-10 -2 -19 -12 -19 -21 -1 -16 -2 -16 -6 0
-2 9 -12 19 -21 21 -9 3 1 5 23 5 22 0 32 -2 23 -5z m-1483 -13 c3 -5 1 -10
-4 -10 -6 0 -11 5 -11 10 0 6 2 10 4 10 3 0 8 -4 11 -10z m-1875 -35 c19 -19
32 -35 29 -35 -3 0 -20 16 -39 35 -19 19 -32 35 -29 35 3 0 20 -16 39 -35z
m155 17 c-3 -3 -11 0 -18 7 -9 10 -8 11 6 5 10 -3 15 -9 12 -12z m375 -27 c13
-14 21 -25 18 -25 -2 0 -15 11 -28 25 -13 14 -21 25 -18 25 2 0 15 -11 28 -25z
m201 -22 c13 -16 12 -17 -3 -4 -10 7 -18 15 -18 17 0 8 8 3 21 -13z m-7256
-188 c0 -18 -8 -20 -97 -23 l-98 -3 0 26 0 26 98 -3 c89 -3 97 -5 97 -23z
m9465 -35 c0 -19 -7 -20 -100 -20 -93 0 -100 1 -100 20 0 19 7 20 100 20 93 0
100 -1 100 -20z m-9465 -45 c0 -18 -8 -20 -97 -23 l-98 -3 0 26 0 26 98 -3
c89 -3 97 -5 97 -23z m1135 0 c0 -25 0 -25 -94 -25 -95 0 -113 7 -102 35 4 12
27 15 101 15 95 0 95 0 95 -25z m8000 -35 c0 -19 -7 -20 -100 -20 -93 0 -100
1 -100 20 0 19 7 20 100 20 93 0 100 -1 100 -20z m-9135 -45 c0 -18 -8 -20
-97 -23 l-98 -3 0 26 0 26 98 -3 c89 -3 97 -5 97 -23z m1135 0 c0 -25 0 -25
-94 -25 -95 0 -113 7 -102 35 4 12 27 15 101 15 95 0 95 0 95 -25z m7635 -30
c0 -18 -8 -20 -97 -23 l-98 -3 0 26 0 26 98 -3 c89 -3 97 -5 97 -23z m-8770
-50 c0 -18 -8 -20 -97 -23 l-98 -3 0 26 0 26 98 -3 c89 -3 97 -5 97 -23z
m1135 0 c0 -25 0 -25 -94 -25 -95 0 -113 7 -102 35 4 12 27 15 101 15 95 0 95
0 95 -25z m7780 -25 c0 -19 -7 -20 -100 -20 -77 0 -100 3 -100 13 0 24 12 27
107 27 86 0 93 -1 93 -20z m-9200 -55 l0 -26 -97 3 c-93 3 -98 4 -101 26 -3
22 -1 22 97 22 l101 0 0 -25z m285 0 c0 -18 -8 -20 -97 -23 l-98 -3 0 26 0 26
98 -3 c89 -3 97 -5 97 -23z m285 0 l0 -25 -100 0 -100 0 0 25 0 25 100 0 100
0 0 -25z m850 0 c0 -25 0 -25 -94 -25 -95 0 -113 7 -102 35 4 12 27 15 101 15
95 0 95 0 95 -25z m7428 -22 c3 -23 1 -23 -97 -23 -100 0 -101 0 -101 24 0 25
0 25 98 23 92 -2 97 -3 100 -24z m-10229 -75 c-1 -35 -2 -38 -8 -18 -7 23 -4
60 5 60 2 0 4 -19 3 -42z m811 17 c0 -24 -2 -25 -65 -25 -45 0 -65 -4 -66 -12
0 -10 -2 -10 -6 0 -2 6 -15 12 -28 12 -27 0 -39 14 -31 35 4 12 27 15 101 15
95 0 95 0 95 -25z m570 0 l0 -26 -97 3 c-93 3 -98 4 -101 26 -3 22 -1 22 97
22 l101 0 0 -25z m285 0 c0 -18 -8 -20 -97 -23 l-98 -3 0 26 0 26 98 -3 c89
-3 97 -5 97 -23z m285 0 l0 -25 -100 0 -100 0 0 25 0 25 100 0 100 0 0 -25z
m850 0 c0 -23 -4 -25 -45 -25 -29 0 -45 -4 -46 -12 0 -10 -2 -10 -6 0 -3 7
-23 12 -48 12 -45 0 -61 11 -51 35 4 12 27 15 101 15 95 0 95 0 95 -25z m285
0 c0 -18 -8 -20 -97 -23 l-98 -3 0 26 0 26 98 -3 c89 -3 97 -5 97 -23z m302
-37 c-2 -13 -4 -3 -4 22 0 25 2 35 4 23 2 -13 2 -33 0 -45z m4750 10 c-2 -13
-4 -5 -4 17 -1 22 1 32 4 23 2 -10 2 -28 0 -40z m3411 21 c15 -1 15 -2 0 -6
-10 -2 -19 -12 -19 -21 -1 -15 -2 -15 -6 1 -2 9 -12 18 -21 18 -15 1 -15 2 1
6 9 2 18 12 18 21 1 15 2 15 6 0 2 -10 12 -19 21 -19z m-4765 6 c4 -8 2 -17
-3 -20 -6 -4 -10 3 -10 14 0 25 6 27 13 6z m674 -37 c-2 -13 -4 -5 -4 17 -1
22 1 32 4 23 2 -10 2 -28 0 -40z m2561 20 c-3 -22 -8 -23 -100 -26 -92 -3 -98
-1 -98 17 0 23 19 27 128 30 71 1 73 0 70 -21z m-7978 2 c0 -5 -4 -10 -10 -10
-5 0 -10 5 -10 10 0 6 5 10 10 10 6 0 10 -4 10 -10z m7460 0 c0 -5 -4 -10 -10
-10 -5 0 -10 5 -10 10 0 6 5 10 10 10 6 0 10 -4 10 -10z m710 6 c0 -8 -48 -12
-66 -5 -13 5 -7 8 24 8 23 1 42 -1 42 -3z m653 -14 c-12 -12 -19 -14 -21 -5
-2 6 -11 14 -20 16 -9 3 0 5 21 6 35 1 36 0 20 -17z m-10670 -65 l52 -3 -57
-2 c-57 -2 -58 -2 -57 26 1 22 2 23 6 5 4 -19 12 -23 56 -26z m617 8 c0 -25 0
-25 -94 -25 -95 0 -113 7 -102 35 4 12 27 15 101 15 95 0 95 0 95 -25z m570 0
l0 -25 -100 0 -100 0 0 25 0 25 100 0 100 0 0 -25z m285 0 c0 -18 -8 -20 -97
-23 l-98 -3 0 26 0 26 98 -3 c89 -3 97 -5 97 -23z m285 0 l0 -25 -100 0 -100
0 0 25 0 25 100 0 100 0 0 -25z m568 3 c-3 -22 -8 -23 -100 -26 l-98 -3 0 26
0 25 101 0 c98 0 100 0 97 -22z m282 -3 c0 -25 0 -25 -94 -25 -95 0 -113 7
-102 35 4 12 27 15 101 15 95 0 95 0 95 -25z m285 0 c0 -18 -8 -20 -97 -23
l-98 -3 0 26 0 26 98 -3 c89 -3 97 -5 97 -23z m7215 -15 c0 -19 -7 -20 -100
-20 -93 0 -100 1 -100 20 0 19 7 20 100 20 93 0 100 -1 100 -20z m-9490 -65
c0 -25 0 -25 -94 -25 -95 0 -113 7 -102 35 4 12 27 15 101 15 95 0 95 0 95
-25z m285 0 c0 -18 -8 -20 -97 -23 l-98 -3 0 26 0 26 98 -3 c89 -3 97 -5 97
-23z m285 0 l0 -25 -100 0 -100 0 0 25 0 25 100 0 100 0 0 -25z m285 0 c0 -18
-8 -20 -97 -23 l-98 -3 0 26 0 26 98 -3 c89 -3 97 -5 97 -23z m285 0 l0 -25
-100 0 -100 0 0 25 0 25 100 0 100 0 0 -25z m568 3 c-3 -22 -8 -23 -100 -26
l-98 -3 0 26 0 25 101 0 c98 0 100 0 97 -22z m282 -3 c0 -25 0 -25 -94 -25
-95 0 -113 7 -102 35 4 12 27 15 101 15 95 0 95 0 95 -25z m285 0 c0 -18 -8
-20 -97 -23 l-98 -3 0 26 0 26 98 -3 c89 -3 97 -5 97 -23z m6885 -15 c0 -19
-7 -20 -100 -20 -93 0 -100 1 -100 20 0 19 7 20 100 20 93 0 100 -1 100 -20z
m-9442 -67 c3 -23 1 -23 -97 -23 l-101 0 0 25 0 26 98 -3 c92 -3 97 -4 100
-25z m282 2 c0 -25 0 -25 -94 -25 -95 0 -113 7 -102 35 4 12 27 15 101 15 95
0 95 0 95 -25z m285 0 c0 -18 -8 -20 -97 -23 l-98 -3 0 26 0 26 98 -3 c89 -3
97 -5 97 -23z m285 0 l0 -26 -97 3 c-93 3 -98 4 -101 26 -3 22 -1 22 97 22
l101 0 0 -25z m285 0 c0 -18 -8 -20 -97 -23 l-98 -3 0 26 0 26 98 -3 c89 -3
97 -5 97 -23z m285 0 l0 -25 -100 0 -100 0 0 25 0 25 100 0 100 0 0 -25z m280
0 c0 -25 0 -25 -94 -25 -95 0 -113 7 -102 35 4 12 27 15 101 15 95 0 95 0 95
-25z m288 3 c-3 -22 -8 -23 -100 -26 l-98 -3 0 26 0 25 101 0 c98 0 100 0 97
-22z m282 -3 c0 -25 0 -25 -94 -25 -95 0 -113 7 -102 35 4 12 27 15 101 15 95
0 95 0 95 -25z m285 0 c0 -18 -8 -20 -97 -23 l-98 -3 0 26 0 26 98 -3 c89 -3
97 -5 97 -23z m6615 -15 c0 -19 -7 -20 -100 -20 -93 0 -100 1 -100 20 0 19 7
20 100 20 93 0 100 -1 100 -20z m-9170 -65 l0 -25 -100 0 -100 0 0 25 0 25
100 0 100 0 0 -25z m280 0 c0 -25 0 -25 -94 -25 -95 0 -113 7 -102 35 4 12 27
15 101 15 95 0 95 0 95 -25z m288 3 c-3 -22 -8 -23 -100 -26 l-98 -3 0 26 0
25 101 0 c98 0 100 0 97 -22z m282 -3 l0 -25 -100 0 -100 0 0 25 0 25 100 0
100 0 0 -25z m285 0 c0 -18 -8 -20 -97 -23 l-98 -3 0 26 0 26 98 -3 c89 -3 97
-5 97 -23z m285 0 l0 -25 -100 0 -100 0 0 25 0 25 100 0 100 0 0 -25z m280 0
c0 -25 0 -25 -94 -25 -95 0 -113 7 -102 35 4 12 27 15 101 15 95 0 95 0 95
-25z m288 3 c-3 -22 -8 -23 -100 -26 l-98 -3 0 26 0 25 101 0 c98 0 100 0 97
-22z m282 -3 c0 -25 0 -25 -94 -25 -95 0 -113 7 -102 35 4 12 27 15 101 15 95
0 95 0 95 -25z m285 0 c0 -18 -8 -20 -97 -23 l-98 -3 0 26 0 26 98 -3 c89 -3
97 -5 97 -23z m6093 -12 c3 -23 1 -23 -97 -23 -91 0 -101 2 -101 18 0 30 10
33 105 30 85 -3 90 -4 93 -25z m-8648 -68 l0 -25 -100 0 -100 0 0 25 0 25 100
0 100 0 0 -25z m280 0 c0 -25 0 -25 -94 -25 -95 0 -113 7 -102 35 4 12 27 15
101 15 95 0 95 0 95 -25z m288 3 c-3 -22 -8 -23 -100 -26 l-98 -3 0 26 0 25
101 0 c98 0 100 0 97 -22z m282 -3 l0 -25 -100 0 -100 0 0 25 0 25 100 0 100
0 0 -25z m285 0 c0 -18 -8 -20 -97 -23 l-98 -3 0 26 0 26 98 -3 c89 -3 97 -5
97 -23z m285 0 l0 -25 -100 0 -100 0 0 25 0 25 100 0 100 0 0 -25z m280 0 c0
-25 0 -25 -94 -25 -95 0 -113 7 -102 35 4 12 27 15 101 15 95 0 95 0 95 -25z
m288 3 c-3 -22 -8 -23 -100 -26 l-98 -3 0 26 0 25 101 0 c98 0 100 0 97 -22z
m282 -3 c0 -25 0 -25 -94 -25 -95 0 -113 7 -102 35 4 12 27 15 101 15 95 0 95
0 95 -25z m285 0 c0 -18 -8 -20 -97 -23 l-98 -3 0 26 0 26 98 -3 c89 -3 97 -5
97 -23z m6385 -9 c0 -24 -1 -24 -97 -23 -93 2 -98 3 -101 25 -3 22 -1 22 97
22 100 0 101 0 101 -24z m-2833 -26 l34 -30 224 0 c143 0 225 -4 225 -10 0 -6
80 -10 221 -10 196 0 220 2 209 15 -10 13 -9 15 12 15 14 0 38 -14 58 -35 l34
-35 -26 0 c-14 0 -31 7 -38 15 -10 13 -50 15 -241 15 -146 0 -229 -4 -229 -10
0 -6 -86 -10 -238 -10 l-239 0 -23 25 -23 25 -853 0 -852 0 -16 -25 -16 -25
-245 0 c-157 0 -245 4 -245 10 0 6 -83 10 -229 10 -191 0 -231 -2 -241 -15 -7
-8 -24 -15 -38 -15 l-26 0 34 35 c20 21 44 35 58 35 21 0 22 -2 12 -15 -11
-13 13 -15 209 -15 141 0 221 4 221 10 0 6 83 10 229 10 l230 0 21 30 21 30
866 0 865 0 35 -30z m-6107 -45 l0 -25 -100 0 -100 0 0 25 0 25 100 0 100 0 0
-25z m280 0 c0 -25 0 -25 -94 -25 -95 0 -113 7 -102 35 4 12 27 15 101 15 95
0 95 0 95 -25z m285 0 c0 -18 -8 -20 -97 -23 l-98 -3 0 26 0 26 98 -3 c89 -3
97 -5 97 -23z m285 0 l0 -25 -100 0 -100 0 0 25 0 25 100 0 100 0 0 -25z m285
0 c0 -18 -8 -20 -97 -23 l-98 -3 0 26 0 26 98 -3 c89 -3 97 -5 97 -23z m285 0
l0 -26 -97 3 c-93 3 -98 4 -101 26 -3 22 -1 22 97 22 l101 0 0 -25z m280 0 c0
-25 0 -25 -94 -25 -84 0 -94 2 -99 19 -3 11 -2 22 1 25 3 3 47 6 99 6 93 0 93
0 93 -25z m290 0 l0 -25 -100 0 -100 0 0 25 0 25 100 0 100 0 0 -25z m280 0
c0 -25 0 -25 -94 -25 -95 0 -113 7 -102 35 4 12 27 15 101 15 95 0 95 0 95
-25z m285 0 c0 -18 -8 -20 -97 -23 l-98 -3 0 26 0 26 98 -3 c89 -3 97 -5 97
-23z m635 20 c0 -14 -62 -65 -80 -65 -28 0 -25 9 12 42 27 24 68 38 68 23z
m70 -3 c0 -18 -57 -62 -80 -62 -23 0 -23 1 10 35 31 32 70 47 70 27z m80 3 c0
-18 -57 -65 -79 -65 l-25 0 34 35 c29 30 70 47 70 30z m3820 -27 c30 -32 30
-33 10 -36 -21 -4 -80 41 -80 60 0 19 40 5 70 -24z m80 -3 c34 -35 34 -35 9
-35 -16 0 -38 13 -59 35 -34 35 -34 35 -9 35 16 0 38 -13 59 -35z m71 3 c27
-30 28 -33 10 -36 -17 -3 -81 47 -81 63 0 17 46 0 71 -27z m1299 2 c0 -19 -7
-20 -100 -20 -93 0 -100 1 -100 20 0 19 7 20 100 20 93 0 100 -1 100 -20z
m-8610 -75 l0 -25 -100 0 -100 0 0 25 0 25 100 0 100 0 0 -25z m280 0 c0 -25
0 -25 -94 -25 -95 0 -113 7 -102 35 4 12 27 15 101 15 95 0 95 0 95 -25z m285
0 c0 -18 -8 -20 -97 -23 l-98 -3 0 26 0 26 98 -3 c89 -3 97 -5 97 -23z m285 0
l0 -25 -100 0 -100 0 0 25 0 25 100 0 100 0 0 -25z m285 0 c0 -18 -8 -20 -97
-23 l-98 -3 0 26 0 26 98 -3 c89 -3 97 -5 97 -23z m285 0 l0 -25 -100 0 c-90
0 -100 2 -100 18 0 10 3 22 7 25 3 4 48 7 100 7 93 0 93 0 93 -25z m280 0 c0
-25 0 -25 -94 -25 -95 0 -113 7 -102 35 4 12 27 15 101 15 95 0 95 0 95 -25z
m288 3 c-3 -22 -8 -23 -100 -26 l-98 -3 0 26 0 25 101 0 c98 0 100 0 97 -22z
m282 -3 c0 -25 0 -25 -94 -25 -95 0 -113 7 -102 35 4 12 27 15 101 15 95 0 95
0 95 -25z m285 0 c0 -18 -8 -20 -97 -23 l-98 -3 0 26 0 26 98 -3 c89 -3 97 -5
97 -23z m606 -17 c29 -32 29 -33 8 -36 -16 -3 -32 6 -51 28 -33 39 -34 40 -7
40 11 0 34 -15 50 -32z m79 -3 c34 -35 34 -35 9 -35 -16 0 -38 13 -59 35 -34
35 -34 35 -9 35 16 0 38 -13 59 -35z m75 5 c16 -16 26 -33 22 -36 -13 -13 -56
7 -77 36 l-21 30 23 0 c14 0 37 -13 53 -30z m55 15 c11 -13 68 -15 406 -15
251 0 395 -4 399 -10 4 -6 67 -10 155 -10 l149 0 33 -30 c18 -16 28 -30 22
-30 -6 0 -21 11 -34 25 -23 25 -26 25 -176 25 -91 0 -155 4 -159 10 -4 6 -144
10 -387 10 -337 0 -379 -2 -368 -15 10 -13 9 -15 -12 -15 -14 0 -38 14 -58 35
l-34 35 26 0 c14 0 31 -7 38 -15z m3720 -20 c-20 -21 -44 -35 -58 -35 -21 0
-23 2 -12 15 11 14 -29 15 -376 11 -214 -3 -451 -8 -526 -11 -130 -6 -138 -7
-157 -31 -10 -13 -23 -24 -29 -24 -5 0 3 14 18 30 l28 30 130 0 c77 0 133 4
137 10 4 6 150 10 404 10 342 0 400 2 411 15 7 8 24 15 38 15 l26 0 -34 -35z
m100 31 c0 -2 -12 -18 -27 -35 -24 -27 -73 -43 -73 -24 0 17 56 63 77 63 13 0
23 -2 23 -4z m50 -31 c-21 -22 -43 -35 -59 -35 -25 0 -25 0 9 35 21 22 43 35
59 35 25 0 25 0 -9 -35z m78 3 c-23 -29 -78 -52 -78 -32 0 16 61 64 81 64 21
0 21 0 -3 -32z m1062 12 c0 -20 -5 -21 -97 -18 -84 3 -98 6 -101 21 -3 15 7
17 97 17 95 0 101 -1 101 -20z m-8380 -70 c0 -19 -7 -20 -100 -20 -93 0 -100
1 -100 20 0 19 7 20 100 20 93 0 100 -1 100 -20z m280 0 c0 -18 -7 -20 -65
-20 -45 0 -65 -4 -66 -12 0 -10 -2 -10 -6 0 -2 6 -18 12 -34 12 -27 0 -39 17
-22 33 3 4 48 7 100 7 86 0 93 -1 93 -20z m290 0 c0 -19 -7 -20 -100 -20 -93
0 -100 1 -100 20 0 19 7 20 100 20 93 0 100 -1 100 -20z m280 1 c0 -25 -10
-27 -112 -23 -79 3 -88 5 -88 23 0 17 8 19 100 19 91 0 100 -2 100 -19z m286
-3 c2 -16 -8 -18 -97 -18 -93 0 -99 1 -99 20 0 20 5 21 97 18 83 -3 96 -5 99
-20z m284 2 c0 -19 -7 -20 -100 -20 -93 0 -100 1 -100 20 0 19 7 20 100 20 93
0 100 -1 100 -20z m280 0 c0 -19 -7 -20 -93 -20 -61 0 -98 -4 -106 -12 -11
-11 -11 -9 -2 10 6 12 9 22 6 22 -4 0 -3 5 0 10 3 6 48 10 101 10 87 0 94 -1
94 -20z m290 0 c0 -19 -7 -20 -100 -20 -93 0 -100 1 -100 20 0 19 7 20 100 20
93 0 100 -1 100 -20z m280 1 c0 -16 -8 -20 -42 -23 -41 -3 -43 -5 -45 -36 -2
-49 -13 -52 -13 -4 l0 42 -50 0 c-35 0 -50 4 -50 13 0 24 12 27 107 27 85 0
93 -2 93 -19z m288 -3 c3 -16 -7 -18 -97 -18 -95 0 -101 1 -101 20 0 20 5 21
97 18 84 -3 98 -6 101 -20z m5662 2 c0 -19 -7 -20 -100 -20 -77 0 -100 3 -100
13 0 24 12 27 107 27 86 0 93 -1 93 -20z m-2628 -36 c-12 -8 -20 -20 -17 -25
4 -5 1 -9 -4 -9 -6 0 -11 5 -11 10 0 6 -125 10 -354 10 -302 0 -355 2 -366 15
-11 13 32 15 381 15 360 0 392 -1 371 -16z m-6123 -31 c-1 -21 -3 -30 -6 -20
-2 9 -12 18 -21 18 -15 1 -15 2 1 6 9 2 17 11 17 19 0 8 2 14 5 14 3 0 4 -17
4 -37z m4071 17 c0 -11 -4 -20 -9 -20 -5 0 -7 9 -4 20 3 11 7 20 9 20 2 0 4
-9 4 -20z m680 -12 c0 -18 -4 -28 -8 -22 -4 6 -14 14 -22 17 -12 4 -11 6 3 6
9 1 17 8 17 16 0 8 2 15 5 15 3 0 5 -15 5 -32z m2048 0 c13 -3 12 -5 -5 -10
-20 -5 -23 -2 -22 20 1 16 3 20 6 10 2 -9 12 -18 21 -20z m664 -22 c-5 -20 -5
-20 -12 -1 -4 11 -5 29 -2 39 5 20 5 20 12 1 4 -11 5 -29 2 -39z m-5392 19 c0
-1 -11 -5 -25 -7 -16 -3 -25 -1 -25 7 0 8 9 10 25 7 14 -2 25 -6 25 -7z m1317
-22 c-3 -10 -5 -4 -5 12 0 17 2 24 5 18 2 -7 2 -21 0 -30z m4750 0 c-3 -10 -5
-4 -5 12 0 17 2 24 5 18 2 -7 2 -21 0 -30z m713 21 c0 -2 -9 -4 -20 -4 -11 0
-20 4 -20 9 0 5 9 7 20 4 11 -3 20 -7 20 -9z m650 6 c0 -5 -5 -10 -11 -10 -5
0 -7 5 -4 10 3 6 8 10 11 10 2 0 4 -4 4 -10z m2048 -8 c-10 -2 -19 -11 -19
-20 -1 -15 -2 -15 -6 1 -2 9 -12 17 -21 18 -14 0 -13 2 3 8 11 4 29 5 40 2 17
-4 18 -6 3 -9z m-10861 2 c-3 -3 -12 -4 -19 -1 -8 3 -5 6 6 6 11 1 17 -2 13
-5z m666 -1 c-7 -2 -21 -2 -30 0 -10 3 -4 5 12 5 17 0 24 -2 18 -5z m8820 0
c-7 -2 -19 -2 -25 0 -7 3 -2 5 12 5 14 0 19 -2 13 -5z m680 0 c-7 -2 -21 -2
-30 0 -10 3 -4 5 12 5 17 0 24 -2 18 -5z"/>
<path d="M5520 6139 c-11 -20 -10 -25 35 -85 5 -7 5 -17 1 -21 -5 -4 -11 -2
-13 5 -5 13 -33 17 -33 5 1 -20 20 -34 41 -31 32 4 38 47 9 73 -11 10 -20 27
-20 39 0 15 3 17 12 8 16 -16 28 -15 28 2 0 13 -20 26 -40 26 -5 0 -14 -9 -20
-21z"/>
<path d="M5594 6138 c3 -13 11 -47 17 -75 13 -57 29 -71 29 -25 0 15 7 45 14
67 8 22 12 43 9 48 -8 12 -23 -3 -23 -24 0 -10 -4 -19 -10 -19 -5 0 -10 9 -10
19 0 10 -7 22 -16 25 -13 5 -15 2 -10 -16z"/>
<path d="M5687 6153 c-14 -14 -6 -61 13 -78 21 -19 27 -45 10 -45 -5 0 -10 5
-10 10 0 6 -7 10 -15 10 -19 0 -19 -14 1 -34 12 -12 20 -13 35 -6 25 14 24 45
-1 77 -11 14 -20 33 -20 41 0 13 3 12 20 -3 16 -14 20 -15 20 -4 0 28 -36 50
-53 32z"/>
<path d="M5750 6149 c0 -5 5 -11 10 -14 6 -3 10 -33 10 -66 0 -46 3 -59 15
-59 12 0 15 13 15 60 0 33 4 60 10 60 6 0 10 7 10 15 0 12 -9 15 -35 13 -19
-1 -35 -5 -35 -9z"/>
<path d="M5837 6153 c-4 -3 -7 -37 -7 -75 l0 -68 36 0 c21 0 33 4 29 10 -3 6
-13 10 -21 10 -20 0 -18 30 4 46 16 13 16 13 0 14 -22 0 -25 40 -3 40 8 0 15
7 15 15 0 15 -40 21 -53 8z"/>
<path d="M5910 6085 c0 -43 4 -75 10 -75 6 0 11 15 11 33 l1 32 7 -29 c8 -39
24 -43 38 -9 11 26 12 27 10 4 -1 -13 4 -26 11 -29 10 -3 12 13 10 70 -2 57
-6 73 -18 73 -9 0 -16 -11 -18 -30 -5 -39 -22 -58 -22 -23 0 37 -10 58 -26 58
-11 0 -14 -18 -14 -75z"/>
<path d="M6060 6084 l0 -75 33 3 32 3 2 63 c1 51 -2 64 -17 72 -43 23 -50 14
-50 -66z m40 31 c0 -8 -4 -15 -10 -15 -5 0 -10 7 -10 15 0 8 5 15 10 15 6 0
10 -7 10 -15z m5 -65 c0 -7 -6 -15 -12 -17 -8 -3 -13 4 -13 17 0 13 5 20 13
18 6 -3 12 -11 12 -18z"/>
<path d="M6145 6151 c-3 -6 -5 -40 -4 -76 2 -64 2 -65 30 -65 16 0 29 5 29 10
0 6 -7 10 -15 10 -12 0 -15 13 -15 59 0 56 -11 84 -25 62z"/>
<path d="M6226 6144 c-16 -16 -22 -87 -10 -118 7 -19 50 -21 60 -4 4 7 9 32
10 57 5 71 -24 102 -60 65z m34 -64 c0 -27 -4 -50 -10 -50 -5 0 -10 23 -10 50
0 28 5 50 10 50 6 0 10 -22 10 -50z"/>
<path d="M6313 6153 c-9 -3 -13 -27 -13 -68 0 -51 4 -66 18 -74 23 -12 52 4
52 29 0 23 -18 27 -26 5 -4 -8 -10 -15 -15 -15 -12 0 -11 97 1 105 6 3 10 -1
10 -9 0 -9 7 -16 15 -16 18 0 20 21 3 38 -13 13 -24 14 -45 5z"/>
<path d="M6380 6086 c0 -76 13 -101 27 -49 l6 28 10 -28 c5 -15 15 -27 23 -27
12 0 11 7 -2 40 -14 34 -14 45 -4 70 16 39 5 52 -12 15 -13 -28 -13 -28 -18
-5 -3 13 -11 25 -18 28 -9 3 -12 -17 -12 -72z"/>
<path d="M9350 6145 c0 -28 4 -44 10 -40 6 3 10 21 10 40 0 19 -4 37 -10 40
-6 4 -10 -12 -10 -40z"/>
<path d="M1335 5560 l-49 -50 -373 0 -373 0 0 -160 0 -160 1615 0 1615 0 0
160 0 160 -378 0 -378 0 -49 50 -49 50 -766 0 -766 0 -49 -50z m-105 -191 c0
-46 3 -59 15 -59 8 0 15 -5 15 -11 0 -6 -12 -9 -27 -7 -27 3 -28 6 -30 63 -2
68 2 89 17 80 5 -3 10 -33 10 -66z m98 62 c9 -5 12 -27 10 -72 -3 -58 -5 -64
-25 -67 -17 -3 -26 3 -33 23 -15 39 -12 91 6 109 18 18 24 19 42 7z m82 -1
c21 -13 25 -140 4 -140 -8 0 -13 3 -13 8 1 4 1 17 0 30 -2 33 -21 27 -21 -8 0
-16 -4 -30 -10 -30 -6 0 -10 32 -10 75 0 65 2 75 18 75 9 0 24 -5 32 -10z m95
0 c3 -6 -3 -10 -13 -10 -35 0 -36 -40 -2 -53 12 -4 10 -7 -6 -12 -28 -9 -24
-39 4 -43 35 -5 25 -22 -13 -22 l-35 0 0 68 c0 38 2 71 4 73 10 9 55 8 61 -1z
m56 -36 c5 -40 15 -32 21 16 2 14 9 25 18 25 11 0 16 -15 18 -59 4 -72 -8
-108 -18 -56 l-7 35 -8 -32 c-9 -40 -23 -42 -31 -5 -10 47 -12 48 -13 10 -1
-21 -5 -38 -11 -38 -11 0 -14 133 -3 144 14 14 28 -2 34 -40z m129 -35 c0 -39
-4 -69 -10 -69 -6 0 -10 32 -10 76 0 47 4 73 10 69 6 -3 10 -37 10 -76z m64
75 c9 -3 16 -13 16 -22 0 -13 4 -11 16 6 8 12 21 22 28 22 18 0 41 -28 31 -38
-4 -4 -10 -1 -12 6 -3 6 -9 12 -14 12 -16 0 -9 -33 12 -56 16 -17 20 -30 15
-48 -7 -29 -36 -35 -56 -11 -16 20 -5 32 14 16 24 -20 26 4 3 37 -24 34 -37
40 -37 17 0 -8 -9 -19 -20 -25 -12 -6 -20 -21 -20 -35 0 -14 -4 -25 -10 -25
-6 0 -10 32 -10 75 0 78 4 84 44 69z m132 -35 c-7 -34 3 -89 15 -89 5 0 9 27
9 59 0 33 5 63 10 66 7 5 10 -17 8 -67 -3 -63 -6 -73 -22 -76 -11 -3 -26 4
-33 14 -13 18 -18 115 -7 127 14 14 26 -7 20 -34z m100 -7 l8 -37 11 38 c17
61 30 48 33 -33 2 -48 0 -71 -7 -65 -5 6 -11 21 -14 35 -4 21 -4 20 -6 -7 -1
-22 -6 -33 -16 -33 -10 0 -15 11 -16 33 -2 27 -2 28 -6 7 -10 -56 -23 -41 -23
26 0 39 3 74 6 77 12 12 23 -3 30 -41z m167 39 c4 0 7 -31 5 -68 l-3 -68 -30
0 c-30 0 -30 0 -32 60 -3 85 -2 86 60 76z m85 -3 c14 -14 16 -106 3 -126 -4
-8 -19 -12 -32 -10 -22 3 -24 8 -27 67 -2 45 1 67 10 72 18 12 32 11 46 -3z
m46 -40 c-4 -53 3 -78 22 -78 8 0 14 -4 14 -10 0 -5 -13 -10 -30 -10 l-30 0 0
68 c0 38 3 72 6 75 14 14 21 -5 18 -45z m104 43 c9 -5 12 -27 10 -72 -3 -59
-5 -64 -27 -67 -31 -5 -41 12 -41 74 0 64 22 88 58 65z m80 0 c18 -11 27 -144
9 -138 -7 2 -13 16 -15 30 -4 37 -22 34 -22 -3 0 -16 -4 -30 -10 -30 -6 0 -10
32 -10 75 0 65 2 75 18 75 9 0 23 -4 30 -9z m122 -6 c16 -20 5 -32 -14 -16
-27 23 -28 -8 -1 -41 33 -39 30 -72 -8 -76 -27 -3 -48 21 -32 36 4 4 10 1 12
-5 5 -15 33 -18 33 -4 0 5 -11 23 -25 39 -28 33 -31 52 -13 70 16 16 33 15 48
-3z m45 -61 c0 -44 -5 -69 -13 -72 -9 -3 -12 15 -12 66 0 65 5 86 19 78 3 -2
6 -35 6 -72z m73 67 c11 -7 11 -9 -2 -14 -12 -5 -16 -21 -16 -67 0 -33 -4 -60
-10 -60 -6 0 -10 28 -10 65 0 37 -4 65 -10 65 -5 0 -10 5 -10 10 0 12 40 13
58 1z m100 -8 c12 -23 26 -133 16 -133 -4 0 -13 8 -20 18 -12 16 -14 16 -29
-3 -15 -19 -16 -16 -10 50 4 39 9 73 12 78 7 12 22 8 31 -10z m77 -34 l11 -44
8 48 c5 31 12 47 22 47 11 0 14 -16 14 -75 0 -43 -4 -75 -10 -75 -5 0 -11 15
-11 33 l-1 32 -7 -29 c-8 -40 -31 -46 -32 -9 l-1 28 -13 -30 c-14 -29 -14 -30
-15 -5 -1 14 -2 47 -3 73 -2 26 -1 50 2 53 12 12 26 -6 36 -47z m135 42 c0 -5
-9 -11 -20 -14 -23 -6 -27 -35 -5 -43 8 -4 15 -10 15 -15 0 -5 -7 -9 -15 -9
-8 0 -15 -9 -15 -20 0 -13 7 -20 20 -20 11 0 20 -4 20 -10 0 -5 -13 -10 -30
-10 l-30 0 0 75 0 75 30 0 c17 0 30 -4 30 -9z m74 0 c4 -5 1 -11 -4 -13 -6 -2
-12 -30 -13 -62 -1 -38 -7 -61 -15 -64 -9 -3 -12 12 -11 59 1 40 -2 64 -9 67
-7 2 -12 8 -12 13 0 12 57 12 64 0z"/>
<path d="M1300 5365 c0 -30 5 -55 10 -55 6 0 10 25 10 55 0 30 -4 55 -10 55
-5 0 -10 -25 -10 -55z"/>
<path d="M1387 5413 c-11 -10 -8 -43 3 -43 6 0 10 11 10 25 0 26 -2 29 -13 18z"/>
<path d="M1730 5396 c0 -14 5 -26 10 -26 6 0 10 9 10 19 0 11 -4 23 -10 26 -6
4 -10 -5 -10 -19z"/>
<path d="M2120 5366 c0 -31 5 -56 10 -56 6 0 10 22 10 49 0 28 -4 53 -10 56
-6 4 -10 -15 -10 -49z"/>
<path d="M2207 5413 c-10 -10 -8 -103 2 -103 5 0 11 21 13 48 5 46 -2 69 -15
55z"/>
<path d="M2356 5404 c-13 -34 -3 -94 15 -94 12 0 12 97 0 104 -5 3 -12 -1 -15
-10z"/>
<path d="M2440 5390 c0 -11 5 -20 10 -20 6 0 10 9 10 20 0 11 -4 20 -10 20 -5
0 -10 -9 -10 -20z"/>
<path d="M2788 5365 c-3 -14 -1 -25 3 -25 5 0 9 11 9 25 0 14 -2 25 -4 25 -2
0 -6 -11 -8 -25z"/>
<path d="M10827 4933 c-11 -10 -8 -43 3 -43 6 0 10 11 10 25 0 26 -2 29 -13
18z"/>
<path d="M5804 4970 c-113 -12 -117 -15 -111 -64 l6 -41 -88 -21 c-109 -27
-244 -80 -351 -140 -86 -47 -101 -47 -115 -3 -10 30 -33 23 -109 -35 -249
-187 -430 -426 -540 -713 -20 -51 -36 -97 -36 -103 0 -10 56 -27 73 -22 10 3
9 -7 -12 -100 -46 -195 -52 -418 -16 -603 19 -101 20 -95 -12 -95 -53 0 -58
-11 -38 -82 31 -114 124 -324 168 -382 14 -19 15 -19 45 2 31 23 52 28 52 14
0 -14 124 -173 164 -211 35 -34 36 -34 56 -16 11 10 20 13 20 7 0 -7 5 -12 11
-12 6 0 8 8 5 18 -4 13 13 36 62 82 l67 65 -58 -60 c-58 -62 -72 -100 -39
-108 9 -3 -4 -5 -30 -6 -27 0 -48 -5 -48 -10 0 -15 114 -115 197 -174 80 -56
238 -140 326 -172 52 -20 52 -19 36 -64 -7 -19 -8 -36 -3 -41 28 -27 309 -80
427 -80 l67 0 0 212 c0 116 2 209 5 207 2 -3 5 -98 5 -212 l1 -207 69 0 c38 0
103 5 145 11 70 11 75 13 75 36 0 13 -5 33 -10 43 -9 17 -6 20 17 25 123 26
330 106 445 172 31 18 59 33 61 33 3 0 15 -16 27 -35 l21 -34 31 19 c63 38
189 144 260 218 156 164 264 335 344 544 19 49 34 93 34 97 0 4 -18 13 -40 20
-22 6 -40 14 -40 16 0 2 9 41 19 87 45 191 51 405 16 598 -8 47 -15 88 -15 91
0 4 18 9 41 13 40 6 40 7 33 39 -22 105 -127 353 -178 422 -13 18 -14 18 -41
-3 -15 -12 -33 -22 -39 -22 -6 0 -30 29 -54 65 -24 35 -69 92 -101 127 -53 57
-60 61 -76 48 -16 -13 -16 -14 2 -21 15 -7 16 -8 1 -8 -9 -1 -19 -9 -21 -18
-4 -15 -5 -15 -6 2 -1 15 -25 -4 -100 -79 l-100 -99 35 -41 c20 -24 32 -46 29
-56 -3 -9 4 -30 16 -46 l21 -29 -24 26 c-12 14 -40 47 -62 73 l-38 48 -47 -44
-46 -43 43 45 42 46 -32 31 c-18 17 -62 52 -98 78 -76 55 -80 58 -57 49 10 -3
17 -1 17 5 0 18 51 -15 128 -81 l67 -57 88 87 c48 48 87 92 87 99 0 7 7 13 15
13 8 0 15 7 15 15 0 8 7 15 15 15 25 0 18 13 -32 62 -66 63 -174 142 -263 191
-85 47 -217 107 -236 107 -22 0 -26 19 -14 56 10 30 10 38 -1 45 -42 26 -340
79 -446 79 -35 0 -42 -3 -46 -22 l-4 -23 -2 23 c-1 20 -6 22 -53 21 -29 -1
-85 -5 -124 -9z m183 -317 c-1 -54 -3 -12 -3 92 0 105 2 149 3 98 2 -51 2
-136 0 -190z m103 83 c0 -3 -4 -8 -10 -11 -5 -3 -10 -1 -10 4 0 6 5 11 10 11
6 0 10 -2 10 -4z m-257 -13 c-7 -2 -21 -2 -30 0 -10 3 -4 5 12 5 17 0 24 -2
18 -5z m67 -18 c0 -20 -5 -25 -22 -24 -17 1 -19 2 -5 6 9 2 17 13 17 24 0 10
2 19 5 19 3 0 5 -11 5 -25z m273 18 c-7 -2 -19 -2 -25 0 -7 3 -2 5 12 5 14 0
19 -2 13 -5z m-416 -9 c-3 -3 -12 -4 -19 -1 -8 3 -5 6 6 6 11 1 17 -2 13 -5z
m476 -1 c-7 -2 -19 -2 -25 0 -7 3 -2 5 12 5 14 0 19 -2 13 -5z m54 -9 c-3 -3
-12 -4 -19 -1 -8 3 -5 6 6 6 11 1 17 -2 13 -5z m-167 -20 c0 -2 -11 -4 -25 -4
-14 0 -25 4 -25 9 0 4 11 6 25 3 14 -2 25 -6 25 -8z m-317 -11 c-7 -2 -19 -2
-25 0 -7 3 -2 5 12 5 14 0 19 -2 13 -5z m394 1 c-3 -3 -12 -4 -19 -1 -8 3 -5
6 6 6 11 1 17 -2 13 -5z m200 0 c-3 -3 -12 -4 -19 -1 -8 3 -5 6 6 6 11 1 17
-2 13 -5z m-847 -13 c-8 -5 -26 -11 -40 -15 -21 -5 -20 -3 5 9 32 15 60 20 35
6z m187 3 c-3 -3 -12 -4 -19 -1 -8 3 -5 6 6 6 11 1 17 -2 13 -5z m510 0 c-3
-3 -12 -4 -19 -1 -8 3 -5 6 6 6 11 1 17 -2 13 -5z m-550 -10 c-3 -3 -12 -4
-19 -1 -8 3 -5 6 6 6 11 1 17 -2 13 -5z m600 0 c-3 -3 -12 -4 -19 -1 -8 3 -5
6 6 6 11 1 17 -2 13 -5z m-640 -10 c-3 -3 -12 -4 -19 -1 -8 3 -5 6 6 6 11 1
17 -2 13 -5z m-180 -19 c0 -8 -4 -12 -9 -9 -4 3 -8 9 -8 15 0 5 4 9 8 9 5 0 9
-7 9 -15z m1053 0 c14 -8 21 -14 15 -14 -5 0 -21 6 -35 14 -14 8 -20 14 -15
14 6 0 21 -6 35 -14z m-60 -25 c8 -5 11 -10 5 -10 -5 0 -17 5 -25 10 -8 5 -10
10 -5 10 6 0 17 -5 25 -10z m100 -25 c-7 -8 -16 -15 -21 -15 -5 0 -1 8 9 18
20 22 31 19 12 -3z m-50 5 c8 -5 11 -10 5 -10 -5 0 -17 5 -25 10 -8 5 -10 10
-5 10 6 0 17 -5 25 -10z m-462 -52 c3 -16 -6 -18 -91 -18 -107 0 -234 -20
-321 -50 -71 -24 -66 -24 -66 -2 0 38 251 91 410 88 53 -1 65 -4 68 -18z
m-1085 -118 c4 0 7 8 8 18 0 14 2 14 8 -3 5 -11 6 -24 3 -29 -2 -4 40 -53 94
-107 l98 -99 36 33 c19 17 6 1 -29 -38 -92 -100 -112 -118 -59 -54 l47 56 -93
92 c-50 50 -95 88 -99 85 -4 -4 -7 0 -7 9 0 9 -6 20 -12 24 -7 5 -35 33 -63
63 l-50 55 55 -52 c31 -29 59 -53 63 -53z m1184 94 c-3 -3 -12 -4 -19 -1 -8 3
-5 6 6 6 11 1 17 -2 13 -5z m16 -78 c77 -15 105 -32 37 -22 -169 24 -214 27
-290 21 -93 -7 -180 -25 -273 -55 -69 -23 -67 -23 -67 -12 0 4 16 14 35 21 19
7 35 16 35 20 0 4 15 8 33 9 17 1 61 8 97 16 82 18 303 19 393 2z m-633 -6
c-8 -5 -19 -10 -25 -10 -5 0 -3 5 5 10 8 5 20 10 25 10 6 0 3 -5 -5 -10z m830
-14 c0 -2 -9 -6 -20 -9 -11 -3 -20 -1 -20 4 0 5 9 9 20 9 11 0 20 -2 20 -4z
m-1000 -70 c0 -2 -8 -10 -17 -17 -16 -13 -17 -12 -4 4 13 16 21 21 21 13z
m1703 -148 c16 -21 26 -38 24 -38 -3 0 -18 17 -34 38 -15 22 -43 56 -61 76
-33 37 -33 38 -54 20 l-21 -19 18 28 18 29 41 -48 c23 -26 54 -65 69 -86z
m-1743 118 c0 -2 -17 -16 -37 -31 l-38 -26 35 30 c34 31 40 35 40 27z m1689
-121 c48 -66 32 -55 -24 18 -26 34 -39 54 -28 44 11 -9 34 -37 52 -62z m-892
51 c12 -12 -3 -13 -84 -8 -46 2 -83 9 -83 15 0 10 156 4 167 -7z m-1169 -17
c12 -19 11 -24 -4 -38 -17 -15 -17 -15 -5 2 12 15 11 20 -4 37 -10 11 -14 20
-9 20 5 0 15 -10 22 -21z m862 1 c0 -5 -8 -10 -18 -10 -11 0 -45 -9 -77 -20
-66 -23 -84 -25 -68 -9 12 12 119 48 146 48 9 1 17 -3 17 -9z m-890 -3 c0 -2
-10 -12 -22 -23 l-23 -19 19 23 c18 21 26 27 26 19z m1426 -51 c41 -19 74 -40
74 -46 0 -6 -3 -10 -7 -8 -5 2 -41 20 -80 39 -40 19 -73 37 -73 42 0 11 7 9
86 -27z m-1482 -21 c-9 -14 -18 -25 -21 -25 -5 0 5 18 20 38 17 22 18 13 1
-13z m362 -7 l29 -33 -32 29 c-31 28 -38 36 -30 36 2 0 16 -15 33 -32z m-316
-12 c0 -2 -8 -10 -17 -17 -16 -13 -17 -12 -4 4 13 16 21 21 21 13z m2151 -13
c13 -16 12 -17 -3 -4 -10 7 -18 15 -18 17 0 8 8 3 21 -13z m-1563 -26 c-83
-70 -110 -88 -116 -82 -7 6 7 19 82 76 45 34 74 39 34 6z m1659 -42 c21 -42 1
-19 -26 30 -13 22 -15 31 -6 20 9 -11 23 -33 32 -50z m-1817 -22 l75 -78 -77
75 c-72 69 -83 80 -75 80 1 0 36 -35 77 -77z m1297 19 l-47 -48 34 -41 c20
-22 32 -43 29 -47 -3 -3 -22 12 -41 35 l-35 40 -36 -33 -36 -33 32 35 33 36
-22 22 c-29 28 -15 42 15 14 l23 -22 44 45 c24 25 46 45 49 45 3 0 -16 -22
-42 -48z m-672 28 c-3 -5 -12 -7 -20 -3 -21 7 -19 13 6 13 11 0 18 -4 14 -10z
m85 0 c0 -5 -7 -10 -15 -10 -8 0 -15 5 -15 10 0 6 7 10 15 10 8 0 15 -4 15
-10z m-970 -4 c0 -2 -8 -10 -17 -17 -16 -13 -17 -12 -4 4 13 16 21 21 21 13z
m793 -3 c-7 -2 -19 -2 -25 0 -7 3 -2 5 12 5 14 0 19 -2 13 -5z m262 -3 c3 -5
-1 -10 -9 -10 -9 0 -16 5 -16 10 0 6 4 10 9 10 6 0 13 -4 16 -10z m682 -33
c52 -70 91 -138 128 -222 34 -79 54 -103 56 -68 1 16 2 16 6 1 4 -15 43 -27
43 -13 0 11 -45 116 -75 177 -28 53 -31 67 -20 72 9 3 21 -4 29 -17 41 -62
114 -257 130 -348 5 -28 3 -38 -8 -42 -16 -6 -18 -2 -37 86 -11 50 -15 57 -36
57 -15 0 -23 -6 -24 -17 -1 -17 -2 -17 -6 0 -2 9 -8 17 -12 17 -5 0 0 -33 9
-73 25 -103 34 -177 22 -177 -5 0 -12 24 -16 53 -21 164 -96 356 -190 484 -25
35 -46 65 -46 68 0 15 18 0 47 -38z m293 7 c12 -19 21 -37 18 -39 -2 -2 -14
14 -26 36 -28 49 -22 52 8 3z m-2310 6 c-6 -11 -13 -20 -16 -20 -2 0 0 9 6 20
6 11 13 20 16 20 2 0 0 -9 -6 -20z m990 6 c0 -2 -7 -6 -15 -10 -8 -3 -15 -1
-15 4 0 6 7 10 15 10 8 0 15 -2 15 -4z m-965 -56 c-14 -27 -28 -50 -30 -50 -3
0 6 23 20 50 14 28 28 50 30 50 3 0 -6 -22 -20 -50z m1395 40 c0 -5 -7 -7 -15
-4 -8 4 -15 8 -15 10 0 2 7 4 15 4 8 0 15 -4 15 -10z m-1195 -19 c3 -5 -7 -31
-23 -58 -40 -68 -99 -209 -113 -271 -10 -39 -17 -52 -31 -52 -10 0 -18 1 -18
3 0 13 43 146 63 196 33 80 95 191 107 191 5 0 11 -4 15 -9z m685 5 c0 -2 -7
-6 -15 -10 -8 -3 -15 -1 -15 4 0 6 7 10 15 10 8 0 15 -2 15 -4z m585 -16 c3
-5 2 -10 -4 -10 -5 0 -13 5 -16 10 -3 6 -2 10 4 10 5 0 13 -4 16 -10z m889 -6
c3 -8 2 -12 -4 -9 -6 3 -10 10 -10 16 0 14 7 11 14 -7z m-2428 -41 c-8 -15
-15 -25 -16 -21 0 12 23 58 27 54 3 -2 -2 -17 -11 -33z m869 17 c-3 -5 -11
-10 -16 -10 -6 0 -7 5 -4 10 3 6 11 10 16 10 6 0 7 -4 4 -10z m751 -27 c-7 -7
-26 7 -26 19 0 6 6 6 15 -2 9 -7 13 -15 11 -17z m843 -28 c0 -5 -6 1 -14 15
-8 14 -14 30 -14 35 0 6 6 -1 14 -15 8 -14 14 -29 14 -35z m-49 1 c0 -12 -5
-7 -19 24 -11 24 -11 24 3 6 9 -11 16 -24 16 -30z m-2116 -47 c-49 -97 -67
-149 -52 -149 7 0 5 -6 -4 -12 -28 -22 -49 -126 -55 -265 -3 -80 -10 -133 -16
-133 -17 0 -1 245 21 328 l20 72 -22 1 c-20 2 -20 2 -1 6 14 3 32 29 59 88 45
98 75 149 82 142 3 -3 -11 -38 -32 -78z m501 52 c-3 -6 -11 -11 -17 -11 -6 0
-6 6 2 15 14 17 26 13 15 -4z m-50 -63 c39 -40 52 -56 29 -35 -30 27 -46 36
-60 31 -16 -6 -17 -5 -7 7 11 10 8 18 -14 41 -15 15 -25 28 -22 28 2 0 36 -33
74 -72z m935 42 c8 -5 11 -10 5 -10 -5 0 -17 5 -25 10 -8 5 -10 10 -5 10 6 0
17 -5 25 -10z m-25 -80 c-87 -87 -88 -89 -64 -99 23 -9 22 -10 -11 -10 -27 -1
-45 -11 -85 -48 l-50 -48 45 49 c58 63 244 245 250 246 2 0 -36 -40 -85 -90z
m-1694 53 c-12 -20 -14 -14 -5 12 4 9 9 14 11 11 3 -2 0 -13 -6 -23z m528 -57
c-23 -36 -45 -66 -50 -66 -11 0 1 24 49 100 19 30 37 50 39 44 2 -6 -15 -41
-38 -78z m1981 69 c0 -8 -4 -15 -10 -15 -5 0 -7 7 -4 15 4 8 8 15 10 15 2 0 4
-7 4 -15z m-2479 -62 c-12 -20 -14 -14 -5 12 4 9 9 14 11 11 3 -2 0 -13 -6
-23z m1764 -11 c-6 -7 -35 18 -35 31 0 5 9 2 20 -8 11 -10 18 -20 15 -23z
m-1081 -17 c-4 -8 -10 -15 -15 -15 -4 0 -6 7 -3 15 4 8 10 15 15 15 4 0 6 -7
3 -15z m1320 -40 c16 -32 46 -113 46 -121 0 -2 -4 -4 -8 -4 -4 0 -14 17 -21
38 -8 20 -22 55 -32 76 -22 46 -22 46 -10 46 5 0 16 -16 25 -35z m-1089 -33
c17 -6 22 -11 13 -11 -10 -1 -18 -7 -19 -13 0 -10 -2 -10 -6 0 -2 6 -14 12
-26 13 -13 0 -16 3 -9 6 10 4 6 14 -15 37 l-28 31 30 -26 c17 -15 44 -31 60
-37z m895 27 c0 -6 -4 -7 -10 -4 -5 3 -10 11 -10 16 0 6 5 7 10 4 6 -3 10 -11
10 -16z m-1175 -28 c-3 -6 -11 -11 -17 -11 -6 0 -6 6 2 15 14 17 26 13 15 -4z
m-674 -14 c-10 -9 -11 -8 -5 6 3 10 9 15 12 12 3 -3 0 -11 -7 -18z m-21 -3 c0
-2 -7 -4 -15 -4 -8 0 -15 4 -15 10 0 5 7 7 15 4 8 -4 15 -8 15 -10z m1016 -46
l29 -33 -32 29 c-18 17 -33 31 -33 33 0 8 8 1 36 -29z m899 21 c11 -17 -1 -21
-15 -4 -8 9 -8 15 -2 15 6 0 14 -5 17 -11z m-1255 -28 c0 -6 -4 -13 -10 -16
-5 -3 -10 1 -10 9 0 9 5 16 10 16 6 0 10 -4 10 -9z m864 -59 c19 -27 19 -27
-12 2 -35 32 -38 38 -19 30 6 -3 21 -17 31 -32z m-1059 1 c-3 -10 -9 -40 -12
-68 -7 -62 -22 -94 -23 -48 0 48 20 133 32 133 6 0 7 -8 3 -17z m616 0 c13
-16 12 -17 -3 -4 -10 7 -18 15 -18 17 0 8 8 3 21 -13z m869 -4 c0 -6 -4 -7
-10 -4 -5 3 -10 11 -10 16 0 6 5 7 10 4 6 -3 10 -11 10 -16z m-1324 -36 c-10
-10 -19 5 -10 18 6 11 8 11 12 0 2 -7 1 -15 -2 -18z m569 -71 c-4 -5 -7 -2
-65 64 -27 31 -24 28 17 -10 29 -28 51 -52 48 -54z m-1028 36 c-3 -7 -5 -2 -5
12 0 14 2 19 5 13 2 -7 2 -19 0 -25z m2240 0 c-3 -7 -5 -2 -5 12 0 14 2 19 5
13 2 -7 2 -19 0 -25z m-437 -9 c0 -5 -4 -9 -10 -9 -5 0 -10 7 -10 16 0 8 5 12
10 9 6 -3 10 -10 10 -16z m-598 -40 c22 -26 28 -44 28 -81 0 -26 -5 -50 -11
-54 -6 -3 -9 -15 -6 -25 3 -11 1 -17 -4 -14 -5 3 -30 -2 -57 -11 -45 -16 -49
-16 -85 1 -89 42 -92 167 -6 213 14 7 43 11 69 8 36 -3 50 -11 72 -37z m-765
-1 c-3 -7 -5 -2 -5 12 0 14 2 19 5 13 2 -7 2 -19 0 -25z m1537 -30 c4 -29 5
-66 2 -81 -7 -56 -15 -37 -18 47 -3 95 7 116 16 34z m-164 -13 c0 -8 -4 -15
-10 -15 -5 0 -10 7 -10 15 0 8 5 15 10 15 6 0 10 -7 10 -15z m-1823 -42 c-3
-10 -5 -4 -5 12 0 17 2 24 5 18 2 -7 2 -21 0 -30z m2260 0 c-3 -10 -5 -4 -5
12 0 17 2 24 5 18 2 -7 2 -21 0 -30z m-1807 12 c0 -8 -4 -15 -10 -15 -5 0 -10
7 -10 15 0 8 5 15 10 15 6 0 10 -7 10 -15z m1357 -67 c-3 -7 -5 -2 -5 12 0 14
2 19 5 13 2 -7 2 -19 0 -25z m-1360 -40 c-3 -7 -5 -2 -5 12 0 14 2 19 5 13 2
-7 2 -19 0 -25z m-157 -16 c0 -15 7 -51 14 -79 8 -29 10 -53 5 -53 -10 0 -26
57 -36 125 -4 35 -3 46 5 41 7 -4 12 -19 12 -34z m550 -7 c0 -5 -5 -3 -10 5
-5 8 -10 20 -10 25 0 6 5 3 10 -5 5 -8 10 -19 10 -25z m670 -228 c11 3 12 2 3
-4 -9 -6 21 -42 101 -122 l113 -113 46 54 c57 65 63 50 8 -18 l-40 -49 37 -40
37 -40 -40 38 c-32 29 -44 34 -53 25 -15 -15 -28 -2 -14 15 15 18 -199 232
-243 243 -23 6 -25 9 -12 13 14 5 -4 27 -87 110 -58 57 -111 111 -118 120 -6
9 46 -41 118 -110 80 -79 135 -125 144 -122z m737 206 c-3 -10 -5 -4 -5 12 0
17 2 24 5 18 2 -7 2 -21 0 -30z m-2240 5 c-3 -8 -6 -5 -6 6 -1 11 2 17 5 13 3
-3 4 -12 1 -19z m1790 0 c-3 -8 -6 -5 -6 6 -1 11 2 17 5 13 3 -3 4 -12 1 -19z
m-1327 -34 c0 -8 -4 -12 -10 -9 -5 3 -10 10 -10 16 0 5 5 9 10 9 6 0 10 -7 10
-16z m-440 -81 c28 -117 94 -276 144 -343 8 -12 6 -11 -9 1 -11 9 -25 15 -31
12 -33 -12 -174 389 -143 408 7 4 15 6 17 5 1 -2 11 -39 22 -83z m876 35 c16
-18 21 -26 11 -19 -16 13 -23 10 -60 -25 l-42 -39 39 42 c33 36 37 45 26 58
-23 28 -4 15 26 -17z m870 -4 c-4 -9 -9 -15 -11 -12 -3 3 -3 13 1 22 4 9 9 15
11 12 3 -3 3 -13 -1 -22z m184 12 c0 -3 -12 -38 -26 -78 -27 -74 -52 -116 -41
-68 10 45 52 150 59 150 5 0 8 -2 8 -4z m-1460 -47 c0 -6 -4 -7 -10 -4 -5 3
-10 11 -10 16 0 6 5 7 10 4 6 -3 10 -11 10 -16z m1753 -1 c-28 -126 -134 -363
-163 -363 -8 0 -21 -4 -28 -9 -7 -4 2 16 21 46 57 90 137 284 137 332 0 9 8
16 19 16 15 0 18 -5 14 -22z m-1258 -26 c-3 -3 -11 0 -18 7 -9 10 -8 11 6 5
10 -3 15 -9 12 -12z m746 -25 c-8 -8 -11 -7 -11 4 0 20 13 34 18 19 3 -7 -1
-17 -7 -23z m-941 -19 c-58 -52 -73 -60 -35 -20 21 23 44 42 49 42 6 0 -1 -10
-14 -22z m1640 13 c0 -4 -11 -6 -25 -3 -16 3 -25 0 -25 -9 0 -7 -3 -10 -6 -6
-3 3 -3 10 1 16 7 13 55 15 55 2z m-2311 -38 c-1 -21 -3 -30 -6 -20 -2 9 -12
18 -21 18 -15 1 -15 2 1 6 9 2 17 11 17 19 0 8 2 14 5 14 3 0 4 -17 4 -37z
m411 16 c0 -5 -4 -9 -10 -9 -5 0 -10 7 -10 16 0 8 5 12 10 9 6 -3 10 -10 10
-16z m1634 -11 c8 -6 8 -8 -1 -8 -6 0 -14 -8 -16 -17 -3 -10 -5 0 -5 22 0 22
2 33 5 25 3 -8 11 -18 17 -22z m253 -10 c-3 -8 -6 -5 -6 6 -1 11 2 17 5 13 3
-3 4 -12 1 -19z m-1597 5 c-8 -3 -20 -10 -26 -14 -7 -5 -11 -3 -11 6 0 10 10
15 26 14 16 0 20 -3 11 -6z m875 -22 c-3 -6 -11 -11 -17 -11 -6 0 -6 6 2 15
14 17 26 13 15 -4z m-1286 -80 c23 -35 39 -66 36 -69 -3 -3 -9 -1 -15 4 -15
15 -80 127 -80 138 0 14 11 1 59 -73z m161 54 c7 -9 8 -15 2 -15 -5 0 -12 7
-16 15 -3 8 -4 15 -2 15 2 0 9 -7 16 -15z m114 -27 c-39 -43 -44 -48 -85 -83
l-34 -30 26 30 c15 17 24 36 22 43 -3 7 1 10 9 7 7 -3 29 10 48 30 42 44 54
46 14 3z m966 -7 c0 -5 -7 -11 -14 -14 -10 -4 -13 -1 -9 9 6 15 23 19 23 5z
m-1756 -126 c4 -11 -2 -4 -13 15 -11 19 -20 44 -20 55 0 18 10 -2 33 -70z
m1690 66 c3 -5 -1 -11 -9 -14 -9 -4 -12 -1 -8 9 6 16 10 17 17 5z m-889 -32
c11 -17 -1 -21 -15 -4 -8 9 -8 15 -2 15 6 0 14 -5 17 -11z m1626 -75 c-21 -44
-46 -88 -55 -99 -9 -11 8 26 37 82 28 56 53 100 55 98 2 -2 -15 -38 -37 -81z
m-342 -1 c-19 -26 -51 -67 -73 -91 l-39 -43 23 -24 24 -25 30 27 31 28 -28
-30 -27 -30 97 -100 98 -100 -98 95 c-92 90 -98 94 -120 81 -21 -13 -22 -13
-5 6 17 19 17 20 -6 42 l-25 23 -58 -49 c-75 -65 -131 -102 -220 -147 -78 -39
-83 -40 -83 -27 0 5 24 19 53 31 115 50 291 182 283 213 -3 14 -1 16 8 8 14
-12 61 39 126 133 19 28 35 45 38 38 2 -6 -11 -33 -29 -59z m-2014 7 c14 -27
23 -50 20 -50 -2 0 -16 23 -30 50 -14 28 -23 50 -20 50 2 0 16 -22 30 -50z
m1545 35 c-7 -9 -15 -13 -17 -11 -7 7 7 26 19 26 6 0 6 -6 -2 -15z m-960 2 c0
-2 -15 -16 -32 -33 l-33 -29 29 33 c28 30 36 37 36 29z m1725 -36 c-21 -43
-29 -39 -8 4 9 19 18 33 21 31 2 -2 -4 -18 -13 -35z m-1510 18 c11 -17 -1 -21
-15 -4 -8 9 -8 15 -2 15 6 0 14 -5 17 -11z m670 -29 c-3 -5 -11 -10 -16 -10
-6 0 -7 5 -4 10 3 6 11 10 16 10 6 0 7 -4 4 -10z m-585 -21 c0 -4 -7 -6 -15
-3 -8 4 -15 10 -15 15 0 4 7 6 15 3 8 -4 15 -10 15 -15z m-625 -54 c68 -85
140 -158 212 -211 36 -28 59 -52 56 -60 -7 -18 -26 -7 -122 71 l-79 63 -28
-27 -29 -26 27 30 26 30 -34 40 c-19 21 -32 45 -29 53 3 8 -5 29 -18 46 -59
79 -47 73 18 -9z m212 7 c-26 -26 -47 -52 -47 -57 0 -17 88 -87 179 -145 71
-45 159 -83 291 -127 12 -4 12 -6 2 -10 -46 -17 -304 109 -416 204 -77 64 -78
64 -99 46 l-22 -18 19 23 c19 22 19 22 -12 55 -18 18 -29 37 -25 41 4 4 21 -9
38 -29 l30 -36 50 50 c27 28 51 51 54 51 3 0 -16 -22 -42 -48z m173 4 c33 -24
66 -46 72 -49 7 -2 10 -8 6 -12 -9 -9 -95 45 -128 80 -35 37 -18 31 50 -19z
m755 34 c-3 -5 -14 -10 -23 -10 -15 0 -15 2 -2 10 20 13 33 13 25 0z m-425
-16 c0 -2 -9 -4 -20 -4 -11 0 -20 4 -20 9 0 5 9 7 20 4 11 -3 20 -7 20 -9z
m1081 -22 c-11 -16 -28 -35 -38 -43 -9 -8 -2 5 17 29 38 48 52 57 21 14z
m-2011 -2 c6 -11 8 -20 6 -20 -3 0 -10 9 -16 20 -6 11 -8 20 -6 20 3 0 10 -9
16 -20z m1270 16 c0 -2 -7 -6 -15 -10 -8 -3 -15 -1 -15 4 0 6 7 10 15 10 8 0
15 -2 15 -4z m-1310 -37 c15 -28 5 -23 -15 7 -9 15 -12 23 -6 20 6 -4 16 -16
21 -27z m1047 25 c-3 -3 -12 -4 -19 -1 -8 3 -5 6 6 6 11 1 17 -2 13 -5z m173
-4 c0 -5 -7 -10 -15 -10 -8 0 -15 5 -15 10 0 6 7 10 15 10 8 0 15 -4 15 -10z
m-87 -7 c-7 -2 -19 -2 -25 0 -7 3 -2 5 12 5 14 0 19 -2 13 -5z m-1053 -53 c12
-16 19 -30 16 -30 -2 0 -14 14 -26 30 -12 17 -19 30 -16 30 2 0 14 -13 26 -30z
m1535 21 c-23 -21 -147 -83 -153 -76 -4 4 -2 10 3 12 6 2 37 19 70 37 57 32
100 47 80 27z m605 -25 c0 -2 -8 -10 -17 -17 -16 -13 -17 -12 -4 4 13 16 21
21 21 13z m-2095 -56 c10 -11 16 -20 13 -20 -3 0 -13 9 -23 20 -10 11 -16 20
-13 20 3 0 13 -9 23 -20z m2055 5 c-10 -12 -10 -18 0 -30 7 -8 17 -12 23 -8 6
3 7 1 3 -5 -10 -17 -19 -15 -34 9 -10 16 -10 24 -1 35 6 8 14 14 16 14 3 0 0
-7 -7 -15z m-2094 -32 c15 -20 23 -33 16 -29 -13 8 -56 66 -49 66 3 0 17 -17
33 -37z m852 12 c39 -10 72 -22 72 -26 0 -12 -3 -12 -92 12 -43 12 -78 26 -78
31 0 6 6 8 13 5 6 -2 45 -12 85 -22z m1302 21 c0 -2 -8 -10 -17 -17 -16 -13
-17 -12 -4 4 13 16 21 21 21 13z m-2057 -112 c-8 -13 -16 -24 -18 -24 -1 0
-10 10 -21 22 -15 19 -16 20 -1 9 14 -11 20 -11 32 -1 14 12 13 17 -12 44
l-28 31 32 -29 c30 -27 31 -30 16 -52z m1127 67 c-25 -15 -160 -25 -160 -13 0
10 29 14 145 20 22 1 26 -1 15 -7z m570 -14 c0 -2 -10 -12 -22 -23 l-23 -19
19 23 c18 21 26 27 26 19z m-180 -131 c0 -2 -7 -7 -16 -10 -8 -3 -12 -2 -9 4
6 10 25 14 25 6z m481 -39 c13 -13 40 -41 59 -63 l35 -39 -40 38 c-27 24 -51
37 -70 38 -17 1 -22 3 -12 6 20 5 22 14 5 31 -7 7 -10 12 -6 12 3 0 16 -10 29
-23z m-1331 -23 c0 -2 -15 -4 -32 -3 -27 0 -29 2 -13 8 18 8 45 4 45 -5z m704
-20 c7 -17 -12 -25 -122 -55 -83 -22 -318 -47 -345 -36 -9 3 -17 13 -17 22 0
12 17 15 98 15 107 1 215 18 307 49 56 18 57 20 25 21 -24 0 -31 3 -21 9 18
11 67 -5 75 -25z m-714 -14 c18 -12 2 -12 -25 0 -13 6 -15 9 -5 9 8 0 22 -4
30 -9z m97 -26 c-3 -3 -12 -4 -19 -1 -8 3 -5 6 6 6 11 1 17 -2 13 -5z m60 -10
c-3 -3 -12 -4 -19 -1 -8 3 -5 6 6 6 11 1 17 -2 13 -5z m-387 -64 c11 -7 7 -9
-15 -7 -24 2 -30 -2 -28 -17 1 -13 -2 -15 -10 -7 -7 7 -6 15 3 26 14 17 29 19
50 5z m20 -60 c8 -5 11 -10 5 -10 -5 0 -17 5 -25 10 -8 5 -10 10 -5 10 6 0 17
-5 25 -10z m1040 0 c0 -5 -5 -10 -11 -10 -5 0 -7 5 -4 10 3 6 8 10 11 10 2 0
4 -4 4 -10z m-773 -36 c-3 -3 -12 -4 -19 -1 -8 3 -5 6 6 6 11 1 17 -2 13 -5z
m510 0 c-3 -3 -12 -4 -19 -1 -8 3 -5 6 6 6 11 1 17 -2 13 -5z m-632 -14 c13
-5 14 -9 5 -9 -8 0 -24 4 -35 9 -13 5 -14 9 -5 9 8 0 24 -4 35 -9z m192 4 c-3
-3 -12 -4 -19 -1 -8 3 -5 6 6 6 11 1 17 -2 13 -5z m386 -1 c-7 -2 -19 -2 -25
0 -7 3 -2 5 12 5 14 0 19 -2 13 -5z m-63 -7 c0 -2 -13 -6 -29 -8 -17 -2 -28
-1 -25 4 5 8 54 12 54 4z m-423 -22 c-3 -3 -12 -4 -19 -1 -8 3 -5 6 6 6 11 1
17 -2 13 -5z m126 -21 c-7 -2 -19 -2 -25 0 -7 3 -2 5 12 5 14 0 19 -2 13 -5z
m350 0 c-7 -2 -21 -2 -30 0 -10 3 -4 5 12 5 17 0 24 -2 18 -5z"/>
<path d="M9960 4959 c0 -11 5 -17 10 -14 6 3 10 13 10 21 0 8 -4 14 -10 14 -5
0 -10 -9 -10 -21z"/>
<path d="M10110 4960 c0 -11 5 -20 10 -20 6 0 10 9 10 20 0 11 -4 20 -10 20
-5 0 -10 -9 -10 -20z"/>
<path d="M10343 4362 l-63 -3 -55 -69 c-49 -61 -60 -70 -89 -70 -20 0 -40 -8
-51 -20 -17 -19 -31 -20 -280 -20 -249 0 -263 1 -280 20 -17 19 -31 20 -364
20 l-345 0 -224 -223 c-202 -203 -223 -226 -217 -250 4 -14 14 -28 23 -30 15
-4 15 -5 0 -6 -11 -1 -19 -13 -24 -35 -5 -27 -1 -40 15 -57 20 -22 21 -31 21
-356 0 -321 -1 -334 -20 -350 -19 -17 -20 -30 -20 -250 l0 -233 109 0 110 0
38 50 38 49 296 1 c284 0 297 1 314 20 18 20 29 20 500 20 467 -1 483 -1 500
-20 14 -16 31 -20 80 -20 61 0 62 -1 123 -55 l60 -55 324 2 323 3 3 231 c2
220 1 231 -18 249 -19 17 -20 30 -20 355 0 324 1 338 20 355 19 17 20 31 20
239 l0 221 -142 142 -143 142 -250 3 c-137 2 -278 2 -312 0z m-459 -372 c219
-32 412 -187 495 -398 29 -72 46 -222 35 -292 -8 -49 -9 -43 -10 60 0 187 -54
320 -179 445 -119 120 -259 177 -430 177 -171 0 -311 -57 -430 -177 -109 -109
-168 -238 -181 -394 -18 -233 128 -483 339 -581 106 -49 172 -64 277 -63 164
0 323 67 434 183 72 74 108 132 143 228 14 40 22 53 18 32 -15 -89 -113 -244
-198 -313 -53 -44 -164 -100 -242 -123 -81 -24 -239 -24 -320 0 -179 53 -321
171 -399 331 -140 287 -47 613 225 791 72 47 161 81 248 93 79 12 97 12 175 1z
m-17 -226 c-9 -9 -28 6 -21 18 4 6 10 6 17 -1 6 -6 8 -13 4 -17z m-163 -15
c-3 -5 -10 -7 -15 -3 -5 3 -7 10 -3 15 3 5 10 7 15 3 5 -3 7 -10 3 -15z m-626
-30 c15 -1 15 -2 0 -6 -10 -2 -19 -12 -19 -21 -1 -15 -2 -15 -6 1 -2 9 -12 18
-21 18 -15 1 -15 2 1 6 9 2 18 12 18 21 1 15 2 15 6 0 2 -10 12 -19 21 -19z
m682 -7 c-8 -3 -18 -10 -22 -16 -5 -8 -8 -7 -8 2 0 6 -8 12 -17 13 -15 0 -15
2 2 8 11 4 29 6 40 3 14 -4 16 -7 5 -10z m673 1 c-13 -2 -33 -2 -45 0 -13 2
-3 4 22 4 25 0 35 -2 23 -4z m680 0 c-13 -2 -33 -2 -45 0 -13 2 -3 4 22 4 25
0 35 -2 23 -4z m-1056 -19 c-3 -3 -12 -4 -19 -1 -8 3 -5 6 6 6 11 1 17 -2 13
-5z m-90 -10 c-3 -3 -12 -4 -19 -1 -8 3 -5 6 6 6 11 1 17 -2 13 -5z m152 -8
c10 -12 9 -14 -5 -12 -10 2 -20 8 -22 14 -5 17 13 15 27 -2z m-681 -113 c-5
-7 -14 -10 -19 -7 -16 10 -9 23 10 21 15 -1 17 -4 9 -14z m-815 -47 c8 -21 -2
-26 -50 -26 -36 0 -43 3 -43 20 0 17 7 20 44 20 28 0 46 -5 49 -14z m1502 -50
c-16 -24 -35 -35 -35 -20 0 8 44 51 48 48 2 -1 -4 -14 -13 -28z m-1497 -23
c-2 -14 -15 -19 -51 -21 -42 -3 -47 -1 -47 17 0 18 6 21 51 21 43 0 50 -3 47
-17z m2412 -3 c0 -17 -7 -20 -45 -20 -38 0 -45 3 -45 20 0 17 7 20 45 20 38 0
45 -3 45 -20z m-1230 -66 c0 -14 -21 -19 -33 -7 -9 9 13 34 24 27 5 -3 9 -12
9 -20z m-1187 2 c8 -21 -2 -26 -50 -26 -36 0 -43 3 -43 20 0 17 7 20 44 20 28
0 46 -5 49 -14z m2417 -6 c0 -17 -7 -20 -45 -20 -38 0 -45 3 -45 20 0 17 7 20
45 20 38 0 45 -3 45 -20z m-1515 -40 c3 -5 -3 -10 -14 -10 -12 0 -21 5 -21 10
0 6 6 10 14 10 8 0 18 -4 21 -10z m-895 -25 c0 -10 -10 -15 -34 -15 -19 0 -41
-3 -50 -6 -12 -4 -16 0 -16 15 0 19 6 21 50 21 38 0 50 -4 50 -15z m136 -2
c-2 -13 -14 -18 -49 -19 -40 -2 -47 1 -47 17 0 16 7 19 49 19 41 0 49 -3 47
-17z m2274 -3 c0 -17 -7 -20 -45 -20 -38 0 -45 3 -45 20 0 17 7 20 45 20 38 0
45 -3 45 -20z m-2413 -53 c13 -14 -12 -27 -53 -27 -36 0 -44 3 -44 19 0 16 7
18 46 16 25 -2 48 -5 51 -8z m138 -13 c0 -19 -26 -27 -67 -18 -18 3 -28 12
-28 23 0 14 9 16 48 15 37 -2 47 -6 47 -20z m2275 -4 c0 -17 -7 -20 -45 -20
-38 0 -45 3 -45 20 0 17 7 20 45 20 38 0 45 -3 45 -20z m-1459 -47 c-12 -20
-14 -14 -5 12 4 9 9 14 11 11 3 -2 0 -13 -6 -23z m-973 1 c12 -4 22 -13 22
-20 0 -10 -14 -14 -50 -14 -35 0 -50 4 -50 13 0 27 28 34 78 21z m157 -14 c0
-11 -13 -16 -47 -18 -43 -3 -48 -1 -48 18 0 19 5 21 48 18 34 -2 47 -7 47 -18z
m1435 4 c0 -17 -22 -14 -28 4 -2 7 3 12 12 12 9 0 16 -7 16 -16z m840 -14 c0
-17 -7 -20 -45 -20 -38 0 -45 3 -45 20 0 17 7 20 45 20 38 0 45 -3 45 -20z
m-2415 -60 c0 -11 -13 -16 -47 -18 -43 -3 -48 -1 -48 18 0 19 5 21 48 18 34
-2 47 -7 47 -18z m135 0 c0 -17 -7 -20 -45 -20 -38 0 -45 3 -45 20 0 17 7 20
45 20 38 0 45 -3 45 -20z m2140 -10 c0 -18 -6 -21 -45 -19 -36 2 -45 6 -45 21
0 15 8 18 45 18 39 0 45 -3 45 -20z m140 0 c0 -17 -7 -20 -45 -20 -38 0 -45 3
-45 20 0 17 7 20 45 20 38 0 45 -3 45 -20z m-1110 0 c11 -8 7 -9 -15 -4 -37 8
-45 14 -19 14 10 0 26 -5 34 -10z m-852 -52 c13 -3 12 -5 -5 -10 -20 -5 -23
-2 -22 20 1 16 3 20 6 10 2 -9 12 -18 21 -20z m923 0 l23 -33 -27 24 c-15 14
-27 28 -27 33 0 15 8 8 31 -24z m-201 12 c0 -5 -4 -10 -10 -10 -5 0 -10 5 -10
10 0 6 5 10 10 10 6 0 10 -4 10 -10z m-1175 -20 c0 -11 -13 -16 -47 -18 -43
-3 -48 -1 -48 18 0 19 5 21 48 18 34 -2 47 -7 47 -18z m135 0 c0 -17 -7 -20
-45 -20 -38 0 -45 3 -45 20 0 17 7 20 45 20 38 0 45 -3 45 -20z m1005 0 c-4
-6 -11 -8 -16 -5 -5 4 -9 -1 -9 -9 0 -8 -4 -17 -9 -20 -5 -3 -8 5 -7 19 1 19
7 25 24 25 13 0 20 -4 17 -10z m435 6 c0 -2 -8 -10 -17 -17 -16 -13 -17 -12
-4 4 13 16 21 21 21 13z m220 -6 c0 -5 -4 -10 -10 -10 -5 0 -10 5 -10 10 0 6
5 10 10 10 6 0 10 -4 10 -10z m480 -11 c0 -18 -5 -20 -42 -17 -31 3 -44 9 -46
21 -3 14 4 17 42 17 40 0 46 -3 46 -21z m150 14 c-1 -23 -20 -33 -58 -30 -32
1 -42 6 -42 20 0 14 9 17 50 17 28 0 50 -3 50 -7z m50 -3 c0 -5 -4 -10 -10
-10 -5 0 -10 5 -10 10 0 6 5 10 10 10 6 0 10 -4 10 -10z m-1542 -19 c3 -8 -1
-12 -9 -9 -7 2 -15 10 -17 17 -3 8 1 12 9 9 7 -2 15 -10 17 -17z m-930 -53 c3
-15 -4 -18 -47 -18 -45 0 -51 3 -51 21 0 18 5 20 47 17 36 -2 49 -7 51 -20z
m135 8 c8 -21 -2 -26 -50 -26 -36 0 -43 3 -43 20 0 17 7 20 44 20 28 0 46 -5
49 -14z m2145 -13 c2 -9 -11 -13 -47 -13 -39 0 -51 4 -51 16 0 12 10 14 47 12
26 -2 48 -9 51 -15z m132 2 c0 -11 -12 -15 -45 -15 -33 0 -45 4 -45 15 0 11
12 15 45 15 33 0 45 -4 45 -15z m-2414 -67 c2 -15 -6 -18 -47 -18 -43 0 -49 3
-49 21 0 18 5 20 47 17 35 -2 47 -7 49 -20z m134 2 c0 -17 -7 -20 -45 -20 -38
0 -45 3 -45 20 0 17 7 20 45 20 38 0 45 -3 45 -20z m2118 15 c12 -3 22 -12 22
-20 0 -11 -12 -15 -45 -15 -37 0 -45 3 -45 18 0 19 28 26 68 17z m162 -15 c0
-17 -7 -20 -45 -20 -31 0 -45 4 -45 13 0 21 11 27 52 27 31 0 38 -3 38 -20z
m-2415 -70 c0 -11 -13 -16 -47 -18 -43 -3 -48 -1 -48 18 0 19 5 21 48 18 34
-2 47 -7 47 -18z m135 0 c0 -17 -7 -20 -45 -20 -38 0 -45 3 -45 20 0 17 7 20
45 20 38 0 45 -3 45 -20z m2140 0 c0 -17 -7 -20 -45 -20 -31 0 -45 4 -45 13 0
21 11 27 52 27 31 0 38 -3 38 -20z m140 0 c0 -17 -7 -20 -45 -20 -38 0 -45 3
-45 20 0 17 7 20 45 20 38 0 45 -3 45 -20z m-2410 -54 c0 -25 -16 -36 -56 -36
-37 0 -44 3 -44 20 0 17 7 20 50 20 28 0 50 -2 50 -4z m130 -16 c0 -17 -7 -20
-45 -20 -38 0 -45 3 -45 20 0 17 7 20 45 20 38 0 45 -3 45 -20z m2140 0 c0
-17 -7 -20 -45 -20 -38 0 -45 3 -45 20 0 17 7 20 45 20 38 0 45 -3 45 -20z
m140 0 c0 -17 -7 -20 -45 -20 -38 0 -45 3 -45 20 0 17 7 20 45 20 38 0 45 -3
45 -20z m-2404 -75 c4 -8 -1 -26 -10 -40 -18 -28 -21 -39 -6 -30 6 3 10 1 10
-4 0 -12 -23 -15 -33 -4 -4 3 3 22 15 41 l21 34 -24 -7 c-21 -7 -22 -6 -10 9
17 20 30 21 37 1z m102 -41 c-3 -38 -26 -55 -36 -26 -2 7 2 10 12 6 9 -3 16
-1 16 5 0 6 -7 11 -15 11 -18 0 -21 46 -2 53 20 8 29 -8 25 -49z m-161 6 c1
-22 -3 -42 -8 -45 -5 -4 -9 14 -9 39 0 56 15 61 17 6z m98 4 c-8 -20 -15 -39
-15 -42 0 -3 -2 -3 -5 0 -6 5 22 78 30 78 3 0 -2 -16 -10 -36z m2215 26 c0 -5
-7 -7 -15 -4 -8 4 -15 2 -15 -4 0 -5 7 -13 16 -16 21 -8 14 -50 -8 -54 -15 -3
-18 4 -18 42 0 39 3 46 20 46 11 0 20 -4 20 -10z m34 -39 c-9 -23 -18 -40 -21
-38 -2 3 4 23 13 46 9 23 18 40 21 38 2 -3 -4 -23 -13 -46z m66 4 c0 -25 -4
-45 -10 -45 -5 0 -10 20 -10 45 0 25 5 45 10 45 6 0 10 -20 10 -45z m49 -2
l-2 -48 -6 40 c-7 38 -5 55 5 55 2 0 3 -21 3 -47z"/>
<path d="M8710 2655 c0 -8 5 -15 10 -15 6 0 10 7 10 15 0 8 -4 15 -10 15 -5 0
-10 -7 -10 -15z"/>
<path d="M10860 2621 c0 -12 5 -21 10 -21 6 0 10 6 10 14 0 8 -4 18 -10 21 -5
3 -10 -3 -10 -14z"/>
<path d="M1412 4220 c0 -19 2 -27 5 -17 2 9 2 25 0 35 -3 9 -5 1 -5 -18z"/>
<path d="M1494 4265 c-7 -17 4 -37 17 -30 12 8 12 45 -1 45 -6 0 -13 -7 -16
-15z"/>
<path d="M4060 2001 c-71 -23 -95 -36 -153 -84 -60 -51 -110 -125 -137 -208
-40 -117 -15 -299 53 -383 l24 -29 30 18 31 18 33 -32 c19 -17 63 -46 99 -64
59 -29 73 -32 155 -31 107 0 175 26 250 95 61 56 91 109 110 194 47 203 -85
399 -303 449 -35 8 -58 18 -58 27 -1 8 -2 22 -3 32 -1 23 -57 22 -131 -2z
m268 -342 c15 -1 15 -2 0 -6 -10 -2 -18 -11 -18 -19 0 -8 -4 -14 -9 -14 -5 0
-13 -9 -16 -21 -4 -11 -9 -19 -11 -16 -3 2 0 17 6 32 8 22 8 30 -2 37 -10 6
-8 8 5 8 9 0 18 8 18 18 1 16 2 16 6 0 2 -10 12 -19 21 -19z m-204 -34 c6 -17
-9 -21 -19 -5 -7 12 -25 4 -25 -11 0 -5 7 -9 15 -9 19 0 38 -46 30 -71 -8 -23
-50 -25 -59 -3 -8 21 -8 99 1 107 12 13 51 7 57 -8z m74 -47 c-3 -60 -4 -63
-28 -63 -23 0 -25 4 -28 49 -4 63 2 76 33 76 25 0 26 -1 23 -62z m64 20 c7
-36 -6 -97 -18 -85 -3 3 -1 14 5 25 15 28 14 31 -9 25 -18 -5 -20 0 -20 37 0
34 3 41 17 38 11 -2 20 -17 25 -40z m58 -49 c0 -28 -4 -39 -15 -39 -8 0 -15 3
-16 8 0 4 -2 18 -4 32 -3 27 12 53 26 44 5 -3 9 -23 9 -45z"/>
<path d="M4086 1573 c-12 -12 -6 -43 9 -43 8 0 15 9 15 19 0 21 -13 34 -24 24z"/>
<path d="M4160 1580 c0 -27 5 -50 10 -50 6 0 10 23 10 50 0 28 -4 50 -10 50
-5 0 -10 -22 -10 -50z"/>
<path d="M4230 1601 c0 -17 2 -31 4 -31 8 0 13 51 5 56 -5 3 -9 -9 -9 -25z"/>
<path d="M4302 1550 c0 -19 2 -27 5 -17 2 9 2 25 0 35 -3 9 -5 1 -5 -18z"/>
<path d="M7635 2002 c-77 -27 -138 -66 -190 -124 -208 -232 -138 -576 145
-712 61 -29 72 -31 181 -31 113 0 116 1 191 38 58 28 92 54 137 104 34 36 61
69 61 74 0 4 -9 10 -19 14 -37 11 -41 27 -19 90 28 84 22 198 -16 276 -52 107
-176 200 -290 215 -44 6 -46 8 -46 40 0 33 -1 34 -42 34 -24 -1 -66 -8 -93
-18z m78 -342 c8 0 8 -3 -1 -9 -8 -5 -14 -32 -15 -72 -2 -58 -4 -64 -25 -67
-22 -3 -42 22 -27 36 4 4 10 1 12 -5 3 -7 9 -13 14 -13 14 0 11 37 -3 44 -10
5 -10 7 0 12 14 7 17 44 3 44 -5 0 -11 -6 -14 -12 -2 -7 -8 -9 -13 -5 -4 4 3
18 15 30 13 12 21 16 17 10 -4 -7 -2 -13 3 -13 6 0 12 12 12 28 1 16 3 20 6
10 2 -10 10 -18 16 -18z m65 -89 c-3 -52 -5 -56 -28 -56 -24 0 -25 3 -28 62
-2 52 0 62 15 65 33 8 44 -12 41 -71z m52 39 c0 -16 4 -30 9 -30 5 0 12 14 16
30 4 17 11 30 16 30 6 0 6 -8 -1 -19 -15 -29 -12 -40 10 -34 18 5 20 0 20 -37
0 -34 -3 -41 -17 -38 -12 2 -19 14 -21 38 l-4 34 -18 -39 c-10 -22 -19 -34
-19 -27 -1 7 3 21 8 31 8 14 6 17 -12 17 -23 -1 -35 30 -23 60 10 27 36 16 36
-16z"/>
<path d="M7738 1597 c-4 -40 1 -67 13 -67 12 0 12 87 0 94 -5 3 -11 -9 -13
-27z"/>
<path d="M7812 1600 c0 -19 2 -27 5 -17 2 9 2 25 0 35 -3 9 -5 1 -5 -18z"/>
<path d="M7870 1550 c0 -16 5 -30 10 -30 6 0 10 14 10 30 0 17 -4 30 -10 30
-5 0 -10 -13 -10 -30z"/>
<path d="M5125 1382 c-11 -2 -46 -31 -77 -65 l-58 -62 0 -152 0 -153 260 0
260 0 22 35 23 35 427 0 427 0 27 -35 26 -35 259 0 259 0 0 153 0 152 -63 64
-63 64 -204 -1 c-170 -2 -206 -5 -213 -17 -12 -22 -882 -23 -906 -1 -13 12
-58 16 -201 18 -102 2 -194 2 -205 0z m565 -207 c0 -58 2 -65 20 -65 11 0 20
-4 20 -10 0 -5 -13 -10 -30 -10 l-30 0 0 75 c0 43 4 75 10 75 6 0 10 -28 10
-65z m110 46 c14 -27 13 -94 -3 -115 -7 -10 -22 -17 -33 -14 -16 3 -20 13 -22
62 -2 32 -1 65 2 72 8 21 44 17 56 -5z m73 5 c13 -34 19 -136 8 -136 -6 0 -11
7 -11 15 0 20 -20 19 -37 -2 -13 -16 -14 -12 -8 37 3 30 9 65 12 78 6 25 28
30 36 8z m95 2 c7 -7 12 -35 12 -63 0 -56 -12 -75 -47 -75 -22 0 -23 3 -23 75
0 72 1 75 23 75 13 0 28 -5 35 -12z m45 -54 c-2 -85 -2 -86 -13 -79 -15 10
-13 148 3 142 8 -2 11 -23 10 -63z m55 38 c5 -30 22 -28 22 3 0 14 4 25 8 25
13 0 9 -143 -4 -147 -6 -2 -17 18 -26 44 l-16 48 -1 -48 c-2 -77 -21 -45 -21
34 0 62 2 70 18 67 9 -2 18 -13 20 -26z m110 16 c15 -15 16 -38 2 -38 -5 0
-10 7 -10 16 0 9 -6 14 -12 12 -16 -6 -18 -98 -3 -97 6 0 9 11 8 25 -1 15 3
24 13 24 21 0 15 -60 -8 -73 -30 -19 -48 9 -48 73 0 31 3 60 7 63 10 11 38 8
51 -5z m42 -128 c0 -5 -4 -10 -10 -10 -5 0 -10 5 -10 10 0 6 5 10 10 10 6 0
10 -4 10 -10z m40 0 c0 -5 -2 -10 -4 -10 -3 0 -8 5 -11 10 -3 6 -1 10 4 10 6
0 11 -4 11 -10z m40 0 c0 -5 -4 -10 -10 -10 -5 0 -10 5 -10 10 0 6 5 10 10 10
6 0 10 -4 10 -10z"/>
<path d="M5760 1165 c0 -30 4 -55 9 -55 12 0 17 34 12 78 -5 53 -21 36 -21
-23z"/>
<path d="M5847 1170 c-7 -26 -4 -34 11 -29 4 2 5 15 2 29 l-6 25 -7 -25z"/>
<path d="M5930 1165 c0 -41 3 -56 13 -52 7 2 12 22 12 52 0 30 -5 50 -12 53
-10 3 -13 -12 -13 -53z"/>
<path d="M9780 1689 c0 -31 4 -48 10 -44 6 3 10 26 10 51 0 24 -4 44 -10 44
-5 0 -10 -23 -10 -51z"/>
<path d="M10500 1715 c0 -14 5 -25 10 -25 6 0 10 11 10 25 0 14 -4 25 -10 25
-5 0 -10 -11 -10 -25z"/>
<path d="M5098 540 l-22 -30 -228 0 c-196 0 -228 -2 -228 -15 0 -13 33 -15
234 -15 l235 0 19 25 20 25 854 0 855 0 23 -25 23 -25 229 0 c196 0 228 2 228
15 0 13 -31 15 -216 15 l-216 0 -34 30 -34 30 -860 0 -859 0 -23 -30z"/>
</g>
</svg>
