<?xml version="1.0" standalone="no"?>
<!DOCTYPE svg PUBLIC "-//W3C//DTD SVG 20010904//EN"
 "http://www.w3.org/TR/2001/REC-SVG-20010904/DTD/svg10.dtd">
<svg version="1.0" xmlns="http://www.w3.org/2000/svg"
 width="900.000000pt" height="506.000000pt" viewBox="0 0 900.000000 506.000000"
 preserveAspectRatio="xMidYMid meet">

<g transform="translate(0.000000,506.000000) scale(0.100000,-0.100000)"
fill="#000000" stroke="none">
<path d="M0 4461 l0 -599 72 19 c40 11 84 17 98 14 16 -4 20 -3 12 3 -10 7 -8
11 10 15 35 10 57 7 33 -3 -13 -6 -7 -7 20 -2 22 4 59 6 82 6 24 -1 41 1 39 5
-2 3 8 7 22 8 46 3 92 15 92 24 0 9 -16 7 -139 -17 -40 -8 -78 -14 -85 -13
-38 4 444 102 659 134 145 21 286 38 555 65 529 53 1321 25 1835 -66 365 -65
610 -121 922 -213 150 -44 237 -74 501 -169 61 -22 77 -24 93 -14 17 11 23 8
50 -23 17 -19 38 -35 47 -35 10 0 3 12 -21 36 -20 20 -34 41 -31 46 3 4 14 -2
24 -14 10 -13 22 -20 26 -15 4 4 0 15 -9 24 -16 16 -16 18 4 29 19 10 26 6 54
-25 19 -20 37 -32 42 -28 4 5 1 14 -7 20 -8 7 -23 22 -33 34 -18 21 -18 21 13
36 16 9 28 12 26 8 -6 -9 48 -61 63 -61 17 0 13 8 -21 40 -17 17 -29 32 -26
35 3 3 11 -1 18 -10 7 -8 20 -15 29 -15 13 1 11 5 -7 20 -23 19 -23 19 -2 30
16 9 24 8 36 -5 8 -8 20 -15 25 -15 15 0 10 20 -6 26 -8 4 -12 10 -9 15 3 5
19 -7 36 -26 16 -19 37 -35 47 -35 14 1 13 3 -4 18 -11 10 -29 29 -40 42 l-20
24 25 -17 c34 -23 50 -21 22 3 l-23 19 32 16 c17 9 29 12 25 7 -7 -12 22 -38
31 -28 4 3 1 12 -5 18 -7 7 -12 17 -12 22 0 6 7 0 16 -13 12 -17 19 -20 28
-11 8 8 6 15 -8 26 -11 8 -15 14 -10 14 5 0 34 -25 64 -55 30 -30 50 -55 45
-55 -12 0 128 -142 227 -230 42 -38 71 -71 65 -74 -7 -2 12 -28 45 -60 31 -31
53 -56 48 -56 -4 0 -29 23 -56 50 -27 28 -55 50 -63 50 -8 0 11 -26 42 -57 31
-31 54 -59 51 -62 -2 -3 -12 5 -20 18 -12 16 -19 20 -27 12 -8 -8 -8 -14 1
-23 7 -7 12 -16 12 -20 0 -4 -16 10 -36 32 -20 22 -41 37 -47 33 -6 -4 -3 -12
9 -22 10 -9 28 -28 39 -41 l20 -25 -25 20 c-14 11 -31 28 -38 38 -13 17 -32
23 -32 10 0 -5 14 -22 30 -40 36 -38 40 -56 6 -24 -13 12 -26 19 -29 14 -12
-19 66 -80 218 -170 326 -193 639 -413 915 -643 223 -186 515 -463 705 -670
273 -296 407 -457 585 -705 76 -106 88 -122 145 -205 32 -47 74 -106 92 -132
18 -26 33 -50 33 -53 0 -2 20 -35 44 -72 91 -141 209 -349 208 -366 0 -10 4
-15 10 -11 5 4 4 -4 -3 -17 -11 -22 -11 -23 4 -10 10 7 17 10 18 5 0 -5 2 -19
3 -31 2 -18 0 -20 -11 -12 -9 8 -17 8 -27 0 -11 -10 -15 -8 -20 6 -9 28 -3
102 8 96 5 -3 6 -1 2 5 -4 6 -13 9 -20 6 -15 -6 -85 98 -106 158 -8 21 -18 34
-24 31 -6 -3 -8 -3 -4 2 11 11 -83 183 -124 229 -10 11 -18 26 -18 33 0 16
-60 111 -119 188 -25 33 -52 72 -60 88 -8 15 -19 27 -25 27 -6 0 -6 -4 1 -11
6 -6 9 -18 6 -27 -5 -11 -3 -13 7 -7 10 6 12 4 6 -11 -4 -10 -4 -15 0 -11 9 9
33 -23 34 -44 0 -8 9 -25 19 -36 30 -31 63 -97 51 -101 -15 -5 -12 -38 5 -52
8 -7 15 -21 15 -31 0 -12 6 -17 20 -14 24 5 37 -13 15 -21 -18 -7 -75 41 -75
63 0 7 -11 23 -25 35 -14 12 -25 28 -25 35 0 7 -6 13 -12 13 -9 0 -8 4 2 10
16 10 15 11 -29 14 -8 1 -17 10 -21 20 -5 15 -9 16 -14 7 -5 -7 -3 -18 3 -24
6 -6 11 -18 11 -27 -1 -8 -9 0 -18 18 -10 18 -20 31 -22 28 -3 -2 -6 8 -7 22
l-1 27 14 -25 c7 -14 13 -21 14 -17 0 16 -21 47 -29 42 -5 -2 -14 2 -21 11
-11 12 -15 12 -21 2 -7 -10 -11 -10 -21 1 -11 11 -11 14 0 18 10 4 10 8 0 21
-11 13 -10 15 5 9 17 -6 23 4 10 17 -5 4 -8 12 -8 17 0 5 -4 9 -10 9 -5 0 -9
-17 -8 -37 1 -26 -1 -32 -8 -22 -13 20 -11 2 2 -24 11 -21 10 -21 -7 -5 -15
15 -16 21 -6 43 7 15 8 24 2 20 -6 -3 -18 7 -28 24 -9 17 -21 31 -25 31 -5 0
-6 4 -3 9 3 5 -1 11 -9 15 -21 8 -18 -11 5 -34 29 -29 43 -69 30 -85 -8 -10
-5 -17 12 -29 12 -9 18 -16 13 -16 -6 0 -3 -5 5 -10 8 -5 20 -10 25 -10 6 0 4
4 -4 9 -7 5 -9 11 -4 14 6 4 16 -6 22 -20 10 -22 14 -24 22 -12 5 9 9 9 9 2 0
-6 -5 -15 -10 -18 -8 -5 -7 -12 2 -23 7 -9 -1 -5 -19 7 -17 13 -36 20 -43 16
-7 -4 -10 0 -8 11 2 13 -3 19 -14 18 -10 -1 -15 3 -12 8 3 5 -5 21 -17 35 -13
15 -18 23 -10 18 10 -5 12 -4 7 4 -4 6 -12 9 -17 6 -17 -11 -69 28 -69 51 0
27 -27 39 -49 22 -14 -12 -14 -11 -2 5 12 15 11 17 -3 17 -10 0 -15 4 -12 9 3
5 -1 11 -9 15 -8 3 -15 13 -15 21 0 14 5 13 30 -5 17 -12 30 -17 30 -11 0 6
-5 11 -10 11 -7 0 -7 7 0 22 11 22 10 22 -4 4 -13 -16 -18 -17 -31 -6 -8 7
-12 17 -8 23 4 6 0 8 -9 4 -12 -4 -17 3 -22 24 -4 21 -10 28 -18 23 -7 -4 -10
-4 -6 1 4 4 3 16 -3 27 -6 11 -8 22 -5 25 3 3 10 -5 15 -18 5 -13 10 -17 10
-9 1 8 -13 31 -29 50 -16 19 -30 41 -30 48 0 7 -5 10 -12 6 -7 -4 -8 -3 -4 4
10 16 -23 83 -37 75 -6 -3 -7 -1 -3 5 4 6 -9 27 -28 47 -36 37 -46 42 -46 24
0 -5 5 -7 12 -3 7 5 8 3 3 -5 -10 -17 -47 23 -39 42 3 8 1 18 -5 22 -6 3 -11
-2 -12 -12 0 -16 -1 -16 -8 2 -5 11 -7 23 -5 26 2 4 -3 10 -12 13 -8 3 -12 2
-9 -4 3 -6 1 -10 -4 -10 -6 0 -11 7 -11 16 0 10 -5 14 -16 10 -10 -4 -13 -2
-7 7 13 20 12 36 -3 48 -8 6 -14 17 -14 25 0 18 -17 27 -26 13 -4 -8 -3 -9 4
-5 7 4 12 1 12 -8 0 -8 7 -22 16 -30 14 -15 14 -16 -5 -16 -24 0 -54 41 -46
63 4 8 1 18 -6 23 -8 5 -10 3 -4 -7 5 -8 4 -11 -1 -6 -5 5 -9 12 -9 15 0 4 -4
13 -9 21 -6 9 -5 12 2 7 19 -11 19 19 0 43 -14 19 -16 26 -6 33 10 6 10 8 0 8
-7 0 -26 23 -43 50 -17 28 -34 50 -39 50 -4 0 -13 14 -19 30 -5 17 -15 30 -20
30 -6 0 -8 7 -5 15 6 14 -3 15 -44 6 -8 -2 28 -31 37 -31 6 0 11 -9 11 -19 0
-11 5 -21 10 -23 6 -2 12 -13 13 -26 0 -12 4 -22 7 -22 4 0 6 -10 4 -22 -1
-13 -3 -29 -3 -35 -1 -19 -21 -16 -28 4 -4 10 -11 21 -17 25 -5 4 -10 19 -11
35 0 21 -5 28 -20 28 -11 0 -25 -3 -32 -8 -7 -5 -17 1 -27 15 -9 12 -16 18
-16 13 0 -4 -12 2 -27 16 -14 13 -23 19 -19 12 8 -14 -10 -28 -18 -14 -7 10
-66 -15 -66 -28 0 -4 9 -17 20 -29 35 -38 15 -69 -23 -35 -48 43 -178 115
-197 110 -11 -3 -22 -1 -25 4 -3 5 -21 16 -39 24 -18 9 -39 27 -46 40 -12 23
-53 41 -69 31 -12 -8 -37 44 -25 52 17 12 10 36 -13 42 -33 8 -63 37 -57 55 5
13 60 22 97 16 4 0 7 4 7 9 0 6 -11 10 -25 10 -14 0 -26 3 -26 8 -9 49 -8 50
27 36 36 -15 66 -19 49 -6 -5 4 -10 16 -9 27 0 11 -4 26 -9 33 -11 14 -31 17
-22 2 3 -5 1 -10 -4 -10 -6 0 -11 4 -11 9 0 5 -9 13 -20 16 -11 4 -18 10 -16
14 3 4 0 23 -6 43 -9 30 -20 39 -84 69 -41 18 -74 37 -74 41 0 18 -39 7 -45
-13 -4 -13 -12 -18 -22 -15 -9 4 -21 -1 -28 -10 -15 -21 -51 -28 -61 -12 -5 7
-2 8 7 3 8 -4 1 4 -16 19 -16 14 -39 28 -50 32 -11 4 -23 12 -27 18 -6 8 -11
6 -18 -4 -9 -13 -12 -13 -21 3 -7 11 -22 17 -49 17 -22 0 -40 4 -40 9 0 8 -37
24 -52 22 -4 0 -10 8 -13 19 -3 10 -15 22 -26 25 -10 4 -17 10 -14 15 3 5 27
0 53 -11 69 -30 122 -48 117 -39 -3 5 -2 10 2 13 5 2 2 2 -4 1 -7 -2 -13 1
-13 6 0 5 -7 6 -17 3 -10 -4 -14 -2 -10 5 5 6 -14 17 -50 27 -32 9 -63 22 -68
28 -16 19 -53 37 -74 37 -10 0 -24 7 -31 15 -10 12 -6 13 27 8 21 -3 40 -10
41 -15 6 -15 79 -9 79 6 0 8 -3 14 -6 13 -20 -5 -51 27 -51 53 0 33 -8 40 -53
46 -18 2 -37 11 -44 20 -7 9 -19 14 -27 11 -8 -3 -29 -1 -46 6 -25 9 -33 9
-39 -2 -7 -11 -15 -11 -45 -1 -50 16 -69 6 -24 -14 20 -9 39 -20 42 -24 3 -5
19 -7 36 -4 16 2 30 0 30 -6 0 -15 -20 -19 -75 -15 -27 2 -63 3 -80 3 -23 0
-26 2 -15 9 8 6 11 13 7 17 -3 4 -13 2 -20 -4 -10 -9 -16 -9 -25 0 -6 6 -28
14 -49 17 -21 4 -37 10 -35 15 4 13 -61 34 -69 23 -4 -5 -13 -6 -20 -2 -17 11
-123 6 -127 -6 -5 -13 -22 -11 -22 4 -1 21 -110 121 -121 110 -7 -7 2 -21 28
-45 21 -19 47 -45 58 -59 10 -13 -8 2 -42 35 -33 32 -67 56 -73 54 -10 -3 -9
-7 1 -18 8 -8 34 -37 58 -65 40 -45 38 -44 -17 10 -33 33 -66 61 -72 63 -7 2
-21 13 -31 25 -12 16 -21 19 -28 11 -8 -7 -4 -16 13 -31 13 -12 26 -20 28 -17
6 6 124 -120 132 -141 6 -15 4 -16 -10 -5 -13 12 -17 11 -25 -1 -5 -8 -9 -10
-9 -6 0 5 -10 1 -22 -7 -24 -17 -42 -21 -34 -8 3 5 -20 33 -50 63 -30 29 -52
59 -50 66 7 18 -28 58 -43 49 -15 -10 4 -36 26 -36 10 0 12 -4 4 -17 -7 -14
-4 -24 11 -40 12 -13 17 -23 12 -23 -11 0 -39 41 -36 53 1 4 -2 7 -7 7 -5 0
-11 -8 -14 -17 -2 -11 16 -39 47 -73 l51 -55 -55 51 c-61 57 -82 68 -98 52 -8
-8 -17 -4 -31 13 -15 18 -22 21 -31 12 -10 -9 -7 -14 9 -25 25 -15 27 -28 6
-28 -8 0 -15 -4 -15 -8 0 -5 -6 -9 -14 -9 -8 0 -14 5 -13 10 3 12 -30 33 -39
24 -4 -4 3 -19 17 -33 13 -14 20 -25 14 -24 -28 6 -38 0 -25 -15 7 -8 15 -13
19 -10 4 2 29 -18 56 -45 28 -29 41 -48 31 -46 -9 1 -41 26 -70 55 -31 30 -59
50 -65 46 -6 -3 -10 -1 -9 5 4 14 -28 37 -38 27 -4 -4 29 -42 73 -84 44 -43
52 -52 17 -20 -43 39 -67 55 -79 51 -13 -5 -14 -8 -3 -15 7 -5 8 -9 2 -9 -6 0
-21 11 -34 25 -12 13 -28 22 -34 18 -6 -3 -8 -2 -3 2 4 5 0 16 -9 26 -15 17
-18 17 -40 2 -13 -8 -21 -20 -17 -26 12 -20 -20 6 -54 44 -21 23 -40 36 -49
32 -13 -5 -13 -8 2 -24 9 -10 21 -16 27 -12 5 3 7 2 4 -3 -3 -6 10 -25 28 -43
29 -28 37 -31 54 -21 12 6 21 8 21 6 0 -3 -14 -13 -31 -22 -17 -8 -29 -11 -25
-6 3 5 -3 17 -13 26 -33 30 -36 -2 -5 -37 16 -17 22 -26 13 -19 -9 6 -20 8
-24 4 -5 -4 -5 -2 -2 4 8 14 -26 47 -38 37 -4 -5 -5 -3 -1 4 3 6 -3 18 -16 27
-12 9 -19 19 -15 22 4 4 15 -4 25 -16 11 -14 24 -20 31 -16 9 6 2 19 -24 44
-31 31 -34 38 -21 48 13 9 13 12 -1 27 -15 15 -19 14 -45 -5 -16 -11 -30 -19
-31 -17 -1 2 -12 16 -25 30 -17 20 -19 26 -7 26 8 0 13 -3 10 -5 -3 -3 2 -14
11 -23 16 -18 18 -18 45 2 l28 20 37 -40 c20 -23 41 -38 47 -34 5 3 7 1 4 -4
-4 -6 2 -18 12 -27 18 -17 20 -16 30 1 6 10 11 15 11 10 0 -4 12 0 26 9 22 15
23 19 11 32 -12 11 -19 11 -36 3 -11 -7 -21 -9 -21 -7 0 3 14 12 30 21 19 10
29 11 28 4 -4 -14 29 -36 38 -26 4 4 -8 23 -26 42 -23 23 -37 32 -44 25 -5 -5
-14 -10 -20 -10 -5 0 -1 6 9 14 16 12 17 16 6 30 -7 9 -18 13 -24 9 -5 -3 -7
-1 -4 4 4 6 -2 18 -12 27 -33 30 -36 -2 -5 -37 l29 -32 -36 33 c-19 18 -39 29
-44 25 -4 -5 -5 -3 -1 4 3 6 -4 19 -16 27 -12 9 -18 16 -14 16 5 0 17 -7 27
-16 21 -18 46 -10 30 10 -8 9 -7 13 4 13 8 0 12 -4 9 -9 -9 -14 15 -9 42 8 23
15 23 18 9 34 -12 14 -13 20 -4 26 7 4 10 3 6 -2 -9 -16 62 -79 74 -67 8 8 5
15 -8 24 -10 8 -27 25 -38 39 l-20 25 27 -23 c16 -15 28 -20 33 -13 3 6 11 11
18 11 6 0 3 -6 -7 -13 -17 -12 -17 -14 -1 -27 13 -11 18 -11 24 -1 5 7 11 12
15 12 25 -4 28 2 7 20 -13 11 -21 22 -18 26 4 3 15 -5 26 -18 15 -18 22 -21
31 -13 9 9 7 15 -7 25 -10 8 -27 25 -38 39 l-20 25 23 -19 c18 -16 26 -17 48
-8 15 7 22 17 18 24 -4 7 -3 8 4 4 22 -14 34 5 16 25 -25 27 -8 37 19 11 18
-17 26 -19 35 -10 8 8 16 5 31 -13 15 -18 22 -21 31 -13 9 9 7 15 -7 25 -34
26 -55 57 -43 64 6 3 9 1 8 -5 -4 -15 28 -37 38 -27 4 4 -1 17 -12 29 -19 23
-18 23 8 0 15 -14 28 -19 32 -13 4 5 -3 16 -14 24 -18 13 -19 15 -5 21 9 3 14
2 11 -2 -8 -14 59 -71 73 -63 10 7 9 11 -5 22 -11 8 -27 24 -37 36 -18 21 -18
22 5 33 20 10 21 9 6 -3 -13 -10 -15 -16 -6 -25 15 -15 42 -16 33 -2 -3 5 0 7
8 4 25 -9 29 14 6 30 -21 14 -21 14 10 30 17 9 31 20 31 25 0 16 -122 141
-132 135 -12 -8 10 -34 29 -34 8 0 12 -4 9 -9 -3 -4 4 -17 15 -27 12 -10 25
-28 30 -39 9 -18 9 -19 -4 -2 -8 9 -19 17 -26 17 -6 0 -11 6 -11 14 0 14 -29
30 -38 21 -3 -3 10 -22 29 -42 19 -21 24 -29 11 -19 -27 23 -41 13 -23 -17
l14 -22 -24 20 c-13 11 -32 30 -42 43 -34 41 -49 52 -59 45 -7 -4 -5 -12 8
-23 10 -9 35 -34 54 -56 l35 -39 -39 35 c-22 19 -48 44 -57 55 -13 15 -20 17
-29 9 -9 -9 -7 -15 7 -26 10 -7 34 -32 53 -53 l35 -40 -41 38 c-24 22 -44 34
-48 29 -3 -6 2 -17 11 -24 10 -7 25 -22 33 -33 14 -19 14 -19 -4 -5 -25 19
-57 51 -76 76 -14 19 -14 19 7 1 12 -10 24 -14 27 -9 3 5 -1 15 -9 22 -13 10
-21 10 -43 1 -27 -13 -27 -13 -7 -30 11 -10 36 -35 55 -57 l35 -39 -40 35
c-21 19 -45 43 -53 53 -14 17 -32 23 -32 9 0 -4 15 -23 33 -42 18 -19 38 -44
46 -55 7 -11 -11 5 -41 36 -32 33 -60 54 -67 50 -7 -5 7 -24 39 -55 28 -26 47
-52 44 -58 -4 -5 -30 13 -58 41 -49 48 -76 63 -76 41 0 -5 -3 -9 -7 -9 -22 4
-24 -3 -8 -21 20 -22 37 -18 28 8 -8 19 -8 19 57 -54 l35 -39 -41 38 c-41 39
-70 40 -34 2 16 -17 17 -22 6 -22 -8 0 -13 3 -11 7 7 11 -64 72 -75 65 -8 -5
7 -27 42 -64 l53 -56 -55 53 c-50 47 -92 70 -74 40 4 -7 3 -8 -4 -4 -22 14
-34 -5 -16 -25 13 -15 20 -16 31 -8 7 7 14 10 16 8 1 -2 18 -22 37 -44 l35
-40 -41 38 c-47 43 -67 38 -27 -7 l28 -31 -34 30 c-19 17 -43 39 -52 50 -13
15 -20 17 -29 9 -9 -9 -7 -15 7 -26 10 -7 34 -32 53 -53 23 -27 16 -22 -22 14
-54 51 -59 54 -84 42 l-27 -12 28 -29 c40 -42 24 -37 -18 5 -19 19 -46 35 -59
36 l-23 0 23 9 c33 14 27 25 -15 25 -21 1 -55 5 -75 9 -24 5 -38 5 -38 -2 0
-5 16 -13 35 -16 19 -4 35 -11 35 -15 0 -11 -91 8 -108 22 -10 8 -16 7 -21 -1
-11 -17 -81 -28 -81 -13 0 8 -11 10 -35 5 -21 -4 -35 -2 -35 4 0 6 -24 14 -52
18 l-53 8 40 7 c28 4 32 7 14 8 -15 0 -29 8 -33 16 -3 8 -13 15 -21 15 -9 0
-13 -4 -10 -10 4 -6 -7 -8 -27 -5 l-33 5 35 -14 c25 -10 29 -15 15 -15 -17 -1
-18 -3 -5 -12 11 -8 5 -9 -25 -4 -152 25 -198 33 -182 34 31 2 18 17 -15 18
-55 1 -171 21 -177 31 -3 5 -24 9 -46 9 -22 0 -65 3 -95 6 -30 3 -80 6 -110 7
-42 0 -50 3 -35 10 13 6 -16 8 -85 6 -73 -2 -88 -1 -50 4 46 6 49 7 17 8 -20
1 -45 7 -55 13 -14 9 -29 7 -65 -9 -34 -15 -54 -19 -70 -12 -22 9 -22 9 3 10
14 0 32 5 40 11 11 8 3 9 -30 5 -33 -4 -39 -3 -23 4 36 15 141 13 238 -4 50
-9 149 -18 220 -20 72 -3 139 -8 150 -12 l20 -6 -20 14 c-23 17 -72 28 -160
33 -45 3 -54 2 -35 -5 22 -9 21 -9 -9 -5 -18 3 -45 5 -60 6 -23 0 -24 1 -6 8
11 5 27 6 35 3 13 -5 13 -4 0 13 -8 10 -10 16 -3 12 6 -4 60 -8 120 -8 68 -1
111 -5 116 -13 6 -7 7 -6 4 4 -2 11 -23 17 -68 21 -35 3 -80 9 -99 13 -26 5
-31 4 -20 -3 12 -9 11 -11 -7 -11 -13 0 -23 4 -23 9 0 5 -13 9 -30 9 -16 -1
-30 -5 -30 -10 0 -4 -11 -8 -25 -8 -14 0 -25 5 -25 11 0 7 -10 9 -27 4 -43
-11 -114 -15 -154 -9 -30 4 -36 9 -32 25 4 14 0 19 -13 19 -16 0 -17 -2 -4
-11 11 -8 -7 -9 -65 -5 -44 2 -69 1 -55 -3 l25 -7 -25 -7 c-37 -10 -70 -8 -70
3 0 6 -7 10 -15 10 -20 0 -19 -20 3 -37 16 -14 16 -14 -1 -9 -10 3 -37 6 -58
6 -24 0 -38 4 -34 10 3 6 0 10 -7 11 -7 1 -2 5 12 9 23 7 23 8 -10 10 -19 2
19 7 85 12 66 5 127 10 135 11 8 2 38 7 65 11 83 12 95 16 95 30 0 11 -8 12
-42 4 -76 -17 -88 -19 -88 -8 0 5 9 10 21 10 11 0 17 5 14 10 -3 6 -32 11 -63
11 -31 1 -47 4 -34 6 12 2 22 10 22 18 0 7 6 16 13 18 7 3 5 6 -5 6 -10 1 -18
6 -18 12 0 5 4 8 9 4 5 -3 12 -1 16 5 3 6 52 10 113 11 59 0 116 4 127 9 25
11 28 10 -88 24 -78 9 -96 9 -92 -1 2 -7 -2 -13 -10 -13 -8 0 -15 5 -15 11 0
7 -24 10 -67 9 -124 -4 -184 0 -178 10 3 6 18 10 33 11 l27 1 -27 10 c-38 13
-35 30 5 28 17 -1 41 -1 52 0 31 4 -73 21 -140 23 -59 2 -297 -17 -345 -28
-21 -4 -22 -4 -5 3 38 17 -32 23 -185 16 -80 -4 -170 -8 -200 -9 -30 -1 -98
-8 -150 -15 -52 -7 -120 -14 -150 -15 -30 -2 -64 -6 -74 -11 -13 -5 -21 -3
-24 5 -2 7 -8 8 -15 3 -7 -5 -32 -12 -57 -15 -25 -4 -61 -9 -80 -12 -28 -4
-31 -3 -15 5 15 7 8 9 -30 5 -27 -3 -70 -6 -95 -7 -27 -1 -50 -8 -58 -17 -12
-14 -13 -14 -9 -1 4 14 -5 15 -84 4 -94 -13 -107 -13 -127 0 -19 11 -30 -3
-12 -15 12 -8 11 -9 -5 -5 -11 3 -37 8 -59 12 -25 4 -34 9 -25 14 13 7 318 69
367 74 12 2 25 5 28 9 3 3 22 3 42 0 28 -3 33 -2 22 6 -8 6 -12 11 -8 11 4 0
40 4 80 10 40 5 100 12 133 15 33 3 74 7 92 10 105 16 107 17 92 26 -10 6 -4
9 21 10 19 0 29 3 21 6 -15 6 -180 -15 -196 -26 -13 -8 -205 -8 -205 0 0 7
-30 4 -53 -6 -13 -5 -15 -10 -7 -15 6 -4 -7 -10 -31 -14 -53 -9 -77 10 -25 19
20 4 36 11 36 16 0 6 10 14 23 19 12 5 16 9 9 9 -7 1 -11 5 -8 9 8 13 -89 4
-158 -14 -32 -9 -70 -13 -85 -10 l-26 6 28 -15 c15 -9 27 -19 27 -23 -1 -22
-23 -34 -66 -37 l-49 -2 37 16 c21 9 38 19 38 24 0 10 -38 9 -45 -3 -3 -5 -25
-9 -49 -8 -25 0 -59 -8 -82 -20 -22 -11 -78 -25 -126 -31 -48 -7 -95 -14 -103
-17 -8 -4 -15 -2 -15 4 0 6 12 15 28 20 54 20 -12 12 -158 -19 -166 -36 -226
-45 -195 -29 l20 10 -20 -3 c-16 -2 -21 -11 -23 -44 -3 -36 0 -42 20 -46 l23
-4 -22 -2 -23 -1 0 -1870 0 -1870 4286 0 4286 0 -5 23 c-2 12 -8 31 -12 42 -5
16 -3 15 13 -5 12 -14 19 -26 17 -29 -2 -2 2 -10 10 -17 11 -11 56 -14 209
-14 l196 0 0 2530 0 2530 -4500 0 -4500 0 0 -599z m663 -558 c-7 -2 -21 -2
-30 0 -10 3 -4 5 12 5 17 0 24 -2 18 -5z m267 -3 c0 -5 -7 -10 -16 -10 -8 0
-12 5 -9 10 3 6 10 10 16 10 5 0 9 -4 9 -10z m-467 -61 c-4 -14 -12 -19 -24
-16 -10 3 -19 1 -21 -5 -2 -5 -10 -10 -18 -12 -8 -2 -23 -6 -32 -10 -9 -4 -25
-6 -35 -3 -14 4 -13 5 5 6 12 0 22 6 22 12 0 7 -10 9 -27 4 -16 -3 -48 -10
-73 -14 -25 -5 -34 -9 -21 -10 13 0 22 -4 18 -7 -3 -4 -18 -3 -33 0 -42 11
-18 22 91 41 55 10 104 22 110 27 5 4 17 8 26 8 12 0 16 -6 12 -21z m62 7
c-11 -8 -24 -12 -29 -8 -5 3 -1 9 10 13 31 12 39 10 19 -5z m1408 7 c-7 -2
-19 -2 -25 0 -7 3 -2 5 12 5 14 0 19 -2 13 -5z m-1628 -86 c17 -13 16 -14 -6
-11 -13 1 -33 3 -44 4 l-20 1 20 9 c28 12 29 12 50 -3z m73 6 c-10 -2 -28 -2
-40 0 -13 2 -5 4 17 4 22 1 32 -1 23 -4z m262 -9 c0 -2 -7 -4 -15 -4 -8 0 -15
4 -15 10 0 5 7 7 15 4 8 -4 15 -8 15 -10z m197 10 c-3 -3 -12 -4 -19 -1 -8 3
-5 6 6 6 11 1 17 -2 13 -5z m-382 -24 c3 -5 -1 -10 -10 -10 -9 0 -13 5 -10 10
3 6 8 10 10 10 2 0 7 -4 10 -10z m2030 -40 c3 -5 2 -10 -4 -10 -5 0 -13 5 -16
10 -3 6 -2 10 4 10 5 0 13 -4 16 -10z m105 -20 c0 -5 -4 -10 -9 -10 -6 0 -13
5 -16 10 -3 6 1 10 9 10 9 0 16 -4 16 -10z m-24 -22 c4 -6 3 -8 -4 -4 -5 3
-12 0 -15 -6 -3 -10 -7 -10 -19 -1 -8 7 -19 9 -23 5 -5 -4 -5 -1 -1 6 9 15 52
16 62 0z m84 -18 c8 -5 11 -10 5 -10 -5 0 -17 5 -25 10 -8 5 -10 10 -5 10 6 0
17 -5 25 -10z m-303 -76 c-3 -3 -12 -4 -19 -1 -8 3 -5 6 6 6 11 1 17 -2 13 -5z
m308 -14 c3 -5 2 -10 -4 -10 -5 0 -13 5 -16 10 -3 6 -2 10 4 10 5 0 13 -4 16
-10z m-252 -7 c-7 -2 -19 -2 -25 0 -7 3 -2 5 12 5 14 0 19 -2 13 -5z m557 -3
c22 -7 21 -8 -12 -9 -20 -1 -40 4 -43 9 -7 12 19 12 55 0z m-77 -7 c-7 -2 -21
-2 -30 0 -10 3 -4 5 12 5 17 0 24 -2 18 -5z m-570 -10 c-7 -2 -19 -2 -25 0 -7
3 -2 5 12 5 14 0 19 -2 13 -5z m192 -13 c-3 -5 2 -10 12 -11 10 0 13 -3 6 -6
-7 -2 -23 3 -35 11 l-22 16 22 0 c13 0 20 -4 17 -10z m145 -9 c0 -6 -4 -13
-10 -16 -5 -3 -10 -2 -10 4 0 5 -17 12 -37 14 -35 3 -34 4 10 5 26 1 47 -2 47
-7z m523 -8 c-7 -2 -21 -2 -30 0 -10 3 -4 5 12 5 17 0 24 -2 18 -5z m-570 -10
c-7 -2 -21 -2 -30 0 -10 3 -4 5 12 5 17 0 24 -2 18 -5z m3132 -75 c22 -23 29
-34 15 -23 -14 11 -29 26 -33 33 -4 6 -15 12 -23 12 -8 0 -12 5 -9 10 8 14 6
15 50 -32z m-2878 -44 c-3 -3 -12 -4 -19 -1 -8 3 -5 6 6 6 11 1 17 -2 13 -5z
m110 -20 c-3 -3 -12 -4 -19 -1 -8 3 -5 6 6 6 11 1 17 -2 13 -5z m660 0 c-3 -3
-12 -4 -19 -1 -8 3 -5 6 6 6 11 1 17 -2 13 -5z m-404 -57 c31 0 57 -4 57 -9 0
-4 7 -5 15 -2 11 5 13 2 9 -10 -5 -12 -2 -15 12 -9 13 5 16 3 11 -10 -4 -11
-1 -17 9 -17 8 0 12 -4 9 -10 -4 -6 6 -11 22 -11 23 -2 24 -2 6 -6 -25 -5 -30
-24 -10 -45 23 -25 19 -38 -9 -28 -66 25 -71 -3 -7 -35 36 -18 40 -23 32 -42
-5 -13 -17 -23 -28 -23 -11 0 -57 -9 -103 -21 -46 -11 -93 -21 -105 -23 -12
-2 -37 -12 -56 -24 -37 -21 -47 -20 -47 7 0 14 2 14 10 1 8 -13 10 -12 10 3 0
10 4 16 8 13 4 -2 9 10 10 27 3 39 34 69 88 85 52 15 47 16 78 -13 27 -25 76
-34 76 -15 0 6 -8 10 -18 10 -10 0 -25 9 -35 20 -10 12 -23 18 -30 14 -6 -4
-9 -4 -5 1 4 4 3 14 -2 20 -7 9 -24 10 -58 4 -87 -16 -219 -77 -204 -95 4 -4
-1 -2 -10 5 -10 7 -16 16 -15 19 1 4 -1 7 -5 7 -4 0 -24 17 -46 38 -21 20 -49
39 -61 42 -27 5 -41 15 -21 15 9 0 10 3 1 13 -8 11 -6 13 12 13 12 -1 21 4 20
11 -2 8 4 10 14 6 12 -5 14 -3 8 7 -5 8 -4 11 3 6 14 -8 83 25 75 37 -3 5 3 6
16 2 12 -4 21 -2 21 4 0 6 7 8 15 5 8 -4 15 -1 15 5 0 6 11 8 30 4 24 -4 29
-2 25 9 -5 12 2 13 47 5 29 -5 79 -10 111 -10z m1040 -120 c-3 -5 -29 15 -59
44 -29 29 -50 57 -47 62 3 5 29 -15 58 -44 29 -30 51 -58 48 -62z m36 72 c43
-51 36 -50 -14 1 -21 22 -35 40 -30 39 6 0 25 -18 44 -40z m246 21 c-3 -5 -12
-10 -18 -10 -7 0 -6 4 3 10 19 12 23 12 15 0z m-445 -14 c0 -5 8 -19 17 -30
14 -17 13 -16 -9 2 -32 29 -49 12 -22 -22 11 -12 5 -7 -12 11 -17 18 -37 33
-45 33 -11 0 -11 -2 1 -10 8 -5 11 -12 7 -16 -4 -5 18 -35 50 -68 l58 -61 -61
58 -61 59 -43 -22 -42 -22 28 -31 29 -32 -31 28 c-36 33 -38 33 -76 6 -16 -12
-32 -18 -35 -15 -4 3 -1 6 6 6 7 0 9 5 6 10 -3 6 1 10 9 10 8 0 18 5 22 11 5
9 -7 10 -42 5 -31 -3 -41 -3 -29 3 11 4 45 11 75 14 30 3 56 11 58 17 2 5 9 7
15 3 7 -3 8 -2 4 2 -12 14 -38 15 -30 2 5 -8 2 -8 -9 0 -8 7 -18 10 -21 6 -4
-3 -7 -1 -7 5 0 7 -8 12 -17 12 -15 0 -16 -2 -3 -10 18 -12 3 -12 -25 0 -18 7
-17 9 15 23 20 9 39 12 45 7 6 -5 31 -13 55 -19 38 -8 42 -8 28 3 -31 23 -20
32 37 32 30 0 55 -4 55 -10z m-1190 0 c0 -2 -7 -7 -16 -10 -8 -3 -12 -2 -9 4
6 10 25 14 25 6z m853 -3 c-7 -2 -19 -2 -25 0 -7 3 -2 5 12 5 14 0 19 -2 13
-5z m422 -53 c27 -27 47 -50 44 -50 -3 0 -27 23 -54 50 -27 28 -47 50 -44 50
3 0 27 -22 54 -50z m-615 15 c-46 -18 -59 -18 -36 0 11 8 31 15 45 14 24 0 23
-2 -9 -14z m885 5 c-3 -5 -12 -10 -18 -10 -7 0 -6 4 3 10 19 12 23 12 15 0z
m-390 -90 c27 -27 47 -50 44 -50 -3 0 -27 23 -54 50 -27 28 -47 50 -44 50 3 0
27 -22 54 -50z m115 25 c13 -14 21 -25 18 -25 -2 0 -15 11 -28 25 -13 14 -21
25 -18 25 2 0 15 -11 28 -25z m114 -24 c-2 -3 -12 3 -22 13 -16 17 -16 18 5 5
12 -7 20 -15 17 -18z m-1400 -32 c-5 -9 -17 -5 -41 14 -23 17 -2 27 22 11 14
-9 22 -20 19 -25z m1052 9 l29 -33 -32 29 c-31 28 -38 36 -30 36 2 0 16 -15
33 -32z m100 -10 l29 -33 -32 29 c-31 28 -38 36 -30 36 2 0 16 -15 33 -32z
m-149 -2 c-1 -6 3 -10 9 -9 14 3 47 -32 50 -52 1 -8 1 -15 0 -15 -1 0 -21 20
-44 43 -26 26 -37 44 -28 44 8 0 14 -5 13 -11z m-2 -56 c27 -27 47 -50 44 -50
-3 0 -27 23 -54 50 -27 28 -47 50 -44 50 3 0 27 -22 54 -50z m130 30 c10 -11
16 -20 13 -20 -3 0 -13 9 -23 20 -10 11 -16 20 -13 20 3 0 13 -9 23 -20z
m-470 0 c-3 -5 -14 -10 -23 -10 -15 0 -15 2 -2 10 20 13 33 13 25 0z m750 -43
c4 5 5 3 1 -4 -3 -6 2 -18 12 -25 29 -21 35 -37 12 -31 -26 7 -25 -5 2 -36 21
-24 21 -24 -8 2 -17 15 -34 24 -39 20 -4 -5 -6 -3 -2 2 8 14 -59 79 -72 70 -6
-3 -11 -4 -11 -1 0 3 9 10 20 16 15 8 20 8 18 -1 -4 -14 28 -36 38 -26 4 4 -3
19 -17 35 l-24 27 31 -28 c17 -15 34 -24 39 -20z m-797 21 c-6 -17 -36 -34
-44 -25 -4 4 1 14 12 22 23 18 37 19 32 3z m257 -18 c10 -11 16 -20 13 -20 -3
0 -13 9 -23 20 -10 11 -16 20 -13 20 3 0 13 -9 23 -20z m110 -20 c21 -22 37
-40 34 -40 -3 0 -23 18 -44 40 -21 22 -37 40 -34 40 3 0 23 -18 44 -40z m-145
5 c13 -14 21 -25 18 -25 -2 0 -15 11 -28 25 -13 14 -21 25 -18 25 2 0 15 -11
28 -25z m430 0 c13 -14 21 -25 18 -25 -2 0 -15 11 -28 25 -13 14 -21 25 -18
25 2 0 15 -11 28 -25z m-1100 5 c0 -5 -2 -10 -4 -10 -3 0 -8 5 -11 10 -3 6 -1
10 4 10 6 0 11 -4 11 -10z m646 -32 l29 -33 -32 29 c-31 28 -38 36 -30 36 2 0
16 -15 33 -32z m144 -3 c13 -14 21 -25 18 -25 -2 0 -15 11 -28 25 -13 14 -21
25 -18 25 2 0 15 -11 28 -25z m-275 -36 c24 -22 47 -40 52 -40 4 1 8 -3 8 -7
0 -4 16 -23 35 -41 32 -30 33 -31 5 -13 -16 11 -41 32 -54 46 -14 14 -30 26
-38 26 -7 0 -13 5 -13 11 0 5 -5 7 -12 3 -6 -4 -8 -3 -5 3 7 11 -16 37 -25 28
-2 -3 -5 2 -5 10 0 21 2 20 52 -26z m111 9 l29 -33 -32 29 c-31 28 -38 36 -30
36 2 0 16 -15 33 -32z m429 20 c5 4 6 2 2 -3 -3 -6 10 -26 29 -44 28 -28 36
-32 49 -21 9 7 18 10 21 7 3 -3 -9 -13 -26 -22 -18 -9 -30 -12 -26 -7 3 5 -3
17 -13 26 -30 27 -37 -1 -10 -32 l24 -27 -31 28 c-17 15 -33 25 -37 22 -4 -3
-5 -2 -2 2 3 3 -5 17 -17 30 -12 13 -18 23 -14 23 4 0 16 -10 26 -22 14 -17
21 -20 30 -12 9 9 7 15 -7 25 -11 8 -23 21 -28 29 -7 12 -6 13 7 3 8 -7 19 -9
23 -5z m-475 -23 c13 -14 21 -25 18 -25 -2 0 -15 11 -28 25 -13 14 -21 25 -18
25 2 0 15 -11 28 -25z m185 5 c10 -11 16 -20 13 -20 -3 0 -13 9 -23 20 -10 11
-16 20 -13 20 3 0 13 -9 23 -20z m1355 -25 c52 -6 206 -52 185 -56 -39 -7 -91
-5 -97 5 -5 8 -11 7 -20 -2 -6 -6 -21 -12 -31 -12 -11 0 -30 -11 -43 -26 -13
-14 -24 -20 -24 -15 0 6 -12 11 -26 11 -14 0 -32 7 -41 15 -8 8 -19 13 -24 10
-5 -4 -9 -1 -9 4 0 6 -5 11 -11 11 -5 0 -8 -4 -5 -9 4 -5 -2 -8 -11 -7 -10 2
-16 7 -14 12 1 5 7 8 12 7 5 -2 9 2 9 7 0 6 6 10 13 10 8 0 19 11 25 25 9 19
17 24 34 21 13 -3 48 -8 78 -11z m-1734 -62 c-5 -5 -66 54 -66 64 0 4 16 -8
35 -27 19 -18 33 -35 31 -37z m1323 -15 c50 -57 33 -46 -29 18 -30 32 -44 49
-30 38 14 -10 40 -35 59 -56z m-648 7 c3 2 5 -7 5 -20 0 -22 -9 -26 -12 -4 -3
22 -5 23 -15 9 -9 -13 -10 -13 -6 1 9 28 -13 40 -44 23 -16 -8 -29 -11 -29 -6
0 4 12 13 28 18 22 9 31 7 48 -8 11 -10 23 -16 25 -13z m539 10 c13 -14 19
-25 14 -25 -8 1 -50 50 -41 50 2 0 14 -11 27 -25z m-1062 -5 c7 -11 11 -20 9
-20 -2 0 -12 9 -22 20 -10 11 -14 20 -9 20 5 0 15 -9 22 -20z m1172 -67 c0 -8
-9 0 -50 45 l-45 47 48 -45 c26 -24 47 -45 47 -47z m-80 -10 c0 -8 -9 0 -50
45 l-45 47 48 -45 c26 -24 47 -45 47 -47z m-775 69 c-3 -3 2 -14 12 -24 9 -10
14 -20 12 -22 -2 -2 -14 9 -26 24 -16 20 -18 27 -7 27 8 0 12 -3 9 -5z m943
-17 c-3 -3 -9 2 -12 12 -6 14 -5 15 5 6 7 -7 10 -15 7 -18z m-1334 -34 c16
-17 33 -28 38 -25 4 3 8 -3 8 -12 0 -14 -6 -12 -32 12 -18 17 -44 41 -58 54
-19 17 -20 20 -5 12 11 -6 33 -24 49 -41z m470 34 c-10 -8 -23 -15 -28 -15 -6
0 -1 7 10 15 10 8 23 15 28 15 6 0 1 -7 -10 -15z m103 -35 c16 -20 18 -27 7
-27 -8 0 -12 3 -9 5 9 9 -27 42 -39 35 -6 -3 -8 -3 -4 2 4 4 2 15 -5 23 -10
13 -9 14 8 2 11 -7 30 -25 42 -40z m113 40 c-35 -24 -54 -31 -30 -11 14 11 30
21 35 21 6 0 3 -5 -5 -10z m243 -34 c3 4 4 -4 2 -17 -3 -13 3 -32 13 -43 17
-21 17 -21 -6 -2 -12 11 -20 26 -18 33 6 15 -10 18 -19 3 -9 -15 -22 -12 -29
6 -5 14 -4 15 8 5 23 -19 31 7 10 32 -18 21 -18 21 7 -1 14 -12 28 -19 32 -16z
m-562 -19 c8 8 4 15 -12 27 -13 9 -20 16 -15 16 4 0 18 -8 30 -17 20 -17 20
-19 5 -33 -18 -17 -43 -25 -35 -12 6 10 -28 45 -36 37 -2 -3 -5 2 -5 10 0 11
8 8 29 -12 20 -19 31 -24 39 -16z m232 -52 c4 3 3 0 -2 -6 -6 -8 -21 2 -46 30
-21 23 -42 38 -49 34 -6 -3 -8 -3 -4 2 4 4 2 15 -4 24 -7 9 13 -8 43 -37 30
-29 58 -50 62 -47z m148 48 c30 -33 30 -35 3 -10 -17 15 -33 25 -36 22 -2 -3
-5 2 -5 10 0 8 1 15 2 15 0 0 17 -17 36 -37z m1029 18 c4 6 11 5 19 -5 9 -11
9 -15 -1 -19 -9 -4 -8 -6 3 -6 9 -1 19 -8 23 -16 3 -8 12 -12 20 -9 12 5 60
-18 76 -36 3 -3 21 -16 41 -28 36 -22 78 -62 65 -62 -5 0 -21 9 -36 20 -16 11
-40 21 -54 22 -14 1 -26 5 -26 9 0 10 -49 29 -73 29 -17 -1 -13 -5 17 -19 23
-11 34 -21 27 -25 -16 -10 -73 3 -65 15 3 5 -2 9 -11 9 -9 0 -13 5 -10 10 3 6
-3 10 -14 10 -14 0 -19 5 -15 15 4 10 0 15 -10 15 -9 0 -19 7 -22 15 -4 8 -12
15 -20 15 -8 0 -14 5 -14 12 0 6 -7 19 -15 28 -15 16 -12 16 37 4 35 -10 54
-11 58 -3z m-1465 -31 c21 -22 37 -40 34 -40 -3 0 -23 18 -44 40 -21 22 -37
40 -34 40 3 0 23 -18 44 -40z m890 20 c10 -11 16 -20 13 -20 -3 0 -13 9 -23
20 -10 11 -16 20 -13 20 3 0 13 -9 23 -20z m-672 -35 c4 3 5 2 2 -2 -3 -3 5
-17 17 -30 12 -13 19 -23 15 -23 -7 0 -38 31 -77 76 l-25 29 31 -28 c17 -15
33 -25 37 -22z m212 2 c4 5 5 3 1 -4 -3 -6 3 -18 16 -27 12 -9 19 -19 15 -22
-4 -4 -15 4 -26 17 -15 18 -22 21 -31 13 -9 -9 -7 -15 7 -25 10 -8 32 -31 47
-51 16 -21 32 -36 36 -33 4 2 15 -4 24 -14 14 -16 14 -18 0 -18 -8 0 -32 19
-52 42 -22 24 -44 41 -55 39 -9 -1 -15 1 -12 6 7 11 -30 41 -40 33 -5 -5 -3 0
4 9 7 10 17 16 21 13 18 -11 21 18 4 38 -18 21 -18 21 7 -1 14 -12 29 -19 34
-15z m-1329 -5 c-17 -16 -18 -16 -5 5 7 12 15 20 18 17 3 -2 -3 -12 -13 -22z
m887 -7 c4 3 5 2 2 -2 -3 -3 0 -12 6 -20 24 -28 1 -11 -32 24 -18 21 -22 28
-8 15 14 -12 29 -20 32 -17z m162 25 c-2 -4 14 -23 35 -43 42 -38 48 -49 28
-44 -7 1 -12 -6 -12 -16 2 -13 -1 -15 -10 -7 -7 5 -17 6 -21 2 -5 -4 -5 -2 -2
4 4 6 -2 19 -12 28 -33 30 -36 -2 -5 -37 l29 -32 -36 33 c-19 18 -37 31 -40
30 -2 -2 3 3 11 10 8 7 14 18 13 23 -5 16 5 10 31 -18 19 -20 29 -24 37 -16 8
8 6 14 -8 25 -10 7 -28 25 -41 39 -16 19 -19 26 -8 26 8 0 13 -3 11 -7z m625
-77 c0 -8 -9 0 -50 45 l-45 47 48 -45 c26 -24 47 -45 47 -47z m-220 69 c0 -4
-14 -13 -30 -19 l-30 -11 52 -53 53 -52 -52 46 c-29 26 -57 47 -63 47 -5 0
-10 5 -10 12 0 6 3 9 6 5 3 -3 20 3 37 14 36 22 37 22 37 11z m-435 -12 c-3
-5 -12 -10 -18 -10 -7 0 -6 4 3 10 19 12 23 12 15 0z m481 -22 l29 -33 -32 29
c-31 28 -38 36 -30 36 2 0 16 -15 33 -32z m24 -75 c0 -8 -9 0 -50 45 l-45 47
48 -45 c26 -24 47 -45 47 -47z m-560 72 c0 -2 -10 -9 -22 -15 -22 -11 -22 -10
-4 4 21 17 26 19 26 11z m-354 -47 c9 -18 12 -34 7 -39 -5 -5 -18 10 -31 36
-16 34 -18 43 -6 38 8 -3 22 -19 30 -35z m1014 17 c13 -14 21 -25 18 -25 -2 0
-15 11 -28 25 -13 14 -21 25 -18 25 2 0 15 -11 28 -25z m-327 -44 c-2 -3 -16
8 -31 22 -16 15 -32 24 -37 20 -4 -5 -5 -2 -1 5 6 9 16 6 40 -15 18 -15 31
-30 29 -32z m142 -11 c33 -33 57 -60 54 -60 -2 0 -31 27 -64 60 -33 33 -57 60
-54 60 2 0 31 -27 64 -60z m1211 44 c18 -14 18 -14 -6 -3 -31 14 -36 19 -24
19 6 0 19 -7 30 -16z m-1394 -29 c2 3 5 -2 5 -10 0 -11 -8 -8 -29 12 -15 15
-28 29 -28 32 0 2 10 -5 23 -17 13 -12 26 -20 29 -17z m-188 -46 c4 6 12 11
19 11 6 0 1 -7 -11 -16 -13 -9 -24 -14 -25 -12 -1 2 -20 23 -42 48 l-40 45 46
-43 c29 -27 49 -40 53 -33z m126 66 c0 -2 -13 -11 -30 -20 -38 -19 -40 -11 -2
9 31 17 32 18 32 11z m411 -12 c13 -16 12 -17 -3 -4 -17 13 -22 21 -14 21 2 0
10 -8 17 -17z m-646 -1 c-9 -9 27 -42 38 -35 6 3 7 1 3 -5 -3 -6 3 -17 14 -25
11 -7 17 -16 14 -19 -5 -6 -22 9 -72 64 -17 19 -19 25 -7 25 8 0 13 -3 10 -5z
m267 -27 c2 3 5 -1 5 -9 0 -18 -24 -10 -31 11 -5 12 -4 13 7 5 8 -7 16 -10 19
-7z m-638 -19 c-6 -16 -24 -23 -24 -8 0 10 22 33 27 28 2 -2 1 -11 -3 -20z
m137 14 c24 -13 25 -30 2 -30 -22 1 -55 25 -46 33 9 10 21 9 44 -3z m644 -40
c27 -27 47 -50 44 -50 -3 0 -27 23 -54 50 -27 28 -47 50 -44 50 3 0 27 -22 54
-50z m-1036 -14 c23 -24 23 -26 5 -26 -23 0 -77 47 -69 61 8 12 33 -2 64 -35z
m226 14 c3 -6 -5 -10 -19 -10 -27 0 -41 14 -31 30 7 11 39 -2 50 -20z m635 19
c0 -5 -5 -7 -10 -4 -6 3 -13 0 -16 -8 -2 -7 -12 -14 -20 -14 -12 0 -9 5 7 18
27 21 39 24 39 8z m190 -86 c0 -8 -9 0 -50 45 l-45 47 48 -45 c26 -24 47 -45
47 -47z m-1756 34 c9 9 26 -16 25 -37 0 -10 -2 -11 -6 -2 -2 6 -11 12 -18 12
-8 0 -17 9 -20 20 -3 11 -11 20 -16 20 -6 0 -7 5 -3 11 4 8 11 4 18 -10 7 -12
15 -18 20 -14z m1230 11 c20 -9 23 -14 15 -25 -23 -26 -79 -9 -79 24 0 16 31
17 64 1z m461 -28 c21 -22 37 -40 34 -40 -3 0 -23 18 -44 40 -21 22 -37 40
-34 40 3 0 23 -18 44 -40z m-755 -4 c0 -21 -21 -31 -31 -15 -5 8 -3 17 4 21
18 12 27 10 27 -6z m507 1 c0 -7 -9 -13 -19 -13 -18 0 -18 1 -2 13 10 7 18 13
19 13 1 0 2 -6 2 -13z m223 -22 c19 -19 32 -35 29 -35 -3 0 -20 16 -39 35 -19
19 -32 35 -29 35 3 0 20 -16 39 -35z m-1505 -73 c-3 -13 -10 -20 -16 -16 -8 4
-7 9 2 15 10 6 10 13 1 34 -7 14 -12 34 -12 43 1 9 8 1 16 -18 8 -19 12 -45 9
-58z m1471 56 l29 -33 -32 29 c-31 28 -38 36 -30 36 2 0 16 -15 33 -32z m1861
26 c-3 -3 -12 -4 -19 -1 -8 3 -5 6 6 6 11 1 17 -2 13 -5z m-2076 -31 c13 -16
12 -17 -3 -4 -17 13 -22 21 -14 21 2 0 10 -8 17 -17z m144 -23 c21 -22 37 -40
34 -40 -3 0 -23 18 -44 40 -21 22 -37 40 -34 40 3 0 23 -18 44 -40z m41 8 l29
-33 -32 29 c-31 28 -38 36 -30 36 2 0 16 -15 33 -32z m-319 -30 c-4 -15 1 -30
16 -47 19 -21 20 -23 3 -13 -13 6 -29 7 -45 1 -21 -8 -29 -5 -55 21 -24 23
-27 30 -13 30 9 0 17 -4 17 -9 0 -5 14 -14 31 -20 43 -15 45 -14 24 9 -10 11
-23 17 -29 13 -6 -3 -7 -2 -3 2 4 5 15 10 25 11 9 2 18 8 20 13 7 21 14 11 9
-11z m248 2 c10 -11 16 -20 13 -20 -3 0 -13 9 -23 20 -10 11 -16 20 -13 20 3
0 13 -9 23 -20z m-340 -40 c37 -38 12 -41 -27 -3 -18 17 -32 24 -36 17 -9 -14
-102 -48 -109 -40 -4 3 -1 6 5 6 6 0 17 6 24 13 46 46 103 49 143 7z m-41 -25
c14 -11 16 -15 5 -15 -8 0 -38 -11 -67 -25 -46 -21 -53 -22 -50 -8 3 18 63 63
82 63 6 0 20 -7 30 -15z m2470 -20 c20 -8 36 -21 36 -28 0 -7 -3 -8 -8 -2 -4
6 -23 18 -42 27 -44 21 -35 23 14 3z m-2870 -14 c3 -5 -3 -11 -14 -14 -13 -3
-20 0 -20 9 0 15 26 19 34 5z m2803 3 c-3 -3 -12 -4 -19 -1 -8 3 -5 6 6 6 11
1 17 -2 13 -5z m53 -18 c0 -2 -9 -6 -20 -9 -11 -3 -18 -1 -14 4 5 9 34 13 34
5z m215 -6 c3 -6 -1 -7 -9 -4 -18 7 -21 14 -7 14 6 0 13 -4 16 -10z m-158 -16
c-3 -3 -12 -4 -19 -1 -8 3 -5 6 6 6 11 1 17 -2 13 -5z m-2282 -32 c-3 -3 -11
0 -18 7 -9 10 -8 11 6 5 10 -3 15 -9 12 -12z m2245 8 c13 -9 13 -10 0 -9 -8 0
-24 4 -35 9 l-20 9 20 0 c11 0 27 -4 35 -9z m-2280 -10 c0 -5 -4 -10 -10 -10
-5 0 -10 5 -10 10 0 6 5 10 10 10 6 0 10 -4 10 -10z m2380 0 c11 -7 7 -10 -17
-10 -17 0 -35 5 -38 10 -8 13 35 13 55 0z m49 -31 c-12 -8 -11 -12 4 -23 27
-21 21 -26 -29 -26 -40 0 -45 2 -34 15 11 13 8 15 -19 15 -23 0 -31 4 -31 18
0 17 5 18 46 12 32 -5 49 -3 57 5 8 8 13 9 16 3 2 -6 -3 -14 -10 -19z m-2234
1 c10 -11 16 -20 13 -20 -3 0 -13 9 -23 20 -10 11 -16 20 -13 20 3 0 13 -9 23
-20z m-1884 -77 c13 -16 12 -17 -3 -4 -10 7 -18 15 -18 17 0 8 8 3 21 -13z
m-70 -40 c13 -16 12 -17 -3 -4 -17 13 -22 21 -14 21 2 0 10 -8 17 -17z m1949
-3 c0 -15 -6 -20 -27 -19 -27 0 -27 1 -5 9 12 5 22 14 22 20 0 5 2 10 5 10 3
0 5 -9 5 -20z m-2019 -37 c13 -16 12 -17 -3 -4 -10 7 -18 15 -18 17 0 8 8 3
21 -13z m60 -10 c13 -16 12 -17 -3 -4 -17 13 -22 21 -14 21 2 0 10 -8 17 -17z
m1872 -23 c-4 -15 -14 -20 -38 -20 -68 0 -90 26 -27 33 20 2 44 4 54 5 11 2
15 -4 11 -18z m-1948 -10 c10 -11 16 -20 13 -20 -3 0 -13 9 -23 20 -10 11 -16
20 -13 20 3 0 13 -9 23 -20z m2021 8 c5 -8 2 -9 -11 -5 -9 4 -24 2 -31 -4 -14
-11 -20 1 -7 14 10 11 41 8 49 -5z m-1961 -18 c10 -11 16 -20 13 -20 -3 0 -13
9 -23 20 -10 11 -16 20 -13 20 3 0 13 -9 23 -20z m1760 10 c4 -6 -5 -10 -19
-10 -14 0 -26 5 -26 10 0 6 9 10 19 10 11 0 23 -4 26 -10z m-1920 -30 c10 -11
16 -20 13 -20 -3 0 -13 9 -23 20 -10 11 -16 20 -13 20 3 0 13 -9 23 -20z m56
-7 c13 -16 12 -17 -3 -4 -17 13 -22 21 -14 21 2 0 10 -8 17 -17z m84 -13 c10
-11 16 -20 13 -20 -3 0 -13 9 -23 20 -10 11 -16 20 -13 20 3 0 13 -9 23 -20z
m1775 8 c0 -9 4 -8 10 2 6 9 10 10 10 3 0 -18 -18 -26 -46 -19 -31 8 -31 26 1
26 14 0 25 -6 25 -12z m2610 2 c0 -5 -2 -10 -4 -10 -3 0 -8 5 -11 10 -3 6 -1
10 4 10 6 0 11 -4 11 -10z m85 -32 c7 -6 4 -14 -7 -22 -10 -7 -18 -19 -18 -26
0 -7 -10 -1 -21 14 -12 15 -27 25 -34 23 -6 -3 -12 1 -12 9 0 10 7 12 21 8 18
-6 19 -5 7 9 -12 15 -10 16 20 6 19 -7 39 -16 44 -21z m-4634 5 c13 -16 12
-17 -3 -4 -10 7 -18 15 -18 17 0 8 8 3 21 -13z m1402 -8 c18 -18 27 -22 30
-13 4 8 6 7 6 -4 1 -22 -9 -23 -35 -3 -24 18 -38 19 -28 3 5 -10 4 -10 -6 -1
-9 8 -16 7 -31 -5 -10 -8 -16 -19 -13 -24 7 -11 -8 -10 -26 2 -13 8 -9 15 4 8
3 -2 15 7 28 20 14 12 28 19 33 15 4 -5 5 0 2 10 -9 24 6 21 36 -8z m-1338 -5
c10 -11 16 -20 13 -20 -3 0 -13 9 -23 20 -10 11 -16 20 -13 20 3 0 13 -9 23
-20z m1815 9 c0 -5 5 -7 10 -4 6 3 10 1 10 -5 0 -15 -32 -9 -38 8 -2 6 1 12 7
12 6 0 11 -5 11 -11z m-1959 -26 c13 -16 12 -17 -3 -4 -10 7 -18 15 -18 17 0
8 8 3 21 -13z m1929 -14 c0 -10 -4 -19 -10 -19 -5 0 -10 12 -10 26 0 14 4 23
10 19 6 -3 10 -15 10 -26z m-580 -26 c0 -8 -38 17 -51 33 -9 11 -2 9 19 -6 17
-13 32 -25 32 -27z m3509 38 c18 -11 -1 -23 -26 -15 -10 3 -6 -2 10 -11 15 -8
27 -21 27 -27 0 -7 -5 -6 -15 2 -12 10 -16 8 -23 -10 -8 -21 -9 -22 -16 -5 -4
11 -2 22 6 27 12 7 5 12 -13 10 -4 -1 -5 8 -2 18 6 21 28 26 52 11z m-4788
-18 c13 -16 12 -17 -3 -4 -10 7 -18 15 -18 17 0 8 8 3 21 -13z m1782 -3 c-3
-12 -8 -19 -11 -16 -5 6 5 36 12 36 2 0 2 -9 -1 -20z m28 -23 c-8 -8 -11 -5
-11 9 0 27 14 41 18 19 2 -9 -1 -22 -7 -28z m2756 37 c-3 -3 -12 -4 -19 -1 -8
3 -5 6 6 6 11 1 17 -2 13 -5z m-4716 -21 c13 -16 12 -17 -3 -4 -10 7 -18 15
-18 17 0 8 8 3 21 -13z m210 0 c13 -16 12 -17 -3 -4 -17 13 -22 21 -14 21 2 0
10 -8 17 -17z m1359 5 c0 -7 -13 -22 -28 -33 l-26 -19 22 32 c25 35 32 39 32
20z m3565 -18 c16 -16 26 -30 22 -30 -7 0 -57 48 -57 55 0 9 7 5 35 -25z
m-5070 0 c10 -11 16 -20 13 -20 -3 0 -13 9 -23 20 -10 11 -16 20 -13 20 3 0
13 -9 23 -20z m4879 -42 c7 -5 4 -8 -6 -8 -12 0 -18 7 -17 23 0 15 2 17 6 7 3
-8 11 -18 17 -22z m-4903 5 c13 -16 12 -17 -3 -4 -10 7 -18 15 -18 17 0 8 8 3
21 -13z m1826 11 c-3 -3 -12 -4 -19 -1 -8 3 -5 6 6 6 11 1 17 -2 13 -5z m3132
-30 c-13 -16 -39 -19 -39 -4 0 5 8 7 18 3 14 -5 15 -3 5 8 -20 20 -15 31 8 19
16 -9 18 -14 8 -26z m46 26 c8 -13 -5 -13 -25 0 -13 8 -13 10 2 10 9 0 20 -4
23 -10z m-5100 -20 c10 -11 16 -20 13 -20 -3 0 -13 9 -23 20 -10 11 -16 20
-13 20 3 0 13 -9 23 -20z m2042 4 c-3 -3 -12 -4 -19 -1 -8 3 -5 6 6 6 11 1 17
-2 13 -5z m-535 -18 c7 4 8 2 4 -5 -9 -13 -26 -5 -25 12 0 9 2 8 6 -1 2 -6 10
-9 15 -6z m768 1 c0 -22 -22 -37 -54 -37 -16 0 -26 3 -22 8 4 4 -14 13 -41 19
l-48 13 46 -6 c25 -2 58 -7 72 -10 20 -3 27 0 27 11 0 8 5 15 10 15 6 0 10 -6
10 -13z m-473 -34 c-3 -10 -5 -4 -5 12 0 17 2 24 5 18 2 -7 2 -21 0 -30z
m3348 -1 c-3 -3 -11 0 -18 7 -9 10 -8 11 6 5 10 -3 15 -9 12 -12z m-5284 -9
c13 -16 12 -17 -3 -4 -10 7 -18 15 -18 17 0 8 8 3 21 -13z m180 0 c13 -16 12
-17 -3 -4 -10 7 -18 15 -18 17 0 8 8 3 21 -13z m1626 -9 c-3 -3 -12 -4 -19 -1
-8 3 -5 6 6 6 11 1 17 -2 13 -5z m3480 -7 c11 -4 24 -14 26 -21 5 -12 2 -12
-20 -1 -19 10 -32 11 -46 3 -14 -7 -17 -7 -13 1 4 6 1 11 -6 11 -10 0 -10 2 1
9 15 9 23 9 58 -2z m-5156 -14 c13 -16 12 -17 -3 -4 -10 7 -18 15 -18 17 0 8
8 3 21 -13z m-246 -23 c10 -11 16 -20 13 -20 -3 0 -13 9 -23 20 -10 11 -16 20
-13 20 3 0 13 -9 23 -20z m156 3 c13 -16 12 -17 -3 -4 -17 13 -22 21 -14 21 2
0 10 -8 17 -17z m1860 -14 c13 -21 11 -24 -22 -26 -48 -4 -116 -49 -156 -105
-33 -45 -38 -49 -49 -33 -9 12 -10 24 -2 46 11 31 76 91 90 83 4 -3 8 -1 8 4
0 12 88 51 107 48 8 -1 19 -9 24 -17z m-1446 -1 c5 4 5 1 1 -5 -10 -18 -23
-16 -30 3 -5 13 -4 14 7 6 8 -7 18 -8 22 -4z m-604 -15 c13 -16 12 -17 -3 -4
-17 13 -22 21 -14 21 2 0 10 -8 17 -17z m160 0 c13 -16 12 -17 -3 -4 -17 13
-22 21 -14 21 2 0 10 -8 17 -17z m340 -10 c13 -17 13 -17 -6 -3 -11 8 -22 16
-24 17 -2 2 0 3 6 3 6 0 17 -8 24 -17z m-430 -10 c13 -16 12 -17 -3 -4 -10 7
-18 15 -18 17 0 8 8 3 21 -13z m490 0 c13 -16 12 -17 -3 -4 -10 7 -18 15 -18
17 0 8 8 3 21 -13z m-590 -10 c13 -16 12 -17 -3 -4 -17 13 -22 21 -14 21 2 0
10 -8 17 -17z m160 0 c13 -16 12 -17 -3 -4 -17 13 -22 21 -14 21 2 0 10 -8 17
-17z m-196 -23 c10 -11 16 -20 13 -20 -3 0 -13 9 -23 20 -10 11 -16 20 -13 20
3 0 13 -9 23 -20z m560 8 c5 4 5 1 1 -6 -6 -10 -11 -10 -22 -1 -8 6 -14 14
-14 16 0 3 6 0 13 -6 8 -6 18 -7 22 -3z m36 -5 c13 -16 12 -17 -3 -4 -10 7
-18 15 -18 17 0 8 8 3 21 -13z m-430 -10 c13 -16 12 -17 -3 -4 -17 13 -22 21
-14 21 2 0 10 -8 17 -17z m-100 -10 c13 -16 12 -17 -3 -4 -10 7 -18 15 -18 17
0 8 8 3 21 -13z m444 -3 c10 -11 16 -20 13 -20 -3 0 -13 9 -23 20 -10 11 -16
20 -13 20 3 0 13 -9 23 -20z m85 -31 c0 -3 -7 -6 -15 -6 -8 0 -13 3 -10 5 3 3
-1 12 -8 20 -11 13 -9 14 11 1 12 -8 22 -16 22 -20z m5274 25 c9 -3 16 -12 16
-20 0 -17 -26 -8 -34 12 -6 16 -4 17 18 8z m-5833 -21 c13 -16 12 -17 -3 -4
-10 7 -18 15 -18 17 0 8 8 3 21 -13z m436 -10 c0 -9 -4 -10 -14 -2 -7 6 -13
12 -13 14 0 1 6 2 13 2 8 0 14 -6 14 -14z m-496 -10 c13 -16 12 -17 -3 -4 -17
13 -22 21 -14 21 2 0 10 -8 17 -17z m583 -9 c5 -14 4 -15 -9 -4 -17 14 -19 20
-6 20 5 0 12 -7 15 -16z m5356 12 c0 -3 -4 -8 -10 -11 -5 -3 -10 -1 -10 4 0 6
5 11 10 11 6 0 10 -2 10 -4z m-5969 -33 c13 -16 12 -17 -3 -4 -10 7 -18 15
-18 17 0 8 8 3 21 -13z m400 -10 c13 -16 12 -17 -3 -4 -10 7 -18 15 -18 17 0
8 8 3 21 -13z m62 -7 c20 -20 22 -26 10 -30 -8 -3 -12 -2 -9 3 8 12 -29 43
-39 34 -4 -5 -5 -2 -1 5 10 16 11 16 39 -12z m101 8 c5 -14 4 -15 -9 -4 -17
14 -19 20 -6 20 5 0 12 -7 15 -16z m81 -14 c10 -11 16 -20 13 -20 -3 0 -13 9
-23 20 -10 11 -16 20 -13 20 3 0 13 -9 23 -20z m-115 -14 c14 -18 14 -18 -7
-6 -12 8 -19 18 -16 23 3 4 6 7 7 5 1 -2 8 -12 16 -22z m-165 5 c3 -5 2 -12
-3 -15 -5 -3 -9 1 -9 9 0 17 3 19 12 6z m74 -35 c-3 -3 -11 5 -18 17 -13 21
-12 21 5 5 10 -10 16 -20 13 -22z m-718 7 c13 -16 12 -17 -3 -4 -10 7 -18 15
-18 17 0 8 8 3 21 -13z m880 0 c13 -16 12 -17 -3 -4 -10 7 -18 15 -18 17 0 8
8 3 21 -13z m-361 -18 c14 -19 14 -19 -2 -6 -10 7 -18 18 -18 24 0 6 1 8 3 6
1 -2 9 -13 17 -24z m104 9 c5 -13 4 -14 -7 -6 -8 7 -18 8 -22 4 -5 -4 -5 -1
-1 6 10 17 23 15 30 -4z m160 -3 c15 -17 15 -19 1 -25 -10 -3 -14 -2 -10 5 4
5 1 16 -5 24 -18 22 -6 18 14 -4z m-823 -8 c13 -16 12 -17 -3 -4 -10 7 -18 15
-18 17 0 8 8 3 21 -13z m889 -8 c13 -14 21 -25 18 -25 -2 0 -15 11 -28 25 -13
14 -21 25 -18 25 2 0 15 -11 28 -25z m-370 -10 c14 -19 14 -19 -2 -6 -10 7
-18 18 -18 24 0 6 1 8 3 6 1 -2 9 -13 17 -24z m108 5 c12 -19 11 -20 -8 -8
-11 7 -20 16 -20 20 0 15 15 8 28 -12z m106 8 c-3 -4 -9 -8 -15 -8 -5 0 -9 4
-9 8 0 5 7 9 15 9 8 0 12 -4 9 -9z m-663 -15 c13 -16 12 -17 -3 -4 -10 7 -18
15 -18 17 0 8 8 3 21 -13z m720 0 c13 -16 12 -17 -3 -4 -10 7 -18 15 -18 17 0
8 8 3 21 -13z m163 1 c5 -13 4 -14 -7 -6 -8 7 -18 8 -22 4 -5 -4 -5 -1 -1 6
10 17 23 15 30 -4z m-367 -1 c-4 -3 -1 -13 6 -21 11 -13 9 -14 -10 -1 -16 9
-19 16 -10 21 15 9 23 10 14 1z m110 -10 c0 -9 -4 -10 -14 -2 -7 6 -13 12 -13
14 0 1 6 2 13 2 8 0 14 -6 14 -14z m-666 -10 c13 -16 12 -17 -3 -4 -10 7 -18
15 -18 17 0 8 8 3 21 -13z m110 0 c13 -16 12 -17 -3 -4 -10 7 -18 15 -18 17 0
8 8 3 21 -13z m733 -12 c-2 -3 -12 3 -22 13 -16 17 -16 18 5 5 12 -7 20 -15
17 -18z m-328 11 c-3 -5 12 -27 33 -50 21 -23 37 -42 34 -42 -2 0 12 -20 32
-45 21 -25 42 -42 48 -38 6 3 7 1 3 -6 -11 -17 14 -43 33 -36 13 5 14 4 3 -7
-15 -15 -20 -10 -125 123 -42 53 -73 99 -70 103 9 9 15 7 9 -2z m227 -7 c-2
-7 -10 -12 -17 -12 -7 0 -13 5 -13 12 0 6 8 11 18 11 9 0 15 -5 12 -11z m-672
-12 c13 -16 12 -17 -3 -4 -10 7 -18 15 -18 17 0 8 8 3 21 -13z m323 1 c3 -8 2
-12 -4 -9 -6 3 -10 10 -10 16 0 14 7 11 14 -7z m237 -1 c13 -16 12 -17 -3 -4
-10 7 -18 15 -18 17 0 8 8 3 21 -13z m-36 -3 c-4 -6 -1 -19 6 -28 12 -15 12
-15 -7 1 -11 9 -23 16 -25 15 -2 -2 2 3 10 10 18 15 24 16 16 2z m205 -5 c7
-9 8 -15 2 -15 -5 0 -12 7 -16 15 -3 8 -4 15 -2 15 2 0 9 -7 16 -15z m-769
-12 c13 -16 12 -17 -3 -4 -17 13 -22 21 -14 21 2 0 10 -8 17 -17z m436 1 c0
-7 -6 -10 -14 -7 -7 3 -13 8 -13 12 0 4 6 8 13 8 8 0 14 -6 14 -13z m237 0 c5
-13 4 -14 -7 -6 -8 7 -18 8 -22 4 -5 -4 -5 -1 -1 6 10 17 23 15 30 -4z m5666
-4 c6 -11 8 -20 6 -20 -3 0 -10 9 -16 20 -6 11 -8 20 -6 20 3 0 10 -9 16 -20z
m-6053 -15 c0 -8 -4 -12 -9 -9 -5 3 -6 10 -3 15 9 13 12 11 12 -6z m457 3 c-3
-4 -9 -8 -15 -8 -5 0 -9 4 -9 8 0 5 7 9 15 9 8 0 12 -4 9 -9z m-343 -15 c13
-16 12 -17 -3 -4 -17 13 -22 21 -14 21 2 0 10 -8 17 -17z m240 0 c13 -17 13
-17 -6 -3 -11 8 -22 16 -24 17 -2 2 0 3 6 3 6 0 17 -8 24 -17z m-46 -2 c-3 -5
-1 -12 4 -16 6 -3 20 -20 32 -38 20 -29 18 -28 -17 8 -23 24 -35 43 -29 47 14
10 17 10 10 -1z m110 -11 c10 -11 16 -20 13 -20 -3 0 -13 9 -23 20 -10 11 -16
20 -13 20 3 0 13 -9 23 -20z m106 3 c13 -16 12 -17 -3 -4 -17 13 -22 21 -14
21 2 0 10 -8 17 -17z m-450 -10 c13 -16 12 -17 -3 -4 -10 7 -18 15 -18 17 0 8
8 3 21 -13z m113 1 c5 -13 4 -14 -7 -6 -8 7 -18 8 -22 4 -5 -4 -5 -1 -1 6 10
17 23 15 30 -4z m-193 -86 c6 1 8 -2 4 -8 -4 -6 -1 -19 6 -28 12 -15 12 -15
-7 1 -11 9 -24 14 -28 10 -4 -4 -4 0 -1 9 4 10 -2 22 -17 32 -12 9 -18 16 -13
16 4 0 0 10 -11 23 -10 13 -2 5 19 -17 21 -23 42 -40 48 -38z m48 60 c13 -22
13 -23 -6 -5 -11 9 -23 14 -28 10 -4 -5 -5 -2 -1 5 10 18 19 15 35 -10z m104
8 c4 -10 1 -13 -9 -9 -7 3 -14 9 -14 14 0 14 17 10 23 -5z m238 -3 c12 -16 12
-17 -2 -6 -9 7 -20 9 -24 5 -5 -4 -5 -1 -1 6 9 16 11 15 27 -5z m113 1 c5 -13
4 -14 -7 -6 -8 7 -18 8 -22 4 -5 -4 -5 -1 -1 6 10 17 23 15 30 -4z m106 6 c0
-5 -2 -10 -4 -10 -3 0 -8 5 -11 10 -3 6 -1 10 4 10 6 0 11 -4 11 -10z m-600
-34 c14 -18 14 -18 -7 -6 -12 8 -19 18 -16 23 3 4 6 7 7 5 1 -2 8 -12 16 -22z
m107 17 c-4 -3 -1 -13 6 -21 11 -13 9 -14 -10 -2 -22 14 -22 30 -1 30 6 0 8
-3 5 -7z m110 -8 c0 -8 -4 -12 -9 -9 -5 3 -6 10 -3 15 9 13 12 11 12 -6z m236
1 c4 -10 1 -13 -8 -9 -8 3 -12 9 -9 14 7 12 11 11 17 -5z m102 4 c3 -5 1 -10
-4 -10 -6 0 -11 5 -11 10 0 6 2 10 4 10 3 0 8 -4 11 -10z m-641 -41 c-2 -4 0
-10 5 -14 6 -3 20 -20 32 -38 21 -29 21 -30 3 -14 -12 9 -24 14 -28 10 -4 -4
-4 0 -1 8 8 21 -22 46 -37 31 -7 -7 -2 -21 18 -48 25 -32 26 -35 7 -24 -12 8
-20 17 -18 21 3 3 -4 14 -15 24 -20 18 -20 18 0 32 18 13 19 17 8 31 -12 14
-11 14 9 2 12 -8 20 -17 17 -21z m153 24 c-4 -3 -1 -13 6 -22 10 -14 10 -14
-5 -3 -9 8 -23 11 -30 7 -7 -4 -4 1 6 9 19 16 36 22 23 9z m350 0 c-4 -3 -1
-13 6 -21 11 -13 9 -14 -10 -2 -22 14 -22 30 -1 30 6 0 8 -3 5 -7z m-236 -20
c13 -16 12 -17 -3 -4 -10 7 -18 15 -18 17 0 8 8 3 21 -13z m-339 -37 c7 4 8 2
4 -5 -4 -6 -2 -20 5 -29 6 -9 -4 1 -24 23 -20 22 -36 44 -37 49 0 5 9 -3 21
-18 11 -14 25 -23 31 -20z m535 37 c-4 -3 3 -18 15 -32 l23 -26 -27 24 c-24
21 -29 41 -11 41 4 0 3 -3 0 -7z m-346 -20 c13 -16 12 -17 -3 -4 -10 7 -18 15
-18 17 0 8 8 3 21 -13z m113 1 c5 -13 4 -14 -7 -6 -8 7 -18 8 -22 4 -5 -4 -5
-1 -1 6 10 17 23 15 30 -4z m110 0 c5 -13 4 -14 -7 -6 -8 7 -18 8 -22 4 -5 -4
-5 -1 -1 6 10 17 23 15 30 -4z m-893 -11 c13 -16 12 -17 -3 -4 -17 13 -22 21
-14 21 2 0 10 -8 17 -17z m-50 -10 c13 -16 12 -17 -3 -4 -10 7 -18 15 -18 17
0 8 8 3 21 -13z m799 -8 c14 -19 14 -19 -2 -6 -10 7 -18 18 -18 24 0 6 1 8 3
6 1 -2 9 -13 17 -24z m103 11 c4 -10 1 -13 -9 -9 -7 3 -14 9 -14 14 0 14 17
10 23 -5z m237 6 c0 -5 -7 -9 -15 -9 -8 0 -12 4 -9 9 3 4 9 8 15 8 5 0 9 -4 9
-8z m-379 -15 c-6 -8 -8 -17 -4 -21 4 -4 -1 -4 -11 0 -18 7 -18 8 0 21 23 17
30 17 15 0z m-366 -7 c3 -5 1 -10 -4 -10 -6 0 -11 5 -11 10 0 6 2 10 4 10 3 0
8 -4 11 -10z m472 3 c-4 -3 -1 -13 6 -22 10 -14 10 -14 -5 -3 -9 8 -23 11 -30
7 -7 -4 -4 1 6 9 19 16 36 22 23 9z m-836 -30 c13 -16 12 -17 -3 -4 -10 7 -18
15 -18 17 0 8 8 3 21 -13z m686 10 c-4 -3 -1 -13 6 -21 11 -13 9 -14 -10 -1
-16 9 -19 16 -10 21 15 9 23 10 14 1z m229 -12 c0 -16 -3 -17 -14 -9 -12 10
-7 19 13 28 1 0 1 -9 1 -19z m-115 -8 c13 -16 12 -17 -3 -4 -17 13 -22 21 -14
21 2 0 10 -8 17 -17z m-402 -6 c8 -10 7 -14 -2 -14 -8 0 -14 6 -14 14 0 7 1
13 2 13 2 0 8 -6 14 -13z m137 4 c-3 -5 1 -14 10 -22 8 -7 20 -22 25 -33 6
-12 -3 -5 -20 14 -25 30 -31 50 -15 50 3 0 3 -4 0 -9z m230 -10 c0 -16 -3 -17
-14 -9 -12 10 -7 19 13 28 1 0 1 -9 1 -19z m289 8 c11 -17 -1 -21 -15 -4 -8 9
-8 15 -2 15 6 0 14 -5 17 -11z m-404 -16 c13 -16 12 -17 -3 -4 -17 13 -22 21
-14 21 2 0 10 -8 17 -17z m223 1 c5 -13 4 -14 -7 -6 -8 7 -18 8 -22 4 -5 -4
-5 -1 -1 6 10 17 23 15 30 -4z m106 6 c0 -5 -4 -10 -10 -10 -5 0 -10 5 -10 10
0 6 5 10 10 10 6 0 10 -4 10 -10z m-610 -22 c0 -6 -6 -5 -15 2 -8 7 -15 14
-15 16 0 2 7 1 15 -2 8 -4 15 -11 15 -16z m100 7 c7 -9 8 -15 2 -15 -5 0 -12
7 -16 15 -3 8 -4 15 -2 15 2 0 9 -7 16 -15z m146 -4 c0 -16 -3 -17 -14 -9 -12
10 -7 19 13 28 1 0 1 -9 1 -19z m108 -7 c5 -13 4 -14 -7 -6 -8 7 -18 8 -22 4
-5 -4 -5 -1 -1 6 10 17 23 15 30 -4z m109 2 c4 -10 1 -13 -8 -9 -8 3 -12 9 -9
14 7 12 11 11 17 -5z m114 0 c0 -8 -6 -12 -15 -9 -11 5 -11 7 0 14 7 5 13 9
14 9 0 0 1 -6 1 -14z m-627 -11 c7 -9 8 -15 2 -15 -5 0 -12 7 -16 15 -3 8 -4
15 -2 15 2 0 9 -7 16 -15z m125 3 c5 4 5 1 1 -5 -10 -18 -23 -16 -30 3 -5 13
-4 14 7 6 8 -7 18 -8 22 -4z m243 -18 c12 -19 11 -20 -8 -8 -20 13 -27 28 -12
28 4 0 13 -9 20 -20z m109 6 c0 -8 -6 -12 -15 -9 -11 5 -11 7 0 14 7 5 13 9
14 9 0 0 1 -6 1 -14z m-502 -8 c5 4 5 1 1 -5 -10 -18 -23 -16 -30 3 -5 13 -4
14 7 6 8 -7 18 -8 22 -4z m96 -5 c13 -16 12 -17 -3 -4 -10 7 -18 15 -18 17 0
8 8 3 21 -13z m129 -7 c-7 -7 -13 -7 -20 0 -6 6 -3 10 10 10 13 0 16 -4 10
-10z m127 7 c-4 -3 -1 -13 6 -21 11 -13 9 -14 -10 -2 -22 14 -22 30 -1 30 6 0
8 -3 5 -7z m110 0 c-4 -3 -1 -13 6 -22 11 -14 10 -14 -5 -2 -16 12 -16 31 -1
31 4 0 3 -3 0 -7z m117 -8 c-4 -8 -11 -12 -16 -9 -6 4 -5 10 3 15 19 12 19 11
13 -6z m-623 -27 c20 -29 21 -31 3 -15 -12 9 -23 15 -25 12 -3 -2 -5 5 -5 15
0 26 1 26 27 -12z m110 1 c21 -30 21 -31 1 -18 -12 7 -19 15 -17 18 3 2 0 10
-6 18 -6 7 -9 13 -6 13 3 0 16 -14 28 -31z m112 -2 c-3 -4 -6 -7 -7 -5 -1 2
-8 12 -16 22 -14 18 -14 18 7 6 12 -8 19 -18 16 -23z m177 -53 c0 -11 -11 0
-40 39 l-32 42 36 -39 c20 -21 36 -40 36 -42z m-509 49 c13 -16 12 -17 -3 -4
-10 7 -18 15 -18 17 0 8 8 3 21 -13z m184 -12 c-3 -2 1 -11 8 -19 11 -13 9
-14 -10 -1 -12 7 -20 15 -18 18 3 2 -1 11 -8 19 -11 13 -9 14 10 1 12 -7 20
-15 18 -18z m108 -4 c-3 -4 -6 -7 -7 -5 -1 2 -8 12 -16 22 -14 18 -14 18 7 6
12 -8 19 -18 16 -23z m288 16 c13 -16 12 -17 -3 -4 -17 13 -22 21 -14 21 2 0
10 -8 17 -17z m109 7 c0 -5 -2 -10 -4 -10 -3 0 -8 5 -11 10 -3 6 -1 10 4 10 6
0 11 -4 11 -10z m-275 -12 c5 4 5 1 1 -5 -10 -18 -23 -16 -30 3 -5 13 -4 14 7
6 8 -7 18 -8 22 -4z m-454 -15 c13 -16 12 -17 -3 -4 -10 7 -18 15 -18 17 0 8
8 3 21 -13z m113 1 c3 -8 2 -12 -4 -9 -6 3 -10 10 -10 16 0 14 7 11 14 -7z
m470 0 c5 -13 4 -14 -7 -6 -8 7 -18 8 -22 4 -5 -4 -5 -1 -1 6 10 17 23 15 30
-4z m106 6 c0 -5 -5 -10 -11 -10 -5 0 -7 5 -4 10 3 6 8 10 11 10 2 0 4 -4 4
-10z m-289 -17 c13 -16 12 -17 -3 -4 -17 13 -22 21 -14 21 2 0 10 -8 17 -17z
m-328 -7 c4 -10 1 -13 -9 -9 -15 6 -19 23 -5 23 5 0 11 -7 14 -14z m114 7 c-4
-3 -1 -13 6 -22 11 -14 10 -14 -5 -2 -16 12 -16 31 -1 31 4 0 3 -3 0 -7z m119
-12 c0 -16 -3 -17 -14 -9 -12 10 -7 19 13 28 1 0 1 -9 1 -19z m348 7 c-3 -4 0
-8 7 -8 7 0 10 -2 7 -5 -7 -7 -38 5 -38 14 0 4 7 8 15 8 8 0 12 -4 9 -9z m117
-5 c13 -16 12 -17 -3 -4 -17 13 -22 21 -14 21 2 0 10 -8 17 -17z m-401 -23
c12 -16 19 -30 16 -30 -2 0 -14 14 -26 30 -12 17 -19 30 -16 30 2 0 14 -13 26
-30z m115 -1 c-3 -3 4 -14 15 -24 11 -10 20 -22 20 -26 0 -4 -13 4 -28 19 -15
15 -26 29 -25 31 2 2 -3 11 -10 19 -11 13 -9 14 10 2 12 -8 20 -17 18 -21z
m-445 15 c0 -8 -19 -13 -24 -6 -3 5 1 9 9 9 8 0 15 -2 15 -3z m571 -11 c13
-16 12 -17 -3 -4 -17 13 -22 21 -14 21 2 0 10 -8 17 -17z m-347 -9 c5 -13 4
-14 -7 -6 -8 7 -18 8 -22 4 -5 -4 -5 -1 -1 6 10 17 23 15 30 -4z m176 -14 c12
-16 19 -30 16 -30 -2 0 -14 14 -26 30 -12 17 -19 30 -16 30 2 0 14 -13 26 -30z
m151 -16 c18 -19 27 -32 18 -29 -14 5 -65 65 -56 65 2 0 19 -16 38 -36z m-521
-7 c0 -5 14 -27 31 -48 17 -21 28 -39 25 -39 -2 0 -26 27 -52 61 -28 37 -38
56 -25 47 11 -7 21 -17 21 -21z m34 25 c3 -5 -1 -9 -9 -9 -8 0 -12 4 -9 9 3 4
7 8 9 8 2 0 6 -4 9 -8z m119 -6 c4 -10 1 -13 -9 -9 -15 6 -19 23 -5 23 5 0 11
-7 14 -14z m114 7 c-4 -3 -1 -13 6 -21 11 -13 9 -14 -10 -1 -16 9 -19 16 -10
21 15 9 23 10 14 1z m-157 -28 c11 -13 10 -14 -4 -9 -9 3 -16 10 -16 15 0 13
6 11 20 -6z m117 0 c0 -8 -4 -12 -9 -9 -5 3 -6 10 -3 15 9 13 12 11 12 -6z
m119 -4 c0 -16 -3 -17 -14 -9 -12 10 -7 19 13 28 1 0 1 -9 1 -19z m-266 -7 c0
-2 -9 -8 -20 -14 -15 -8 -18 -8 -14 3 4 11 34 21 34 11z m224 -20 c5 -13 4
-14 -7 -6 -8 7 -18 8 -22 4 -5 -4 -5 -1 -1 6 10 17 23 15 30 -4z m111 6 c-3
-5 -11 -10 -16 -10 -6 0 -7 5 -4 10 3 6 11 10 16 10 6 0 7 -4 4 -10z m-265
-19 c0 -4 -6 -8 -13 -8 -8 0 -14 6 -14 13 0 7 6 10 14 7 7 -3 13 -8 13 -12z
m110 -1 c0 -5 -4 -10 -10 -10 -5 0 -10 5 -10 10 0 6 5 10 10 10 6 0 10 -4 10
-10z m117 -3 c0 -7 -8 -13 -18 -13 -13 0 -15 3 -7 13 6 7 14 13 18 13 3 0 7
-6 7 -13z m-267 -12 c0 -12 -19 -12 -23 0 -4 9 -1 12 9 8 7 -3 14 -7 14 -8z
m114 -7 c-3 -4 -9 -8 -15 -8 -5 0 -9 4 -9 8 0 5 7 9 15 9 8 0 12 -4 9 -9z
m107 -5 c13 -16 12 -17 -3 -4 -10 7 -18 15 -18 17 0 8 8 3 21 -13z m-162 -7
c9 -10 8 -15 -2 -19 -8 -3 -13 3 -13 14 0 23 0 23 15 5z m134 -9 c-2 -4 1 -16
8 -25 12 -15 12 -15 -7 1 -11 9 -23 15 -26 12 -2 -3 -5 1 -5 8 0 7 8 13 18 13
10 0 15 -4 12 -9z m298 -4 c13 -16 12 -17 -3 -4 -17 13 -22 21 -14 21 2 0 10
-8 17 -17z m-461 -23 c12 -16 19 -30 16 -30 -2 0 -14 14 -26 30 -12 17 -19 30
-16 30 2 0 14 -13 26 -30z m-36 -21 c-2 -3 5 -15 14 -25 10 -10 30 -37 46 -59
l28 -40 -33 36 c-19 20 -50 58 -69 85 -31 44 -32 46 -8 29 14 -11 24 -23 22
-26z m156 21 c0 -4 -9 -10 -21 -13 -15 -4 -18 -2 -10 7 6 7 8 16 4 20 -4 4 0
4 10 0 9 -3 17 -10 17 -14z m6817 -27 c7 -6 13 -18 13 -25 0 -7 -14 1 -30 19
-47 50 -34 54 17 6z m-6867 7 c6 -11 8 -20 6 -20 -3 0 -10 9 -16 20 -6 11 -8
20 -6 20 3 0 10 -9 16 -20z m6965 -10 c3 -5 2 -10 -4 -10 -5 0 -13 5 -16 10
-3 6 -2 10 4 10 5 0 13 -4 16 -10z m-6991 -15 c-4 -8 -11 -12 -16 -9 -6 4 -5
10 3 15 19 12 19 11 13 -6z m37 -132 c13 -16 12 -17 -3 -4 -10 7 -18 15 -18
17 0 8 8 3 21 -13z m7132 -37 c4 -10 1 -13 -9 -9 -7 3 -14 9 -14 14 0 14 17
10 23 -5z m106 -76 c15 0 14 -27 -1 -36 -8 -5 -9 -2 -5 10 4 10 3 15 -3 11 -5
-3 -14 3 -19 14 -15 28 -13 39 3 19 7 -10 18 -18 25 -18z m4 -81 c3 -12 9 -19
14 -16 4 3 8 -8 9 -24 1 -29 1 -29 -22 12 -27 46 -28 49 -15 49 5 0 11 -9 14
-21z"/>
<path d="M2874 3208 c-4 -7 -3 -10 1 -5 5 4 27 -10 49 -30 l41 -38 -40 43
c-44 48 -41 46 -51 30z"/>
<path d="M2826 3182 c-2 -4 9 -9 25 -10 19 -2 28 2 24 8 -7 12 -42 13 -49 2z"/>
<path d="M3925 3060 c10 -11 20 -20 23 -20 3 0 -3 9 -13 20 -10 11 -20 20 -23
20 -3 0 3 -9 13 -20z"/>
<path d="M4276 3001 c-8 -12 21 -34 34 -26 8 5 8 11 -1 21 -13 16 -25 18 -33
5z"/>
<path d="M4225 2720 c10 -11 20 -20 23 -20 3 0 -3 9 -13 20 -10 11 -20 20 -23
20 -3 0 3 -9 13 -20z"/>
<path d="M6536 1981 c-17 -6 -17 -8 -3 -14 8 -3 21 1 27 9 13 15 6 17 -24 5z"/>
<path d="M2312 4067 c-53 -19 -60 -24 -45 -34 17 -10 16 -12 -7 -21 -18 -8 44
-10 220 -9 155 1 245 6 245 12 0 16 -67 18 -76 3 -7 -10 -9 -10 -9 0 0 7 -15
12 -40 12 -42 0 -55 18 -20 27 39 10 10 19 -72 21 -46 1 -94 4 -108 7 -14 2
-53 -6 -88 -18z"/>
<path d="M592 3974 c-51 -7 -95 -14 -98 -17 -2 -2 9 -10 26 -17 24 -10 43 -10
87 -1 31 6 75 12 97 12 29 2 33 3 14 6 -15 2 -28 10 -30 16 -2 10 -24 10 -96
1z m13 -24 c-16 -4 -39 -8 -50 -8 -16 0 -15 2 5 8 14 4 36 8 50 8 22 0 22 -1
-5 -8z"/>
<path d="M708 3983 c7 -3 16 -2 19 1 4 3 -2 6 -13 5 -11 0 -14 -3 -6 -6z"/>
<path d="M1738 3913 c6 -2 18 -2 25 0 6 3 1 5 -13 5 -14 0 -19 -2 -12 -5z"/>
<path d="M1000 3870 c8 -5 20 -10 25 -10 6 0 3 5 -5 10 -8 5 -19 10 -25 10 -5
0 -3 -5 5 -10z"/>
<path d="M2595 3860 c3 -5 11 -10 16 -10 6 0 7 5 4 10 -3 6 -11 10 -16 10 -6
0 -7 -4 -4 -10z"/>
<path d="M5180 3841 c0 -14 26 -32 35 -23 5 4 5 2 2 -4 -4 -7 0 -17 8 -24 28
-23 27 -2 -1 29 -27 31 -44 39 -44 22z"/>
<path d="M5276 3841 c-4 -6 8 -24 25 -41 18 -16 30 -32 27 -35 -3 -3 -11 1
-18 10 -7 8 -19 15 -28 15 -13 0 -13 -3 2 -19 13 -14 14 -21 5 -27 -7 -4 -10
-3 -6 3 8 12 -20 39 -30 29 -4 -3 -1 -12 5 -18 7 -7 12 -16 12 -20 0 -10 -18
4 -54 41 -16 15 -26 19 -30 12 -4 -6 -1 -14 8 -17 8 -3 23 -18 32 -32 17 -27
17 -27 -3 -9 -26 23 -38 10 -16 -17 18 -21 18 -21 -3 -3 -30 25 -52 23 -29 -3
10 -11 13 -20 8 -20 -6 0 -16 7 -23 15 -7 8 -17 12 -22 9 -5 -3 -1 -15 9 -27
l18 -22 -23 19 c-23 20 -45 15 -24 -6 19 -19 14 -33 -6 -15 -26 24 -50 23 -29
-1 22 -24 9 -37 -15 -15 -23 20 -36 10 -17 -14 13 -17 13 -17 -7 0 -26 21 -40
10 -17 -15 9 -10 12 -18 6 -18 -5 0 -33 23 -61 52 -28 29 -54 49 -58 45 -10
-10 16 -38 29 -30 5 3 7 1 3 -5 -3 -6 2 -17 11 -24 10 -7 25 -22 33 -33 11
-16 11 -17 0 -7 -19 16 -49 17 -32 0 19 -19 14 -33 -6 -15 -25 23 -36 9 -15
-17 l18 -21 -24 20 c-14 11 -40 37 -59 57 -19 21 -38 35 -44 32 -5 -3 11 -27
36 -52 44 -44 66 -83 28 -49 -25 23 -36 9 -15 -17 18 -21 18 -21 -3 -3 -25 21
-34 22 -34 2 0 -8 5 -15 10 -15 6 0 10 -5 10 -10 0 -15 -49 22 -50 36 0 7 -6
14 -14 17 -8 3 -20 16 -27 29 -9 19 -9 21 2 11 7 -7 20 -13 28 -13 13 0 13 3
-1 17 -15 14 -22 15 -44 5 l-26 -12 48 -50 c27 -28 49 -57 49 -65 0 -29 27
-35 58 -13 l28 20 15 -21 c8 -11 19 -21 25 -21 15 0 10 30 -6 37 -12 4 -7 11
20 30 l37 25 15 -21 c8 -12 19 -19 24 -15 6 4 4 13 -7 25 -16 17 -15 19 10 30
14 7 26 16 26 21 0 5 4 7 9 4 5 -3 14 1 21 9 7 8 19 15 26 15 8 0 14 5 14 12
0 6 3 8 6 5 4 -4 19 2 33 12 14 10 36 22 49 25 12 4 22 12 22 17 0 5 7 9 15 9
8 0 15 5 15 10 0 6 6 9 13 8 6 -2 11 2 10 9 -2 7 4 10 12 7 8 -4 15 -1 15 5 0
6 9 11 21 11 11 0 18 -4 15 -8 -6 -10 48 -62 64 -62 7 0 -9 23 -36 50 -27 28
-49 54 -49 59 0 16 -63 73 -69 62z"/>
<path d="M5240 3821 c0 -13 26 -32 33 -24 8 7 -11 33 -24 33 -5 0 -9 -4 -9 -9z"/>
<path d="M5066 3782 c-7 -12 22 -38 31 -28 4 3 0 14 -9 22 -9 10 -18 12 -22 6z"/>
<path d="M3745 3770 c-3 -5 -15 -10 -26 -10 -12 0 -17 -4 -14 -11 4 -6 13 -8
21 -5 8 3 14 1 14 -4 0 -6 6 -9 13 -7 6 1 11 -3 10 -10 -2 -7 3 -10 11 -7 8 3
31 -4 53 -15 29 -15 33 -20 18 -22 -113 -8 -117 -13 -24 -28 74 -12 194 -60
171 -68 -17 -6 30 -43 55 -43 13 1 11 5 -10 16 -16 9 -26 18 -23 21 10 10 106
12 106 2 0 -4 6 -6 14 -3 8 3 33 0 56 -6 23 -6 44 -9 46 -7 7 7 -81 48 -111
51 -17 2 -31 5 -32 6 -2 1 -7 3 -12 4 -16 2 -25 16 -11 16 7 0 11 3 8 6 -4 3
-16 0 -28 -6 -14 -7 -20 -8 -16 -2 9 14 -48 39 -108 48 -34 5 -44 9 -35 16 10
7 8 8 -6 4 -11 -3 -33 1 -49 9 -15 8 -36 15 -45 16 -13 0 -12 2 4 10 18 9 18
9 -3 5 -36 -7 -55 3 -41 20 6 8 9 14 6 14 -3 0 -9 -4 -12 -10z m214 -106 c9
-8 -55 -2 -74 6 -13 6 -5 7 25 3 25 -3 47 -7 49 -9z m48 -20 c-3 -3 -12 -4
-19 -1 -8 3 -5 6 6 6 11 1 17 -2 13 -5z"/>
<path d="M3038 3763 c12 -2 32 -2 45 0 12 2 2 4 -23 4 -25 0 -35 -2 -22 -4z"/>
<path d="M5130 3756 c0 -16 27 -29 35 -16 3 5 -4 14 -15 20 -16 8 -20 8 -20
-4z"/>
<path d="M5102 3738 c3 -7 13 -15 24 -17 16 -3 17 -1 5 13 -16 19 -34 21 -29
4z"/>
<path d="M5076 3732 c-7 -12 22 -38 31 -28 4 3 0 14 -9 22 -9 10 -18 12 -22 6z"/>
<path d="M4970 3715 c7 -8 19 -15 27 -15 8 0 12 -4 9 -9 -7 -11 22 -36 31 -27
9 9 -47 66 -65 66 -12 0 -12 -3 -2 -15z"/>
<path d="M5335 3710 c-3 -5 1 -13 10 -16 22 -9 29 1 11 15 -10 8 -16 9 -21 1z"/>
<path d="M2887 3704 c-13 -14 5 -24 31 -18 25 6 25 5 9 -8 -16 -12 -12 -14 45
-15 35 0 50 2 33 4 -16 3 -32 8 -35 12 -6 8 -57 31 -69 31 -4 0 -11 -3 -14 -6z"/>
<path d="M3768 3693 c6 -2 18 -2 25 0 6 3 1 5 -13 5 -14 0 -19 -2 -12 -5z"/>
<path d="M5290 3690 c-11 -7 -12 -12 -3 -21 14 -14 56 -2 50 14 -5 16 -28 19
-47 7z"/>
<path d="M5398 3649 c21 -20 38 -29 48 -25 11 4 22 -1 31 -14 8 -11 19 -18 24
-14 6 3 -2 19 -18 35 -31 31 -48 38 -39 14 5 -13 2 -14 -15 -5 -11 6 -23 18
-26 26 -3 8 -12 14 -21 14 -11 0 -6 -9 16 -31z"/>
<path d="M5250 3659 c0 -6 8 -13 18 -16 9 -2 28 -20 42 -38 14 -19 31 -35 39
-35 7 0 -8 23 -35 50 -49 50 -64 60 -64 39z"/>
<path d="M5345 3660 c-3 -5 1 -13 10 -16 22 -9 29 1 11 15 -10 8 -16 9 -21 1z"/>
<path d="M4197 3643 c5 -23 43 -33 43 -12 0 5 -5 7 -11 4 -6 -4 -17 1 -24 11
-13 18 -14 18 -8 -3z"/>
<path d="M5227 3653 c-7 -11 51 -68 60 -59 3 3 -8 19 -24 37 -17 17 -33 27
-36 22z"/>
<path d="M4920 3641 c0 -13 26 -32 33 -24 8 7 -11 33 -24 33 -5 0 -9 -4 -9 -9z"/>
<path d="M5323 3633 c9 -9 20 -13 24 -9 4 4 1 11 -7 16 -25 16 -35 11 -17 -7z"/>
<path d="M4796 3631 c-7 -10 22 -37 30 -28 9 8 -3 37 -15 37 -5 0 -12 -4 -15
-9z"/>
<path d="M5190 3631 c0 -5 6 -14 14 -20 16 -13 32 2 21 19 -8 12 -35 13 -35 1z"/>
<path d="M5383 3616 c4 -10 0 -12 -15 -8 -15 4 -19 2 -14 -7 5 -8 19 -10 37
-6 22 5 29 3 29 -9 0 -17 18 -31 27 -22 8 7 -46 66 -60 66 -5 0 -7 -6 -4 -14z"/>
<path d="M2787 3612 c-17 -7 -17 -9 -4 -21 20 -16 62 -10 62 9 0 17 -30 23
-58 12z"/>
<path d="M2893 3613 c9 -2 23 -2 30 0 6 3 -1 5 -18 5 -16 0 -22 -2 -12 -5z"/>
<path d="M5151 3611 c-12 -8 -10 -15 10 -39 27 -34 52 -43 42 -14 -5 13 -3 15
7 5 9 -9 17 -9 31 0 15 9 21 8 33 -8 8 -11 17 -17 21 -14 7 8 -41 59 -55 59
-5 0 -6 -8 -3 -17 6 -15 4 -16 -9 -5 -11 9 -18 10 -23 2 -3 -5 -13 -10 -22
-10 -9 0 -13 3 -10 7 4 3 1 13 -6 22 -11 14 -10 14 6 2 19 -15 33 -9 22 8 -8
13 -25 14 -44 2z"/>
<path d="M5452 3599 c2 -7 10 -15 17 -17 8 -3 12 1 9 9 -2 7 -10 15 -17 17 -8
3 -12 -1 -9 -9z"/>
<path d="M4830 3591 c0 -13 26 -32 33 -24 8 7 -11 33 -24 33 -5 0 -9 -4 -9 -9z"/>
<path d="M4806 3582 c-7 -12 22 -38 31 -28 4 3 0 14 -9 22 -9 10 -18 12 -22 6z"/>
<path d="M5096 3582 c-7 -12 22 -38 31 -28 4 3 0 14 -9 22 -9 10 -18 12 -22 6z"/>
<path d="M5510 3580 c0 -6 9 -14 21 -18 11 -5 19 -10 17 -13 -5 -10 46 -59 61
-59 7 0 -8 23 -35 50 -48 50 -64 59 -64 40z"/>
<path d="M3228 3573 c6 -2 18 -2 25 0 6 3 1 5 -13 5 -14 0 -19 -2 -12 -5z"/>
<path d="M5303 3563 c9 -9 19 -14 23 -11 10 10 -6 28 -24 28 -15 0 -15 -1 1
-17z"/>
<path d="M5392 3569 c2 -7 10 -15 17 -17 8 -3 12 1 9 9 -2 7 -10 15 -17 17 -8
3 -12 -1 -9 -9z"/>
<path d="M5486 3572 c-3 -6 1 -15 8 -21 8 -7 17 -8 20 -3 3 6 -1 15 -8 21 -8
7 -17 8 -20 3z"/>
<path d="M4666 3562 c-7 -12 22 -38 31 -28 4 3 0 14 -9 22 -9 10 -18 12 -22 6z"/>
<path d="M5070 3561 c0 -13 26 -32 33 -24 8 7 -11 33 -24 33 -5 0 -9 -4 -9 -9z"/>
<path d="M5370 3545 c7 -9 15 -13 17 -11 7 7 -7 26 -19 26 -6 0 -6 -6 2 -15z"/>
<path d="M5452 3548 c3 -7 13 -15 24 -17 16 -3 17 -1 5 13 -16 19 -34 21 -29
4z"/>
<path d="M4645 3530 c10 -11 22 -17 26 -14 5 3 6 -1 3 -9 -5 -14 24 -33 34
-22 8 8 -50 65 -66 65 -12 0 -12 -4 3 -20z"/>
<path d="M5040 3535 c7 -8 19 -15 27 -15 8 0 12 -4 9 -9 -7 -10 22 -37 30 -28
11 10 -40 67 -59 67 -16 0 -17 -3 -7 -15z"/>
<path d="M5130 3541 c0 -12 26 -32 33 -25 9 10 -4 34 -19 34 -8 0 -14 -4 -14
-9z"/>
<path d="M5242 3539 c2 -7 10 -15 17 -17 8 -3 12 1 9 9 -2 7 -10 15 -17 17 -8
3 -12 -1 -9 -9z"/>
<path d="M5317 3533 c-14 -4 -16 -8 -6 -19 15 -18 33 -18 26 0 -4 10 0 12 15
8 14 -3 19 -1 14 6 -7 12 -17 13 -49 5z"/>
<path d="M5448 3509 c18 -18 35 -29 39 -26 8 9 -39 57 -56 57 -9 0 -2 -12 17
-31z"/>
<path d="M5522 3529 c2 -7 10 -15 17 -17 8 -3 12 1 9 9 -2 7 -10 15 -17 17 -8
3 -12 -1 -9 -9z"/>
<path d="M3306 3520 c6 -6 31 -14 55 -17 59 -7 40 12 -21 21 -33 5 -42 4 -34
-4z"/>
<path d="M3433 3523 c15 -2 37 -2 50 0 12 2 0 4 -28 4 -27 0 -38 -2 -22 -4z"/>
<path d="M3584 3513 c-17 -17 -15 -18 37 -26 30 -4 80 -12 111 -17 58 -11 108
-5 108 11 0 5 -36 9 -81 9 -61 0 -78 3 -73 13 6 9 5 9 -8 0 -11 -10 -23 -10
-47 -2 -17 6 -28 15 -25 20 9 15 -3 10 -22 -8z m219 -40 c-7 -2 -21 -2 -30 0
-10 3 -4 5 12 5 17 0 24 -2 18 -5z"/>
<path d="M5113 3513 c9 -9 19 -14 23 -11 10 10 -6 28 -24 28 -15 0 -15 -1 1
-17z"/>
<path d="M5220 3515 c7 -8 16 -12 21 -9 13 8 1 24 -18 24 -13 0 -13 -3 -3 -15z"/>
<path d="M5400 3522 c0 -12 19 -26 26 -19 2 2 -2 10 -11 17 -9 8 -15 8 -15 2z"/>
<path d="M4982 3508 c3 -7 13 -15 22 -16 12 -3 17 1 14 10 -3 7 -13 15 -22 16
-12 3 -17 -1 -14 -10z"/>
<path d="M5277 3514 c-8 -9 51 -67 63 -62 5 2 -5 18 -24 35 -18 18 -36 30 -39
27z"/>
<path d="M5490 3512 c0 -5 7 -13 16 -16 10 -4 14 -1 12 6 -5 15 -28 23 -28 10z"/>
<path d="M3410 3500 c0 -5 7 -7 15 -4 8 4 15 8 15 10 0 2 -7 4 -15 4 -8 0 -15
-4 -15 -10z"/>
<path d="M3510 3500 c-11 -7 -6 -10 20 -10 26 0 31 3 20 10 -8 5 -17 10 -20
10 -3 0 -12 -5 -20 -10z"/>
<path d="M4957 3503 c-7 -6 82 -103 95 -103 17 0 7 22 -12 27 -11 3 -18 8 -16
12 6 10 -60 72 -67 64z"/>
<path d="M5170 3501 c0 -5 7 -12 16 -15 24 -9 28 -7 14 9 -14 17 -30 20 -30 6z"/>
<path d="M5372 3499 c2 -7 10 -15 17 -17 8 -3 12 1 9 9 -2 7 -10 15 -17 17 -8
3 -12 -1 -9 -9z"/>
<path d="M5052 3488 c3 -7 13 -15 24 -17 16 -3 17 -1 5 13 -16 19 -34 21 -29
4z"/>
<path d="M5146 3492 c-3 -6 1 -15 8 -21 8 -7 17 -8 20 -3 3 6 -1 15 -8 21 -8
7 -17 8 -20 3z"/>
<path d="M5252 3489 c2 -7 10 -15 17 -17 8 -3 12 1 9 9 -2 7 -10 15 -17 17 -8
3 -12 -1 -9 -9z"/>
<path d="M5555 3490 c3 -5 15 -15 26 -21 19 -10 20 -9 9 10 -6 12 -18 21 -26
21 -8 0 -12 -4 -9 -10z"/>
<path d="M5340 3481 c0 -5 7 -11 15 -15 9 -3 15 0 15 9 0 8 -7 15 -15 15 -8 0
-15 -4 -15 -9z"/>
<path d="M5430 3480 c0 -5 4 -10 10 -10 5 0 21 -12 35 -27 14 -15 25 -22 25
-15 0 14 -48 62 -61 62 -5 0 -9 -4 -9 -10z"/>
<path d="M5526 3483 c-3 -3 -3 -10 0 -14 7 -12 34 -11 34 0 0 11 -26 22 -34
14z"/>
<path d="M5022 3468 c6 -18 28 -21 28 -4 0 9 -7 16 -16 16 -9 0 -14 -5 -12
-12z"/>
<path d="M5112 3468 c3 -7 13 -15 24 -17 16 -3 17 -1 5 13 -16 19 -34 21 -29
4z"/>
<path d="M4877 3459 c-16 -10 -13 -15 30 -60 26 -27 53 -49 60 -49 7 0 12 -4
11 -8 -4 -12 55 -72 64 -66 11 7 -82 104 -99 104 -7 0 -10 6 -7 14 3 8 -3 17
-14 20 -11 4 -22 16 -25 27 -5 17 -3 18 9 8 16 -13 30 -6 19 10 -8 14 -25 14
-48 0z"/>
<path d="M5210 3466 c0 -11 49 -56 60 -56 7 0 0 13 -16 30 -26 27 -44 37 -44
26z"/>
<path d="M5391 3461 c-7 -5 -10 -14 -7 -20 10 -16 29 -14 23 3 -4 10 0 12 15
8 14 -3 19 -1 14 6 -8 14 -26 15 -45 3z"/>
<path d="M5502 3459 c2 -7 10 -15 17 -17 8 -3 12 1 9 9 -2 7 -10 15 -17 17 -8
3 -12 -1 -9 -9z"/>
<path d="M3565 3450 c3 -5 14 -10 23 -10 15 0 15 2 2 10 -20 13 -33 13 -25 0z"/>
<path d="M5126 3410 c48 -50 64 -59 64 -40 0 6 -9 14 -21 18 -11 5 -20 11 -19
16 2 12 -44 56 -59 56 -7 0 8 -22 35 -50z"/>
<path d="M5182 3449 c2 -7 10 -15 17 -17 8 -3 12 1 9 9 -2 7 -10 15 -17 17 -8
3 -12 -1 -9 -9z"/>
<path d="M5311 3425 c40 -41 43 -42 36 -14 -5 17 -3 18 9 8 17 -14 30 -6 19
11 -4 6 -17 9 -30 6 -15 -4 -25 -1 -29 9 -3 8 -13 15 -22 15 -12 0 -8 -9 17
-35z"/>
<path d="M3881 3446 c11 -9 69 -14 69 -6 0 6 -16 10 -37 10 -20 0 -34 -2 -32
-4z"/>
<path d="M4962 3438 c3 -7 13 -15 22 -16 12 -3 17 1 14 10 -3 7 -13 15 -22 16
-12 3 -17 -1 -14 -10z"/>
<path d="M5055 3440 c-3 -5 1 -13 10 -16 22 -9 29 1 11 15 -10 8 -16 9 -21 1z"/>
<path d="M5590 3442 c0 -13 42 -59 57 -64 20 -6 8 17 -24 46 -18 15 -33 23
-33 18z"/>
<path d="M4938 3434 c-8 -7 80 -104 94 -104 17 0 7 21 -14 30 -13 5 -19 9 -14
9 5 1 2 9 -5 19 -11 14 -11 15 1 5 19 -18 30 -16 30 3 0 12 -7 15 -27 11 -19
-3 -31 1 -42 15 -9 11 -20 16 -23 12z"/>
<path d="M5152 3429 c2 -7 10 -15 17 -17 8 -3 12 1 9 9 -2 7 -10 15 -17 17 -8
3 -12 -1 -9 -9z"/>
<path d="M5442 3428 c3 -7 13 -15 24 -17 16 -3 17 -1 5 13 -16 19 -34 21 -29
4z"/>
<path d="M3885 3410 c22 -11 56 -19 75 -18 33 1 32 1 -12 11 -27 6 -48 14 -48
19 0 4 -12 8 -27 8 -26 -1 -26 -2 12 -20z"/>
<path d="M4806 3417 c-16 -12 -16 -14 -2 -26 16 -13 40 -6 31 9 -3 4 4 6 15 3
10 -3 18 -8 17 -12 -3 -12 56 -70 65 -65 10 7 -81 104 -97 104 -6 0 -19 -6
-29 -13z"/>
<path d="M5217 3423 c-3 -5 9 -23 28 -41 18 -18 36 -29 38 -25 3 5 -9 23 -28
41 -18 18 -36 29 -38 25z"/>
<path d="M5560 3421 c0 -13 26 -32 33 -24 8 7 -11 33 -24 33 -5 0 -9 -4 -9 -9z"/>
<path d="M5423 3403 c9 -9 19 -14 23 -11 10 10 -6 28 -24 28 -15 0 -15 -1 1
-17z"/>
<path d="M5092 3398 c3 -7 13 -15 24 -17 16 -3 17 -1 5 13 -16 19 -34 21 -29
4z"/>
<path d="M5187 3403 c-6 -10 45 -63 61 -63 5 0 13 -7 16 -16 9 -24 7 -28 -9
-14 -9 7 -18 10 -22 6 -8 -8 27 -46 41 -45 6 0 6 3 -2 6 -15 6 -6 23 13 23 8
0 12 -8 10 -19 -5 -26 91 -129 106 -114 7 7 -3 21 -28 45 -21 19 -47 45 -58
59 -11 13 0 6 25 -16 24 -22 50 -48 58 -57 15 -20 32 -24 32 -8 0 14 -92 100
-106 100 -6 0 -27 17 -47 38 -73 74 -85 84 -90 75z"/>
<path d="M5285 3400 c-4 -6 -2 -17 4 -23 15 -15 25 -2 13 19 -7 12 -11 13 -17
4z"/>
<path d="M5385 3400 c-3 -5 1 -13 10 -16 22 -9 29 1 11 15 -10 8 -16 9 -21 1z"/>
<path d="M5536 3396 c7 -19 38 -22 32 -3 -3 6 -12 13 -21 15 -12 2 -15 -1 -11
-12z"/>
<path d="M3803 3393 c9 -2 23 -2 30 0 6 3 -1 5 -18 5 -16 0 -22 -2 -12 -5z"/>
<path d="M5067 3393 c-4 -3 -2 -12 4 -20 14 -16 -2 -18 -19 -1 -16 16 -28 2
-12 -17 9 -11 17 -12 31 -4 16 8 23 6 38 -12 10 -12 20 -18 24 -13 7 12 -57
77 -66 67z"/>
<path d="M5500 3392 c0 -14 66 -73 73 -66 4 4 -8 22 -26 40 -32 33 -47 42 -47
26z"/>
<path d="M4000 3380 c-13 -9 -13 -10 0 -9 8 0 24 4 35 9 l20 9 -20 0 c-11 0
-27 -4 -35 -9z"/>
<path d="M5362 3379 c2 -7 10 -15 17 -17 8 -3 12 1 9 9 -2 7 -10 15 -17 17 -8
3 -12 -1 -9 -9z"/>
<path d="M4118 3373 c12 -2 30 -2 40 0 9 3 -1 5 -23 4 -22 0 -30 -2 -17 -4z"/>
<path d="M4830 3371 c0 -12 26 -32 33 -25 9 10 -4 34 -19 34 -8 0 -14 -4 -14
-9z"/>
<path d="M5490 3355 c66 -65 74 -75 68 -80 -3 -3 -27 17 -53 44 -27 28 -52 48
-57 45 -5 -3 14 -30 43 -59 54 -55 51 -55 98 -28 9 5 -95 103 -109 103 -11 0
-8 -7 10 -25z"/>
<path d="M4805 3360 c-8 -13 3 -30 21 -30 18 0 18 14 0 29 -10 8 -16 9 -21 1z"/>
<path d="M5132 3359 c2 -7 10 -15 17 -17 8 -3 12 1 9 9 -2 7 -10 15 -17 17 -8
3 -12 -1 -9 -9z"/>
<path d="M5316 3363 c-3 -3 -3 -10 0 -14 7 -12 34 -11 34 0 0 11 -26 22 -34
14z"/>
<path d="M4777 3343 c-3 -5 9 -23 28 -41 18 -18 36 -29 38 -25 3 5 -9 23 -28
41 -18 18 -36 29 -38 25z"/>
<path d="M5203 3333 c9 -9 19 -14 23 -11 10 10 -6 28 -24 28 -15 0 -15 -1 1
-17z"/>
<path d="M5292 3339 c2 -7 10 -15 17 -17 8 -3 12 1 9 9 -2 7 -10 15 -17 17 -8
3 -12 -1 -9 -9z"/>
<path d="M5420 3342 c0 -12 88 -102 100 -102 19 0 10 16 -39 63 -48 46 -61 55
-61 39z"/>
<path d="M4853 3333 c-15 -6 -17 -29 -3 -38 17 -11 32 5 20 20 -10 12 -7 12
13 2 14 -6 23 -15 21 -18 -6 -10 25 -33 33 -25 8 8 -47 66 -61 65 -6 0 -17 -3
-23 -6z"/>
<path d="M5070 3329 c0 -6 9 -13 20 -16 11 -3 18 -9 15 -13 -6 -10 24 -35 32
-26 7 7 -46 66 -59 66 -4 0 -8 -5 -8 -11z"/>
<path d="M5166 3332 c-7 -12 22 -38 31 -28 4 3 0 14 -9 22 -9 10 -18 12 -22 6z"/>
<path d="M5046 3322 c-3 -5 5 -18 17 -29 12 -11 32 -32 44 -46 24 -28 43 -35
43 -16 0 6 -9 13 -20 16 -11 3 -20 10 -20 17 -1 17 -57 69 -64 58z"/>
<path d="M5377 3307 c15 -12 34 -30 42 -40 7 -10 20 -16 28 -13 8 3 11 1 8 -5
-4 -5 -1 -18 6 -27 7 -9 -3 -2 -22 16 -19 17 -41 32 -48 32 -7 0 -10 4 -7 9 7
11 -22 36 -31 27 -4 -4 16 -30 44 -57 40 -41 55 -50 72 -44 11 3 21 11 21 17
0 18 -99 104 -121 105 -17 2 -16 -1 8 -20z"/>
<path d="M4930 3311 c0 -10 30 -24 37 -17 3 3 2 9 -2 15 -8 13 -35 15 -35 2z"/>
<path d="M5143 3303 c9 -9 19 -14 23 -11 10 10 -6 28 -24 28 -15 0 -15 -1 1
-17z"/>
<path d="M4697 3299 c-14 -8 -16 -14 -6 -25 17 -21 32 -17 26 7 -5 18 -3 18
11 7 9 -7 24 -22 34 -33 9 -11 20 -17 24 -12 9 8 -44 67 -60 67 -6 0 -19 -5
-29 -11z"/>
<path d="M5202 3288 c3 -7 13 -15 24 -17 16 -3 17 -1 5 13 -16 19 -34 21 -29
4z"/>
<path d="M4780 3281 c0 -5 6 -14 14 -20 16 -13 32 2 21 19 -8 12 -35 13 -35 1z"/>
<path d="M4870 3281 c0 -15 28 -33 40 -26 8 5 8 11 -1 21 -13 15 -39 19 -39 5z"/>
<path d="M4977 3284 c-9 -10 4 -34 19 -34 8 0 14 4 14 9 0 12 -26 32 -33 25z"/>
<path d="M5176 3282 c-9 -14 39 -46 55 -36 8 4 9 3 5 -5 -10 -15 13 -43 28
-34 6 3 8 2 3 -2 -9 -10 51 -75 70 -75 19 0 16 14 -9 36 -13 11 -38 37 -56 58
-18 20 -37 34 -42 31 -6 -4 -19 4 -29 16 -12 15 -20 18 -25 11z"/>
<path d="M4627 3264 c-9 -10 12 -34 30 -34 8 0 12 -4 9 -9 -7 -11 22 -36 31
-27 4 4 -9 22 -28 42 -19 19 -38 32 -42 28z"/>
<path d="M4826 3257 c-16 -12 -17 -14 -1 -27 12 -10 19 -10 27 -2 9 9 9 12 0
12 -7 0 -12 4 -12 9 0 5 11 4 24 -2 13 -7 22 -15 20 -18 -6 -10 25 -33 33 -25
8 8 -46 66 -62 66 -6 0 -19 -6 -29 -13z"/>
<path d="M4940 3261 c0 -13 26 -32 33 -24 8 7 -11 33 -24 33 -5 0 -9 -4 -9 -9z"/>
<path d="M5052 3259 c2 -7 10 -15 17 -17 8 -3 12 1 9 9 -2 7 -10 15 -17 17 -8
3 -12 -1 -9 -9z"/>
<path d="M5146 3262 c-3 -6 1 -15 8 -21 8 -7 17 -8 20 -3 3 6 -1 15 -8 21 -8
7 -17 8 -20 3z"/>
<path d="M4720 3251 c0 -5 6 -14 14 -20 16 -13 32 2 21 19 -8 12 -35 13 -35 1z"/>
<path d="M5260 3252 c0 -14 108 -114 113 -105 3 5 -18 33 -47 61 -52 51 -66
60 -66 44z"/>
<path d="M4695 3241 c-10 -17 15 -45 29 -31 7 7 5 15 -6 26 -11 11 -18 13 -23
5z"/>
<path d="M4912 3238 c3 -7 13 -15 22 -16 12 -3 17 1 14 10 -3 7 -13 15 -22 16
-12 3 -17 -1 -14 -10z"/>
<path d="M5006 3241 c-8 -12 21 -34 34 -26 8 5 8 11 -1 21 -13 16 -25 18 -33
5z"/>
<path d="M4580 3231 c0 -14 28 -33 39 -26 6 3 8 0 5 -8 -7 -18 21 -43 31 -27
8 13 -42 70 -62 70 -7 0 -13 -4 -13 -9z"/>
<path d="M4790 3226 c0 -18 17 -29 30 -21 8 5 7 11 -1 21 -15 18 -29 18 -29 0z"/>
<path d="M4542 3211 c-21 -16 -22 -18 -7 -31 12 -10 19 -10 27 -2 15 15 29 15
26 1 -4 -14 29 -36 39 -26 4 4 -9 23 -27 42 -34 34 -35 34 -58 16z"/>
<path d="M4961 3221 c-17 -11 -7 -41 14 -41 18 0 19 12 3 28 -9 9 -5 9 14 0
15 -7 24 -16 22 -19 -6 -10 25 -33 33 -25 8 8 -46 66 -61 66 -6 0 -17 -4 -25
-9z"/>
<path d="M5100 3206 c14 -13 28 -23 31 -22 10 2 99 -84 99 -95 0 -5 7 -9 15
-9 8 0 15 4 15 8 0 15 -66 72 -74 65 -4 -5 -6 -2 -4 6 2 8 -10 21 -27 29 -16
8 -34 21 -38 29 -4 7 -16 13 -25 13 -13 0 -12 -5 8 -24z"/>
<path d="M5207 3223 c-3 -5 19 -32 48 -62 29 -29 55 -49 58 -44 3 4 -19 32
-48 61 -29 29 -55 49 -58 45z"/>
<path d="M4737 3209 c-14 -8 -16 -14 -6 -25 12 -15 39 -19 39 -6 0 4 -5 13
-12 20 -9 9 -5 9 14 0 15 -7 24 -16 22 -19 -6 -10 25 -33 33 -25 8 8 -46 66
-61 66 -6 0 -19 -5 -29 -11z"/>
<path d="M4850 3211 c0 -12 29 -35 36 -28 11 10 -5 37 -21 37 -8 0 -15 -4 -15
-9z"/>
<path d="M5042 3198 c3 -7 13 -15 22 -16 12 -3 17 1 14 10 -3 7 -13 15 -22 16
-12 3 -17 -1 -14 -10z"/>
<path d="M5170 3201 c0 -15 28 -33 40 -26 8 5 8 11 -1 21 -13 15 -39 19 -39 5z"/>
<path d="M4822 3188 c3 -7 15 -15 29 -19 13 -4 18 -7 10 -8 -18 -1 6 -31 25
-31 21 0 17 14 -14 43 -29 28 -57 36 -50 15z"/>
<path d="M4920 3190 c0 -15 52 -59 69 -60 11 0 11 3 1 15 -7 8 -19 15 -28 15
-8 0 -12 3 -9 7 8 7 -11 33 -24 33 -5 0 -9 -5 -9 -10z"/>
<path d="M4697 3184 c-9 -10 56 -72 70 -67 18 7 -3 33 -25 33 -8 0 -12 3 -9 7
4 3 2 12 -4 20 -12 14 -22 16 -32 7z"/>
<path d="M4892 3168 c3 -7 13 -15 24 -17 16 -3 17 -1 5 13 -16 19 -34 21 -29
4z"/>
<path d="M4985 3171 c-6 -10 32 -41 50 -41 5 0 3 5 -5 10 -8 5 -11 10 -6 10
11 0 -13 30 -25 30 -4 0 -10 -4 -14 -9z"/>
<path d="M4560 3161 c0 -13 26 -32 33 -24 8 7 -11 33 -24 33 -5 0 -9 -4 -9 -9z"/>
<path d="M4657 3163 c-10 -9 13 -33 31 -33 8 0 12 -3 9 -7 -8 -7 11 -33 24
-33 16 0 9 17 -18 49 -28 32 -35 36 -46 24z"/>
<path d="M4766 3161 c-8 -12 21 -34 34 -26 8 5 8 11 -1 21 -13 16 -25 18 -33
5z"/>
<path d="M5100 3161 c0 -13 29 -35 37 -28 7 8 -15 37 -28 37 -5 0 -9 -4 -9 -9z"/>
<path d="M5210 3162 c0 -4 15 -23 34 -41 43 -41 61 -23 20 20 -26 28 -54 38
-54 21z"/>
<path d="M4535 3151 c-10 -17 15 -45 29 -31 7 7 5 15 -6 26 -11 11 -18 13 -23
5z"/>
<path d="M5050 3141 c-7 -14 2 -28 46 -71 70 -68 85 -56 16 13 -29 29 -52 57
-52 62 0 6 9 -1 19 -14 11 -14 23 -21 30 -17 9 6 9 11 1 21 -18 22 -49 25 -60
6z"/>
<path d="M4626 3141 c-8 -12 21 -34 34 -26 8 5 8 11 -1 21 -13 16 -25 18 -33
5z"/>
<path d="M4830 3142 c0 -14 79 -86 86 -79 4 4 2 7 -4 7 -7 0 -11 4 -9 8 2 9
-54 72 -65 72 -5 0 -8 -4 -8 -8z"/>
<path d="M4492 3127 c-13 -6 -21 -16 -18 -23 3 -7 -2 -10 -15 -7 -21 6 -25 -7
-7 -25 8 -8 15 -9 25 -1 10 9 18 6 32 -12 15 -18 22 -21 31 -13 9 9 7 15 -7
25 -10 8 -25 23 -33 33 -14 18 -14 19 7 5 26 -16 43 -5 22 15 -11 11 -20 11
-37 3z"/>
<path d="M4905 3126 c-18 -13 -16 -15 21 -39 21 -14 59 -46 84 -71 24 -25 47
-46 52 -46 4 0 23 10 43 21 l36 21 -56 56 c-39 39 -59 52 -66 45 -8 -8 -5 -15
8 -25 10 -7 34 -32 53 -53 25 -29 19 -25 -20 13 -31 28 -60 52 -66 52 -6 0
-19 9 -29 20 -21 24 -34 25 -60 6z m91 -52 c78 -87 84 -94 34 -48 -30 29 -65
55 -78 59 -13 4 -21 9 -18 12 3 4 1 12 -5 20 -23 27 40 -13 67 -43z"/>
<path d="M4596 3118 c4 -7 3 -8 -4 -4 -7 4 -17 4 -23 1 -6 -4 4 -21 25 -43 36
-35 64 -39 33 -4 -18 20 -22 33 -9 31 19 -3 23 2 12 16 -15 18 -45 21 -34 3z"/>
<path d="M4800 3124 c0 -14 53 -64 67 -64 8 0 11 -5 7 -12 -4 -7 -3 -8 4 -4
16 10 -7 46 -29 46 -10 0 -16 7 -15 17 0 10 -7 19 -16 21 -10 2 -18 0 -18 -4z"/>
<path d="M4995 3120 c-3 -5 -1 -10 4 -10 6 0 11 5 11 10 0 6 -2 10 -4 10 -3 0
-8 -4 -11 -10z"/>
<path d="M5140 3122 c0 -13 66 -73 73 -66 10 10 -13 45 -25 38 -7 -4 -8 -3 -4
4 3 6 -2 16 -13 21 -24 13 -31 14 -31 3z"/>
<path d="M4370 3112 c0 -16 23 -30 39 -25 12 3 13 2 3 -4 -10 -7 -8 -13 7 -27
32 -29 37 2 5 35 -26 28 -54 38 -54 21z"/>
<path d="M4772 3113 c-10 -4 -10 -8 -1 -19 13 -15 39 -19 39 -5 0 14 -24 29
-38 24z"/>
<path d="M5115 3111 c-9 -15 14 -43 28 -34 5 3 7 1 4 -4 -4 -6 2 -18 12 -27
14 -13 21 -14 26 -6 5 7 -7 27 -27 47 -24 23 -38 31 -43 24z"/>
<path d="M4345 3101 c-8 -14 13 -43 26 -35 5 3 8 0 7 -6 -4 -15 28 -37 39 -27
4 4 -9 24 -29 43 -23 24 -38 32 -43 25z"/>
<path d="M4660 3102 c0 -17 68 -74 75 -62 9 14 -14 42 -29 33 -6 -3 -8 -3 -4
2 4 4 3 14 -3 22 -12 14 -39 18 -39 5z"/>
<path d="M4536 3091 c-8 -12 21 -34 34 -26 8 5 8 11 -1 21 -13 16 -25 18 -33
5z"/>
<path d="M4636 3091 c-9 -14 1 -31 20 -31 8 0 13 -5 12 -11 -4 -14 29 -36 39
-26 4 4 -9 24 -29 43 -22 23 -38 32 -42 25z"/>
<path d="M4730 3083 c0 -13 54 -63 67 -63 11 0 11 -4 2 -21 -10 -19 -5 -28 44
-77 34 -34 59 -52 67 -47 8 5 -7 27 -47 68 -32 34 -47 52 -34 42 13 -11 41
-38 61 -59 23 -25 41 -36 49 -31 9 5 6 14 -13 34 -15 15 -23 31 -19 35 5 4 1
6 -7 4 -8 -1 -14 3 -12 10 1 6 -3 11 -10 10 -7 -2 -12 4 -13 12 0 9 -8 14 -21
12 -11 -1 -29 7 -39 18 -10 11 -25 20 -33 20 -9 0 -12 3 -9 7 4 3 2 12 -4 20
-12 14 -29 18 -29 6z"/>
<path d="M4457 3049 c-17 -10 -16 -14 18 -47 30 -30 38 -34 45 -22 6 8 10 11
10 6 0 -6 5 -5 12 2 9 9 5 19 -17 42 -31 32 -40 35 -68 19z m57 -31 c-8 -13
-18 -9 -31 11 -11 17 -10 18 12 7 13 -6 21 -14 19 -18z"/>
<path d="M4570 3052 c0 -17 68 -74 74 -63 4 6 13 11 19 11 7 0 4 -5 -6 -11
-14 -8 -15 -14 -7 -24 12 -14 80 -16 80 -2 0 4 -5 5 -10 2 -6 -4 -9 -2 -8 2 3
11 -53 73 -66 73 -4 0 -6 -6 -3 -14 4 -10 0 -12 -14 -9 -11 3 -17 8 -14 11 8
8 -16 32 -31 32 -8 0 -14 -4 -14 -8z"/>
<path d="M4545 3041 c-10 -17 13 -41 33 -34 12 3 13 2 4 -4 -10 -7 -8 -13 7
-27 14 -12 21 -14 26 -6 5 7 -7 27 -27 47 -24 23 -38 31 -43 24z"/>
<path d="M4419 3028 c-9 -32 5 -60 36 -70 6 -2 9 -7 7 -13 -2 -5 0 -7 4 -2 10
10 45 -23 37 -36 -3 -5 8 1 25 13 17 13 29 27 26 32 -11 17 6 7 30 -18 13 -15
29 -23 35 -19 8 4 1 18 -21 41 -38 39 -38 39 -64 17 -24 -21 -45 -27 -41 -12
1 6 -6 16 -16 22 -14 9 -19 9 -26 -2 -5 -8 -11 -9 -15 -3 -3 5 1 13 10 16 13
5 14 9 4 21 -11 13 -28 20 -31 13z"/>
<path d="M4706 3011 c-8 -12 21 -34 34 -26 8 5 8 11 -1 21 -13 16 -25 18 -33
5z"/>
<path d="M4445 2920 c-6 -10 23 -35 32 -26 4 4 8 12 9 19 2 14 -33 20 -41 7z"/>
<path d="M4528 2914 c-7 -7 2 -44 11 -44 3 0 12 4 19 8 10 7 8 12 -6 25 -10 9
-21 15 -24 11z"/>
<path d="M4410 2903 c0 -16 63 -71 77 -66 12 5 11 9 -3 24 -9 10 -22 16 -28
12 -6 -3 -8 -3 -4 2 4 4 3 14 -3 22 -12 14 -39 18 -39 6z"/>
<path d="M5760 2890 c0 -5 5 -10 11 -10 8 0 7 -5 -2 -16 -10 -13 -10 -17 2
-25 8 -5 19 -8 24 -8 6 0 4 3 -2 6 -17 6 -17 30 -1 35 8 3 4 9 -10 17 -14 7
-22 8 -22 1z"/>
<path d="M4615 2800 c21 -22 41 -40 44 -40 3 0 -13 18 -34 40 -21 22 -41 40
-44 40 -3 0 13 -18 34 -40z"/>
<path d="M6605 2512 c2 -45 18 -77 34 -68 17 11 13 34 -9 56 -12 12 -18 25
-15 30 3 5 1 11 -3 14 -5 3 -8 -12 -7 -32z"/>
<path d="M6575 2500 c3 -5 8 -10 11 -10 2 0 4 5 4 10 0 6 -5 10 -11 10 -5 0
-7 -4 -4 -10z"/>
<path d="M6400 2496 c0 -9 30 -14 35 -6 4 6 -3 10 -14 10 -12 0 -21 -2 -21 -4z"/>
<path d="M6450 2471 c0 -7 -4 -9 -10 -6 -11 7 -13 -6 -4 -29 7 -18 34 -22 34
-5 0 5 5 7 10 4 17 -10 11 5 -10 27 -11 12 -20 16 -20 9z"/>
<path d="M6660 2456 c0 -2 7 -7 16 -10 8 -3 12 -2 9 4 -6 10 -25 14 -25 6z"/>
<path d="M6545 2402 c9 -19 14 -40 11 -48 -3 -7 -1 -16 5 -20 6 -3 8 -12 5
-19 -2 -7 9 -26 26 -41 21 -20 32 -25 35 -16 3 6 10 9 15 6 7 -4 8 -2 4 4 -4
6 -13 9 -21 5 -8 -3 -15 -1 -16 3 -4 44 -8 57 -25 76 -13 14 -14 19 -4 14 8
-4 7 -1 -4 8 -11 9 -15 20 -10 28 4 7 4 10 -1 6 -4 -4 -14 0 -22 10 -9 11 -9
6 2 -16z"/>
<path d="M6500 2358 c0 -18 26 -43 33 -31 2 4 -4 17 -14 27 -16 16 -19 17 -19
4z"/>
<path d="M6473 2166 c4 -10 1 -13 -9 -9 -10 3 -12 0 -8 -10 6 -18 50 -28 77
-18 18 7 16 9 -12 20 -17 8 -31 17 -31 22 0 5 -5 9 -11 9 -6 0 -9 -7 -6 -14z"/>
<path d="M6920 2157 c0 -5 9 -20 20 -34 11 -14 20 -21 20 -15 0 12 -39 60 -40
49z"/>
<path d="M7100 2125 c19 -22 40 -43 47 -48 7 -4 10 -14 7 -22 -4 -8 -2 -15 2
-15 13 0 103 -87 97 -93 -2 -3 5 -8 16 -12 12 -3 19 -10 17 -14 -8 -12 75
-106 93 -106 9 0 14 -5 11 -10 -3 -6 -8 -9 -12 -8 -10 4 -3 -23 10 -39 6 -8 8
-19 4 -23 -4 -5 -1 -5 6 -1 11 6 10 12 -5 29 -18 22 -18 22 3 4 11 -9 21 -24
22 -32 1 -8 3 -22 4 -30 1 -8 6 -12 11 -8 5 3 6 -7 2 -27 -4 -19 -3 -30 2 -27
11 7 44 -28 36 -37 -7 -6 22 -36 36 -36 5 0 17 -10 25 -22 l16 -22 0 27 c0 15
-6 27 -12 27 -10 0 -9 3 1 9 11 7 11 10 -1 17 -9 5 -19 20 -23 32 -6 21 -5 23
13 13 42 -22 31 9 -25 75 -67 78 -327 342 -393 399 l-45 39 35 -39z m364 -424
c-2 -3 -12 3 -22 13 -16 17 -16 18 5 5 12 -7 20 -15 17 -18z m77 -33 c11 -21
11 -22 -4 -9 -10 7 -17 17 -17 22 0 15 9 10 21 -13z"/>
<path d="M7067 2115 c10 -13 22 -25 27 -25 5 0 -1 11 -14 25 -30 32 -36 32
-13 0z"/>
<path d="M6785 2090 c3 -5 8 -10 11 -10 2 0 4 5 4 10 0 6 -5 10 -11 10 -5 0
-7 -4 -4 -10z"/>
<path d="M7000 2086 c0 -2 7 -9 15 -16 9 -7 15 -8 15 -2 0 5 -7 12 -15 16 -8
3 -15 4 -15 2z"/>
<path d="M7101 2063 c-1 -12 15 -39 35 -61 20 -22 34 -43 32 -46 -1 -3 12 -16
29 -29 18 -13 29 -28 26 -33 -4 -5 -1 -3 7 4 13 12 13 15 -1 25 -9 7 -23 27
-33 45 -9 17 -23 32 -32 32 -9 0 -14 7 -12 18 2 11 -3 16 -14 14 -10 -1 -20 8
-26 25 -9 24 -11 25 -11 6z"/>
<path d="M7126 2058 c3 -5 10 -6 15 -3 13 9 11 12 -6 12 -8 0 -12 -4 -9 -9z"/>
<path d="M6946 2052 c-6 -11 39 -72 54 -72 5 0 8 9 7 19 -1 16 -4 18 -16 8 -8
-7 -12 -7 -9 -2 4 6 -2 21 -11 34 -11 14 -21 20 -25 13z"/>
<path d="M7220 1841 c0 -6 4 -13 10 -16 6 -3 7 1 4 9 -7 18 -14 21 -14 7z"/>
<path d="M7250 1813 c0 -5 11 -21 25 -38 l25 -30 -21 38 c-20 36 -29 45 -29
30z"/>
<path d="M7230 1786 c0 -2 8 -10 18 -17 15 -13 16 -12 3 4 -13 16 -21 21 -21
13z"/>
<path d="M7700 1156 c0 -8 43 -46 51 -46 4 0 10 8 13 17 4 10 4 14 0 11 -3 -4
-19 -1 -35 8 -16 8 -29 12 -29 10z"/>
<path d="M7976 1127 c3 -10 9 -15 12 -12 3 3 0 11 -7 18 -10 9 -11 8 -5 -6z"/>
<path d="M7787 1060 c10 -11 22 -20 27 -20 5 0 1 9 -9 20 -10 11 -22 20 -26
20 -5 0 -1 -9 8 -20z"/>
<path d="M7940 1032 c0 -7 -4 -10 -10 -7 -6 3 -7 -1 -3 -10 5 -13 7 -14 14 -3
7 11 9 10 9 -1 0 -8 3 -12 6 -8 3 3 1 14 -5 24 -6 11 -11 13 -11 5z"/>
<path d="M8016 931 c-3 -5 3 -11 13 -14 14 -3 18 -1 14 9 -6 16 -19 18 -27 5z"/>
<path d="M8090 869 c0 -5 5 -7 12 -3 8 5 9 1 4 -12 -5 -14 -4 -16 5 -7 6 6 8
16 5 22 -9 14 -26 14 -26 0z"/>
</g>
</svg>
